G04 EAGLE Gerber X2 export*
G75*
%MOMM*%
%FSLAX34Y34*%
%LPD*%
%AMOC8*
5,1,8,0,0,1.08239X$1,22.5*%
G01*
%ADD10R,30.988000X1.016000*%
%ADD11R,31.242000X1.016000*%
%ADD12R,56.896000X1.016000*%
%ADD13R,56.642000X1.016000*%
%ADD14C,2.901600*%
%ADD15C,1.778000*%
%ADD16C,1.981200*%
%ADD17C,2.032000*%


D10*
X271780Y38100D03*
D11*
X270510Y63500D03*
D12*
X347980Y419100D03*
D13*
X346710Y393700D03*
D14*
X35000Y35000D03*
X35000Y525000D03*
X615000Y525000D03*
X615000Y35000D03*
D15*
X83700Y512300D03*
X83700Y537700D03*
X109100Y512300D03*
X109100Y537700D03*
X134500Y512300D03*
X134500Y537700D03*
X159900Y512300D03*
X159900Y537700D03*
X185300Y512300D03*
X185300Y537700D03*
X210700Y512300D03*
X210700Y537700D03*
X236100Y512300D03*
X236100Y537700D03*
X261500Y512300D03*
X261500Y537700D03*
X286900Y512300D03*
X286900Y537700D03*
X312300Y512300D03*
X312300Y537700D03*
X337700Y512300D03*
X337700Y537700D03*
X363100Y512300D03*
X363100Y537700D03*
X388500Y512300D03*
X388500Y537700D03*
X413900Y512300D03*
X413900Y537700D03*
X439300Y512300D03*
X439300Y537700D03*
X464700Y512300D03*
X464700Y537700D03*
X490100Y512300D03*
X490100Y537700D03*
X515500Y512300D03*
X515500Y537700D03*
X540900Y512300D03*
X540900Y537700D03*
X566300Y512300D03*
X566300Y537700D03*
X22860Y472440D03*
X48260Y472440D03*
X73660Y472440D03*
X99060Y472440D03*
X124460Y472440D03*
X149860Y472440D03*
X175260Y472440D03*
X200660Y472440D03*
X226060Y472440D03*
X251460Y472440D03*
X276860Y472440D03*
X302260Y472440D03*
X327660Y472440D03*
X353060Y472440D03*
X378460Y472440D03*
X403860Y472440D03*
X429260Y472440D03*
X454660Y472440D03*
X480060Y472440D03*
X505460Y472440D03*
X530860Y472440D03*
X556260Y472440D03*
X581660Y472440D03*
X607060Y472440D03*
X632460Y472440D03*
D16*
X128778Y228600D03*
X99822Y228600D03*
X128778Y254000D03*
X99822Y254000D03*
X330200Y328422D03*
X330200Y357378D03*
X355600Y328422D03*
X355600Y357378D03*
X569722Y254000D03*
X598678Y254000D03*
X569722Y228600D03*
X598678Y228600D03*
X355600Y141478D03*
X355600Y112522D03*
X330200Y141478D03*
X330200Y112522D03*
D17*
X422910Y63500D03*
X397510Y63500D03*
X372110Y63500D03*
X346710Y63500D03*
X295910Y63500D03*
X321310Y63500D03*
X270510Y63500D03*
X245110Y63500D03*
X219710Y63500D03*
X194310Y63500D03*
X168910Y63500D03*
X143510Y63500D03*
X118110Y63500D03*
X67310Y419100D03*
X92710Y419100D03*
X118110Y419100D03*
X143510Y419100D03*
X168910Y419100D03*
X194310Y419100D03*
X219710Y419100D03*
X245110Y419100D03*
X270510Y419100D03*
X295910Y419100D03*
X321310Y419100D03*
X346710Y419100D03*
X372110Y419100D03*
X397510Y419100D03*
X422910Y419100D03*
X448310Y419100D03*
X473710Y419100D03*
X499110Y419100D03*
X524510Y419100D03*
X549910Y419100D03*
X575310Y419100D03*
X600710Y419100D03*
X626110Y419100D03*
X626110Y393700D03*
X600710Y393700D03*
X575310Y393700D03*
X549910Y393700D03*
X524510Y393700D03*
X499110Y393700D03*
X473710Y393700D03*
X448310Y393700D03*
X422910Y393700D03*
X397510Y393700D03*
X372110Y393700D03*
X346710Y393700D03*
X321310Y393700D03*
X295910Y393700D03*
X245110Y393700D03*
X270510Y393700D03*
X219710Y393700D03*
X194310Y393700D03*
X168910Y393700D03*
X143510Y393700D03*
X118110Y393700D03*
X92710Y393700D03*
X67310Y393700D03*
X118110Y38100D03*
X143510Y38100D03*
X168910Y38100D03*
X194310Y38100D03*
X219710Y38100D03*
X245110Y38100D03*
X270510Y38100D03*
X295910Y38100D03*
X321310Y38100D03*
X346710Y38100D03*
X372110Y38100D03*
X397510Y38100D03*
X422910Y38100D03*
M02*
