M48
;GenerationSoftware,Autodesk,EAGLE,9.0.1*%
;CreationDate,2018-07-30T07:35:04Z*%
FMAT,2
ICI,OFF
METRIC,TZ,000.000
T7C0.394
T6C0.900
T5C1.000
T4C1.016
T3C1.200
T2C2.800
%
G90
M71
T2
X61500Y3500
X61500Y52500
X3500Y52500
X3500Y3500
T3
X19431Y39370
X60071Y39370
X21971Y39370
X27051Y39370
X24511Y39370
X29591Y39370
X32131Y39370
X34671Y39370
X37211Y39370
X39751Y39370
X42291Y39370
X44831Y39370
X47371Y39370
X49911Y39370
X52451Y39370
X54991Y39370
X57531Y39370
X39751Y6350
X21971Y3810
X42291Y3810
X39751Y3810
X37211Y3810
X34671Y3810
X32131Y3810
X29591Y3810
X27051Y3810
X24511Y3810
X16891Y39370
X19431Y3810
X16891Y3810
X14351Y3810
X11811Y3810
X6731Y39370
X9271Y39370
X11811Y39370
X14351Y39370
X16891Y6350
X19431Y41910
X16891Y41910
X14351Y41910
X11811Y41910
X9271Y41910
X6731Y41910
X42291Y6350
X11811Y6350
X14351Y6350
X62611Y41910
X19431Y6350
X21971Y6350
X24511Y6350
X27051Y6350
X32131Y6350
X29591Y6350
X34671Y6350
X37211Y6350
X24511Y41910
X62611Y39370
X60071Y41910
X57531Y41910
X54991Y41910
X52451Y41910
X49911Y41910
X47371Y41910
X44831Y41910
X42291Y41910
X39751Y41910
X37211Y41910
X21971Y41910
X34671Y41910
X32131Y41910
X29591Y41910
X27051Y41910
T4
X9982Y22860
X12878Y25400
X9982Y25400
X12878Y22860
X33020Y32842
X33020Y35738
X35560Y32842
X35560Y35738
X56972Y25400
X59868Y25400
X56972Y22860
X33020Y11252
X59868Y22860
X35560Y14148
X35560Y11252
X33020Y14148
T5
X22606Y47244
X45466Y47244
X42926Y47244
X40386Y47244
X37846Y47244
X35306Y47244
X32766Y47244
X30226Y47244
X27686Y47244
X25146Y47244
X48006Y47244
X2286Y47244
X4826Y47244
X7366Y47244
X9906Y47244
X12446Y47244
X14986Y47244
X17526Y47244
X20066Y47244
X50546Y47244
X53086Y47244
X55626Y47244
X58166Y47244
X60706Y47244
X63246Y47244
T6
X8370Y51230
X23610Y51230
X8370Y53770
X10910Y51230
X10910Y53770
X13450Y51230
X13450Y53770
X15990Y51230
X15990Y53770
X18530Y51230
X18530Y53770
X21070Y51230
X56630Y51230
X21070Y53770
X23610Y53770
X26150Y51230
X26150Y53770
X28690Y51230
X28690Y53770
X31230Y51230
X31230Y53770
X33770Y51230
X33770Y53770
X36310Y51230
X36310Y53770
X38850Y51230
X41390Y51230
X56630Y53770
X54090Y53770
X54090Y51230
X51550Y53770
X51550Y51230
X49010Y53770
X49010Y51230
X46470Y53770
X46470Y51230
X43930Y53770
X43930Y51230
X41390Y53770
X38850Y53770
T7
X57150Y1524
X16129Y44323
X6223Y45466
X51435Y6604
X51435Y3810
M30