G04 EAGLE Gerber X2 export*
G75*
%MOMM*%
%FSLAX34Y34*%
%LPD*%
%AMOC8*
5,1,8,0,0,1.08239X$1,22.5*%
G01*
%ADD10C,0.812800*%
%ADD11C,0.203200*%
%ADD12C,0.127000*%
%ADD13C,0.152400*%
%ADD14C,0.304800*%
%ADD15R,0.068600X0.007600*%
%ADD16R,0.114300X0.007600*%
%ADD17R,0.152400X0.007700*%
%ADD18R,0.182900X0.007600*%
%ADD19R,0.205700X0.007600*%
%ADD20R,0.228600X0.007600*%
%ADD21R,0.259100X0.007600*%
%ADD22R,0.274300X0.007700*%
%ADD23R,0.289500X0.007600*%
%ADD24R,0.304800X0.007600*%
%ADD25R,0.320100X0.007600*%
%ADD26R,0.342900X0.007600*%
%ADD27R,0.350500X0.007700*%
%ADD28R,0.365800X0.007600*%
%ADD29R,0.381000X0.007600*%
%ADD30R,0.388600X0.007600*%
%ADD31R,0.403800X0.007600*%
%ADD32R,0.419100X0.007700*%
%ADD33R,0.426700X0.007600*%
%ADD34R,0.441900X0.007600*%
%ADD35R,0.449600X0.007600*%
%ADD36R,0.464800X0.007600*%
%ADD37R,0.480000X0.007700*%
%ADD38R,0.487600X0.007600*%
%ADD39R,0.495300X0.007600*%
%ADD40R,0.510500X0.007600*%
%ADD41R,0.518100X0.007600*%
%ADD42R,0.525700X0.007700*%
%ADD43R,0.541000X0.007600*%
%ADD44R,0.548600X0.007600*%
%ADD45R,0.563800X0.007600*%
%ADD46R,0.571500X0.007600*%
%ADD47R,0.579100X0.007700*%
%ADD48R,0.594300X0.007600*%
%ADD49R,0.601900X0.007600*%
%ADD50R,0.609600X0.007600*%
%ADD51R,0.624800X0.007600*%
%ADD52R,0.632400X0.007700*%
%ADD53R,0.640000X0.007600*%
%ADD54R,0.655300X0.007600*%
%ADD55R,0.662900X0.007600*%
%ADD56R,0.678100X0.007600*%
%ADD57R,0.685800X0.007700*%
%ADD58R,0.693400X0.007600*%
%ADD59R,0.708600X0.007600*%
%ADD60R,0.716200X0.007600*%
%ADD61R,0.723900X0.007600*%
%ADD62R,0.739100X0.007700*%
%ADD63R,0.746700X0.007600*%
%ADD64R,0.754300X0.007600*%
%ADD65R,0.769600X0.007600*%
%ADD66R,0.777200X0.007600*%
%ADD67R,0.792400X0.007700*%
%ADD68R,0.800100X0.007600*%
%ADD69R,0.807700X0.007600*%
%ADD70R,0.822900X0.007600*%
%ADD71R,0.830500X0.007600*%
%ADD72R,0.838200X0.007700*%
%ADD73R,0.091500X0.007600*%
%ADD74R,0.853400X0.007600*%
%ADD75R,0.144700X0.007600*%
%ADD76R,0.861000X0.007600*%
%ADD77R,0.190500X0.007600*%
%ADD78R,0.876300X0.007600*%
%ADD79R,0.221000X0.007600*%
%ADD80R,0.883900X0.007600*%
%ADD81R,0.259000X0.007700*%
%ADD82R,0.891500X0.007700*%
%ADD83R,0.289600X0.007600*%
%ADD84R,0.906700X0.007600*%
%ADD85R,0.914400X0.007600*%
%ADD86R,0.350500X0.007600*%
%ADD87R,0.922000X0.007600*%
%ADD88R,0.937200X0.007600*%
%ADD89R,0.411400X0.007700*%
%ADD90R,0.944800X0.007700*%
%ADD91R,0.434300X0.007600*%
%ADD92R,0.952500X0.007600*%
%ADD93R,0.464900X0.007600*%
%ADD94R,0.967700X0.007600*%
%ADD95R,0.975300X0.007600*%
%ADD96R,0.518200X0.007600*%
%ADD97R,0.990600X0.007600*%
%ADD98R,0.548600X0.007700*%
%ADD99R,0.998200X0.007700*%
%ADD100R,1.005800X0.007600*%
%ADD101R,0.594400X0.007600*%
%ADD102R,1.021000X0.007600*%
%ADD103R,0.617200X0.007600*%
%ADD104R,1.028700X0.007600*%
%ADD105R,0.647700X0.007600*%
%ADD106R,1.036300X0.007600*%
%ADD107R,0.670500X0.007700*%
%ADD108R,1.051500X0.007700*%
%ADD109R,1.059100X0.007600*%
%ADD110R,0.716300X0.007600*%
%ADD111R,1.066800X0.007600*%
%ADD112R,0.739100X0.007600*%
%ADD113R,1.074400X0.007600*%
%ADD114R,0.762000X0.007600*%
%ADD115R,1.089600X0.007600*%
%ADD116R,0.784800X0.007700*%
%ADD117R,1.097200X0.007700*%
%ADD118R,1.104900X0.007600*%
%ADD119R,0.830600X0.007600*%
%ADD120R,1.112500X0.007600*%
%ADD121R,0.845800X0.007600*%
%ADD122R,1.120100X0.007600*%
%ADD123R,0.868700X0.007600*%
%ADD124R,1.127700X0.007600*%
%ADD125R,1.135300X0.007700*%
%ADD126R,1.143000X0.007600*%
%ADD127R,0.944900X0.007600*%
%ADD128R,1.150600X0.007600*%
%ADD129R,0.960100X0.007600*%
%ADD130R,1.158200X0.007600*%
%ADD131R,0.983000X0.007600*%
%ADD132R,1.165800X0.007600*%
%ADD133R,1.005900X0.007700*%
%ADD134R,1.173400X0.007700*%
%ADD135R,1.021100X0.007600*%
%ADD136R,1.181100X0.007600*%
%ADD137R,1.044000X0.007600*%
%ADD138R,1.188700X0.007600*%
%ADD139R,1.196300X0.007600*%
%ADD140R,1.082000X0.007600*%
%ADD141R,1.203900X0.007600*%
%ADD142R,1.104900X0.007700*%
%ADD143R,1.211500X0.007700*%
%ADD144R,1.211500X0.007600*%
%ADD145R,1.219200X0.007600*%
%ADD146R,1.226800X0.007600*%
%ADD147R,1.234400X0.007600*%
%ADD148R,1.188700X0.007700*%
%ADD149R,1.242000X0.007700*%
%ADD150R,1.242000X0.007600*%
%ADD151R,1.211600X0.007600*%
%ADD152R,1.249600X0.007600*%
%ADD153R,1.257300X0.007600*%
%ADD154R,1.264900X0.007600*%
%ADD155R,1.242100X0.007700*%
%ADD156R,1.264900X0.007700*%
%ADD157R,1.272500X0.007600*%
%ADD158R,1.265000X0.007600*%
%ADD159R,1.280100X0.007600*%
%ADD160R,1.272600X0.007600*%
%ADD161R,1.287700X0.007600*%
%ADD162R,1.287800X0.007600*%
%ADD163R,1.295400X0.007700*%
%ADD164R,1.303000X0.007600*%
%ADD165R,1.318200X0.007600*%
%ADD166R,1.310600X0.007600*%
%ADD167R,1.325900X0.007600*%
%ADD168R,1.341100X0.007700*%
%ADD169R,1.318200X0.007700*%
%ADD170R,1.341100X0.007600*%
%ADD171R,1.325800X0.007600*%
%ADD172R,1.348700X0.007600*%
%ADD173R,1.364000X0.007600*%
%ADD174R,1.333500X0.007600*%
%ADD175R,1.371600X0.007700*%
%ADD176R,1.379200X0.007600*%
%ADD177R,1.379300X0.007600*%
%ADD178R,1.386900X0.007600*%
%ADD179R,1.394500X0.007600*%
%ADD180R,1.356300X0.007600*%
%ADD181R,1.394400X0.007700*%
%ADD182R,1.356300X0.007700*%
%ADD183R,1.402000X0.007600*%
%ADD184R,1.409700X0.007600*%
%ADD185R,1.363900X0.007600*%
%ADD186R,1.417300X0.007600*%
%ADD187R,1.371600X0.007600*%
%ADD188R,1.424900X0.007700*%
%ADD189R,1.424900X0.007600*%
%ADD190R,1.432600X0.007600*%
%ADD191R,1.440200X0.007600*%
%ADD192R,1.386800X0.007600*%
%ADD193R,1.447800X0.007700*%
%ADD194R,1.386800X0.007700*%
%ADD195R,1.447800X0.007600*%
%ADD196R,1.455500X0.007600*%
%ADD197R,1.394400X0.007600*%
%ADD198R,1.463100X0.007600*%
%ADD199R,1.455400X0.007700*%
%ADD200R,1.463000X0.007600*%
%ADD201R,1.470600X0.007600*%
%ADD202R,1.470600X0.007700*%
%ADD203R,1.409700X0.007700*%
%ADD204R,1.470700X0.007600*%
%ADD205R,1.402100X0.007600*%
%ADD206R,1.478300X0.007600*%
%ADD207R,1.478300X0.007700*%
%ADD208R,1.402100X0.007700*%
%ADD209R,1.485900X0.007600*%
%ADD210R,1.485900X0.007700*%
%ADD211R,1.493500X0.007700*%
%ADD212R,1.493500X0.007600*%
%ADD213R,1.394500X0.007700*%
%ADD214R,1.493600X0.007700*%
%ADD215R,1.386900X0.007700*%
%ADD216R,1.379200X0.007700*%
%ADD217R,2.857500X0.007700*%
%ADD218R,2.857500X0.007600*%
%ADD219R,2.849900X0.007600*%
%ADD220R,2.842300X0.007600*%
%ADD221R,2.834700X0.007700*%
%ADD222R,2.827000X0.007600*%
%ADD223R,2.819400X0.007600*%
%ADD224R,2.811800X0.007600*%
%ADD225R,2.811800X0.007700*%
%ADD226R,2.804100X0.007600*%
%ADD227R,2.796500X0.007600*%
%ADD228R,1.966000X0.007600*%
%ADD229R,1.943100X0.007600*%
%ADD230R,0.754400X0.007600*%
%ADD231R,1.927900X0.007700*%
%ADD232R,0.746700X0.007700*%
%ADD233R,1.912600X0.007600*%
%ADD234R,0.731500X0.007600*%
%ADD235R,1.905000X0.007600*%
%ADD236R,1.882200X0.007600*%
%ADD237R,1.874600X0.007600*%
%ADD238R,1.866900X0.007700*%
%ADD239R,0.708700X0.007700*%
%ADD240R,1.851600X0.007600*%
%ADD241R,0.701100X0.007600*%
%ADD242R,1.844000X0.007600*%
%ADD243R,1.836400X0.007600*%
%ADD244R,1.821200X0.007600*%
%ADD245R,0.685800X0.007600*%
%ADD246R,1.813500X0.007700*%
%ADD247R,1.805900X0.007600*%
%ADD248R,0.678200X0.007600*%
%ADD249R,1.790700X0.007600*%
%ADD250R,0.670600X0.007600*%
%ADD251R,1.775500X0.007600*%
%ADD252R,1.767900X0.007700*%
%ADD253R,0.663000X0.007700*%
%ADD254R,1.760200X0.007600*%
%ADD255R,1.752600X0.007600*%
%ADD256R,0.937300X0.007600*%
%ADD257R,0.792500X0.007600*%
%ADD258R,0.899100X0.007600*%
%ADD259R,0.883900X0.007700*%
%ADD260R,0.716300X0.007700*%
%ADD261R,0.647700X0.007700*%
%ADD262R,0.640100X0.007600*%
%ADD263R,0.632500X0.007600*%
%ADD264R,0.655400X0.007600*%
%ADD265R,0.632400X0.007600*%
%ADD266R,0.845800X0.007700*%
%ADD267R,0.617200X0.007700*%
%ADD268R,0.624800X0.007700*%
%ADD269R,0.602000X0.007600*%
%ADD270R,0.838200X0.007600*%
%ADD271R,0.586700X0.007600*%
%ADD272R,0.548700X0.007600*%
%ADD273R,0.830500X0.007700*%
%ADD274R,0.541000X0.007700*%
%ADD275R,0.594300X0.007700*%
%ADD276R,0.525800X0.007600*%
%ADD277R,0.586800X0.007600*%
%ADD278R,0.815300X0.007600*%
%ADD279R,0.579200X0.007600*%
%ADD280R,0.815400X0.007600*%
%ADD281R,0.815400X0.007700*%
%ADD282R,0.571500X0.007700*%
%ADD283R,0.807800X0.007600*%
%ADD284R,0.563900X0.007600*%
%ADD285R,0.457200X0.007600*%
%ADD286R,0.442000X0.007600*%
%ADD287R,0.556300X0.007600*%
%ADD288R,0.807700X0.007700*%
%ADD289R,0.411500X0.007600*%
%ADD290R,0.533400X0.007600*%
%ADD291R,0.076200X0.007600*%
%ADD292R,0.403900X0.007600*%
%ADD293R,0.525700X0.007600*%
%ADD294R,0.388700X0.007600*%
%ADD295R,0.297200X0.007600*%
%ADD296R,0.373400X0.007700*%
%ADD297R,0.503000X0.007700*%
%ADD298R,0.426800X0.007700*%
%ADD299R,0.358100X0.007600*%
%ADD300R,0.502900X0.007600*%
%ADD301R,0.472400X0.007600*%
%ADD302R,0.487700X0.007600*%
%ADD303R,0.335300X0.007600*%
%ADD304R,0.792500X0.007700*%
%ADD305R,0.327600X0.007700*%
%ADD306R,0.472400X0.007700*%
%ADD307R,0.640000X0.007700*%
%ADD308R,0.784800X0.007600*%
%ADD309R,0.320000X0.007600*%
%ADD310R,0.792400X0.007600*%
%ADD311R,1.173400X0.007600*%
%ADD312R,1.196400X0.007600*%
%ADD313R,0.784900X0.007600*%
%ADD314R,0.784900X0.007700*%
%ADD315R,0.297200X0.007700*%
%ADD316R,1.249700X0.007600*%
%ADD317R,0.281900X0.007600*%
%ADD318R,1.295400X0.007600*%
%ADD319R,0.266700X0.007600*%
%ADD320R,0.777300X0.007700*%
%ADD321R,0.266700X0.007700*%
%ADD322R,1.333500X0.007700*%
%ADD323R,0.777300X0.007600*%
%ADD324R,1.348800X0.007600*%
%ADD325R,0.251500X0.007600*%
%ADD326R,0.243900X0.007700*%
%ADD327R,0.243900X0.007600*%
%ADD328R,1.440100X0.007600*%
%ADD329R,0.236200X0.007600*%
%ADD330R,0.762000X0.007700*%
%ADD331R,0.236200X0.007700*%
%ADD332R,1.508700X0.007700*%
%ADD333R,1.531600X0.007600*%
%ADD334R,1.546900X0.007600*%
%ADD335R,1.569700X0.007600*%
%ADD336R,1.585000X0.007600*%
%ADD337R,0.746800X0.007700*%
%ADD338R,1.607800X0.007700*%
%ADD339R,0.243800X0.007600*%
%ADD340R,1.630700X0.007600*%
%ADD341R,1.653500X0.007600*%
%ADD342R,0.739200X0.007600*%
%ADD343R,1.684000X0.007600*%
%ADD344R,2.019300X0.007600*%
%ADD345R,0.731500X0.007700*%
%ADD346R,2.026900X0.007700*%
%ADD347R,2.049800X0.007600*%
%ADD348R,2.057400X0.007600*%
%ADD349R,0.708700X0.007600*%
%ADD350R,2.072600X0.007600*%
%ADD351R,0.701000X0.007600*%
%ADD352R,2.095500X0.007600*%
%ADD353R,0.693500X0.007700*%
%ADD354R,2.110800X0.007700*%
%ADD355R,2.141200X0.007600*%
%ADD356R,0.060900X0.007600*%
%ADD357R,2.872700X0.007600*%
%ADD358R,3.124200X0.007600*%
%ADD359R,3.177600X0.007600*%
%ADD360R,3.215600X0.007700*%
%ADD361R,3.253700X0.007600*%
%ADD362R,3.284300X0.007600*%
%ADD363R,3.314700X0.007600*%
%ADD364R,3.352800X0.007600*%
%ADD365R,3.375600X0.007700*%
%ADD366R,3.406200X0.007600*%
%ADD367R,3.429000X0.007600*%
%ADD368R,3.451800X0.007600*%
%ADD369R,3.482400X0.007600*%
%ADD370R,1.828800X0.007700*%
%ADD371R,1.539300X0.007700*%
%ADD372R,1.767900X0.007600*%
%ADD373R,1.767800X0.007600*%
%ADD374R,1.760200X0.007700*%
%ADD375R,1.760300X0.007600*%
%ADD376R,1.775400X0.007700*%
%ADD377R,1.379300X0.007700*%
%ADD378R,1.783000X0.007600*%
%ADD379R,1.813500X0.007600*%
%ADD380R,1.821100X0.007700*%
%ADD381R,0.503000X0.007600*%
%ADD382R,1.135400X0.007600*%
%ADD383R,1.127700X0.007700*%
%ADD384R,0.487700X0.007700*%
%ADD385R,1.120200X0.007600*%
%ADD386R,1.097300X0.007600*%
%ADD387R,0.510600X0.007600*%
%ADD388R,1.074400X0.007700*%
%ADD389R,0.525800X0.007700*%
%ADD390R,1.440200X0.007700*%
%ADD391R,1.059200X0.007600*%
%ADD392R,1.051600X0.007600*%
%ADD393R,1.051500X0.007600*%
%ADD394R,1.043900X0.007700*%
%ADD395R,0.602000X0.007700*%
%ADD396R,1.524000X0.007600*%
%ADD397R,1.539300X0.007600*%
%ADD398R,1.592600X0.007600*%
%ADD399R,1.021100X0.007700*%
%ADD400R,1.615400X0.007700*%
%ADD401R,1.013400X0.007600*%
%ADD402R,1.653600X0.007600*%
%ADD403R,1.013500X0.007600*%
%ADD404R,1.699300X0.007600*%
%ADD405R,2.743200X0.007600*%
%ADD406R,1.005900X0.007600*%
%ADD407R,2.415500X0.007600*%
%ADD408R,1.005800X0.007700*%
%ADD409R,0.281900X0.007700*%
%ADD410R,2.408000X0.007700*%
%ADD411R,2.407900X0.007600*%
%ADD412R,0.998200X0.007600*%
%ADD413R,0.282000X0.007600*%
%ADD414R,0.998300X0.007600*%
%ADD415R,2.400300X0.007600*%
%ADD416R,0.289500X0.007700*%
%ADD417R,2.400300X0.007700*%
%ADD418R,0.297100X0.007600*%
%ADD419R,0.312400X0.007600*%
%ADD420R,2.392700X0.007600*%
%ADD421R,0.990600X0.007700*%
%ADD422R,0.327700X0.007700*%
%ADD423R,2.392700X0.007700*%
%ADD424R,2.385100X0.007600*%
%ADD425R,0.381000X0.007700*%
%ADD426R,2.377400X0.007700*%
%ADD427R,2.377400X0.007600*%
%ADD428R,2.369800X0.007600*%
%ADD429R,0.419100X0.007600*%
%ADD430R,2.362200X0.007600*%
%ADD431R,0.426800X0.007600*%
%ADD432R,1.036300X0.007700*%
%ADD433R,0.442000X0.007700*%
%ADD434R,2.354600X0.007700*%
%ADD435R,2.354600X0.007600*%
%ADD436R,0.480100X0.007600*%
%ADD437R,2.347000X0.007600*%
%ADD438R,1.074500X0.007600*%
%ADD439R,2.339400X0.007600*%
%ADD440R,1.082100X0.007700*%
%ADD441R,0.548700X0.007700*%
%ADD442R,2.331800X0.007700*%
%ADD443R,2.331800X0.007600*%
%ADD444R,0.624900X0.007600*%
%ADD445R,2.324100X0.007600*%
%ADD446R,1.859300X0.007600*%
%ADD447R,2.308800X0.007600*%
%ADD448R,2.301200X0.007700*%
%ADD449R,2.301200X0.007600*%
%ADD450R,2.293600X0.007600*%
%ADD451R,2.278400X0.007600*%
%ADD452R,1.889800X0.007600*%
%ADD453R,2.270700X0.007600*%
%ADD454R,1.897400X0.007700*%
%ADD455R,2.255500X0.007700*%
%ADD456R,1.897400X0.007600*%
%ADD457R,2.247900X0.007600*%
%ADD458R,2.232600X0.007600*%
%ADD459R,1.912700X0.007600*%
%ADD460R,2.209800X0.007600*%
%ADD461R,1.920300X0.007600*%
%ADD462R,2.186900X0.007600*%
%ADD463R,1.920300X0.007700*%
%ADD464R,2.171700X0.007700*%
%ADD465R,1.935500X0.007600*%
%ADD466R,2.148800X0.007600*%
%ADD467R,2.126000X0.007600*%
%ADD468R,1.950700X0.007600*%
%ADD469R,1.958400X0.007700*%
%ADD470R,2.042200X0.007700*%
%ADD471R,1.973600X0.007600*%
%ADD472R,1.996500X0.007600*%
%ADD473R,1.981200X0.007600*%
%ADD474R,1.988800X0.007600*%
%ADD475R,1.996400X0.007700*%
%ADD476R,1.996400X0.007600*%
%ADD477R,2.004100X0.007600*%
%ADD478R,1.874500X0.007600*%
%ADD479R,1.425000X0.007600*%
%ADD480R,2.026900X0.007600*%
%ADD481R,0.434400X0.007700*%
%ADD482R,1.364000X0.007700*%
%ADD483R,2.034500X0.007600*%
%ADD484R,0.434400X0.007600*%
%ADD485R,2.049700X0.007600*%
%ADD486R,2.065000X0.007700*%
%ADD487R,0.464800X0.007700*%
%ADD488R,1.196300X0.007700*%
%ADD489R,2.080300X0.007600*%
%ADD490R,1.158300X0.007600*%
%ADD491R,2.087900X0.007600*%
%ADD492R,0.472500X0.007600*%
%ADD493R,2.103100X0.007600*%
%ADD494R,2.118400X0.007600*%
%ADD495R,2.133600X0.007600*%
%ADD496R,2.148800X0.007700*%
%ADD497R,2.164000X0.007600*%
%ADD498R,2.171700X0.007600*%
%ADD499R,2.187000X0.007600*%
%ADD500R,0.556200X0.007600*%
%ADD501R,2.202200X0.007700*%
%ADD502R,0.556200X0.007700*%
%ADD503R,0.640100X0.007700*%
%ADD504R,0.579100X0.007600*%
%ADD505R,0.480000X0.007600*%
%ADD506R,1.752600X0.007700*%
%ADD507R,0.487600X0.007700*%
%ADD508R,0.594400X0.007700*%
%ADD509R,0.358100X0.007700*%
%ADD510R,0.099000X0.007600*%
%ADD511R,1.280200X0.007600*%
%ADD512R,1.745000X0.007600*%
%ADD513R,1.744900X0.007600*%
%ADD514R,1.737300X0.007700*%
%ADD515R,1.737400X0.007600*%
%ADD516R,1.729800X0.007600*%
%ADD517R,1.722200X0.007600*%
%ADD518R,1.722100X0.007600*%
%ADD519R,1.714500X0.007700*%
%ADD520R,1.356400X0.007700*%
%ADD521R,1.706900X0.007600*%
%ADD522R,1.356400X0.007600*%
%ADD523R,1.691700X0.007600*%
%ADD524R,1.668800X0.007700*%
%ADD525R,1.645900X0.007600*%
%ADD526R,1.623100X0.007600*%
%ADD527R,1.577400X0.007600*%
%ADD528R,1.554400X0.007600*%
%ADD529R,1.539200X0.007600*%
%ADD530R,1.524000X0.007700*%
%ADD531R,1.501100X0.007600*%
%ADD532R,1.455400X0.007600*%
%ADD533R,1.348800X0.007700*%
%ADD534R,1.318300X0.007600*%
%ADD535R,1.310600X0.007700*%
%ADD536R,1.287800X0.007700*%
%ADD537R,1.234500X0.007600*%
%ADD538R,1.226900X0.007600*%
%ADD539R,1.173500X0.007700*%
%ADD540R,1.173500X0.007600*%
%ADD541R,1.165900X0.007600*%
%ADD542R,1.143000X0.007700*%
%ADD543R,1.127800X0.007600*%
%ADD544R,1.097200X0.007600*%
%ADD545R,1.028700X0.007700*%
%ADD546R,0.982900X0.007600*%
%ADD547R,0.952500X0.007700*%
%ADD548R,0.929600X0.007600*%
%ADD549R,0.906800X0.007700*%
%ADD550R,0.906800X0.007600*%
%ADD551R,0.899200X0.007600*%
%ADD552R,0.884000X0.007600*%
%ADD553R,0.876300X0.007700*%
%ADD554R,0.830600X0.007700*%
%ADD555R,0.754400X0.007700*%
%ADD556R,0.746800X0.007600*%
%ADD557R,0.708600X0.007700*%
%ADD558R,0.678200X0.007700*%
%ADD559R,0.663000X0.007600*%
%ADD560R,0.632500X0.007700*%
%ADD561R,0.556300X0.007700*%
%ADD562R,0.518200X0.007700*%
%ADD563R,0.434300X0.007700*%
%ADD564R,0.396300X0.007700*%
%ADD565R,0.373300X0.007600*%
%ADD566R,0.365700X0.007600*%
%ADD567R,0.327700X0.007600*%
%ADD568R,0.304800X0.007700*%
%ADD569R,0.274300X0.007600*%
%ADD570R,0.243800X0.007700*%
%ADD571R,0.205800X0.007600*%
%ADD572R,0.152400X0.007600*%
%ADD573R,0.121900X0.007700*%
%ADD574C,0.279400*%


D10*
X118110Y63500D02*
X425450Y63500D01*
D11*
X72782Y63506D02*
X62952Y63506D01*
X67867Y68421D02*
X67867Y58591D01*
X78388Y70879D02*
X88218Y70879D01*
X78388Y70879D02*
X78388Y63506D01*
X83303Y65964D01*
X85760Y65964D01*
X88218Y63506D01*
X88218Y58591D01*
X85760Y56134D01*
X80845Y56134D01*
X78388Y58591D01*
X93824Y61049D02*
X93824Y70879D01*
X93824Y61049D02*
X98739Y56134D01*
X103654Y61049D01*
X103654Y70879D01*
X21982Y398621D02*
X19524Y401079D01*
X14609Y401079D01*
X12152Y398621D01*
X12152Y388791D01*
X14609Y386334D01*
X19524Y386334D01*
X21982Y388791D01*
X21982Y393706D01*
X17067Y393706D01*
X27588Y386334D02*
X27588Y401079D01*
X37418Y386334D01*
X37418Y401079D01*
X43024Y401079D02*
X43024Y386334D01*
X50396Y386334D01*
X52854Y388791D01*
X52854Y398621D01*
X50396Y401079D01*
X43024Y401079D01*
X70324Y45479D02*
X72782Y43021D01*
X70324Y45479D02*
X65409Y45479D01*
X62952Y43021D01*
X62952Y33191D01*
X65409Y30734D01*
X70324Y30734D01*
X72782Y33191D01*
X72782Y38106D01*
X67867Y38106D01*
X78388Y30734D02*
X78388Y45479D01*
X88218Y30734D01*
X88218Y45479D01*
X93824Y45479D02*
X93824Y30734D01*
X101196Y30734D01*
X103654Y33191D01*
X103654Y43021D01*
X101196Y45479D01*
X93824Y45479D01*
X21982Y419106D02*
X12152Y419106D01*
X17067Y424021D02*
X17067Y414191D01*
X27588Y424021D02*
X30045Y426479D01*
X34960Y426479D01*
X37418Y424021D01*
X37418Y421564D01*
X34960Y419106D01*
X32503Y419106D01*
X34960Y419106D02*
X37418Y416649D01*
X37418Y414191D01*
X34960Y411734D01*
X30045Y411734D01*
X27588Y414191D01*
X43024Y416649D02*
X43024Y426479D01*
X43024Y416649D02*
X47939Y411734D01*
X52854Y416649D01*
X52854Y426479D01*
D10*
X67310Y419100D02*
X626110Y419100D01*
D12*
X19466Y439937D02*
X17771Y438242D01*
X17771Y434853D01*
X19466Y433158D01*
X21161Y433158D01*
X22856Y434853D01*
X22856Y438242D01*
X24550Y439937D01*
X26245Y439937D01*
X27940Y438242D01*
X27940Y434853D01*
X26245Y433158D01*
X27940Y443683D02*
X17771Y443683D01*
X27940Y443683D02*
X27940Y448767D01*
X26245Y450462D01*
X19466Y450462D01*
X17771Y448767D01*
X17771Y443683D01*
X21161Y454207D02*
X27940Y454207D01*
X21161Y454207D02*
X17771Y457597D01*
X21161Y460986D01*
X27940Y460986D01*
X22856Y460986D02*
X22856Y454207D01*
X43171Y438242D02*
X44866Y439937D01*
X43171Y438242D02*
X43171Y434853D01*
X44866Y433158D01*
X46561Y433158D01*
X48256Y434853D01*
X48256Y438242D01*
X49950Y439937D01*
X51645Y439937D01*
X53340Y438242D01*
X53340Y434853D01*
X51645Y433158D01*
X43171Y448767D02*
X44866Y450462D01*
X43171Y448767D02*
X43171Y445378D01*
X44866Y443683D01*
X51645Y443683D01*
X53340Y445378D01*
X53340Y448767D01*
X51645Y450462D01*
X53340Y454207D02*
X43171Y454207D01*
X53340Y454207D02*
X53340Y460986D01*
X68571Y436548D02*
X78740Y436548D01*
X68571Y439937D02*
X68571Y433158D01*
X68571Y443683D02*
X78740Y450462D01*
X78740Y443683D02*
X68571Y450462D01*
X68571Y454207D02*
X78740Y454207D01*
X78740Y459292D01*
X77045Y460986D01*
X70266Y460986D01*
X68571Y459292D01*
X68571Y454207D01*
X93971Y433158D02*
X104140Y433158D01*
X93971Y433158D02*
X93971Y438242D01*
X95666Y439937D01*
X99056Y439937D01*
X100750Y438242D01*
X100750Y433158D01*
X100750Y436548D02*
X104140Y439937D01*
X104140Y450462D02*
X93971Y443683D01*
X93971Y450462D02*
X104140Y443683D01*
X104140Y454207D02*
X93971Y454207D01*
X104140Y454207D02*
X104140Y459292D01*
X102445Y460986D01*
X95666Y460986D01*
X93971Y459292D01*
X93971Y454207D01*
X119371Y441385D02*
X129540Y441385D01*
X129540Y444775D02*
X119371Y444775D01*
X122761Y444775D02*
X122761Y439690D01*
X122761Y444775D02*
X122761Y446470D01*
X126150Y446470D02*
X126150Y439690D01*
X129540Y455299D02*
X119371Y455299D01*
X124456Y450215D01*
X124456Y456994D01*
X144771Y434853D02*
X154940Y434853D01*
X154940Y438242D02*
X144771Y438242D01*
X148161Y438242D02*
X148161Y433158D01*
X148161Y438242D02*
X148161Y439937D01*
X151550Y439937D02*
X151550Y433158D01*
X148161Y443683D02*
X144771Y447072D01*
X154940Y447072D01*
X154940Y443683D02*
X154940Y450462D01*
X144771Y454207D02*
X144771Y460986D01*
X146466Y460986D01*
X153245Y454207D01*
X154940Y454207D01*
X170171Y434853D02*
X180340Y434853D01*
X180340Y438242D02*
X170171Y438242D01*
X173561Y438242D02*
X173561Y433158D01*
X173561Y438242D02*
X173561Y439937D01*
X176950Y439937D02*
X176950Y433158D01*
X173561Y443683D02*
X170171Y447072D01*
X180340Y447072D01*
X180340Y443683D02*
X180340Y450462D01*
X171866Y454207D02*
X170171Y455902D01*
X170171Y459292D01*
X171866Y460986D01*
X173561Y460986D01*
X175256Y459292D01*
X176950Y460986D01*
X178645Y460986D01*
X180340Y459292D01*
X180340Y455902D01*
X178645Y454207D01*
X176950Y454207D01*
X175256Y455902D01*
X173561Y454207D01*
X171866Y454207D01*
X175256Y455902D02*
X175256Y459292D01*
X195571Y434853D02*
X205740Y434853D01*
X205740Y438242D02*
X195571Y438242D01*
X198961Y438242D02*
X198961Y433158D01*
X198961Y438242D02*
X198961Y439937D01*
X202350Y439937D02*
X202350Y433158D01*
X205740Y443683D02*
X205740Y450462D01*
X205740Y443683D02*
X198961Y450462D01*
X197266Y450462D01*
X195571Y448767D01*
X195571Y445378D01*
X197266Y443683D01*
X195571Y454207D02*
X195571Y460986D01*
X197266Y460986D01*
X204045Y454207D01*
X205740Y454207D01*
X220971Y434853D02*
X231140Y434853D01*
X231140Y438242D02*
X220971Y438242D01*
X224361Y438242D02*
X224361Y433158D01*
X224361Y438242D02*
X224361Y439937D01*
X227750Y439937D02*
X227750Y433158D01*
X231140Y443683D02*
X231140Y450462D01*
X231140Y443683D02*
X224361Y450462D01*
X222666Y450462D01*
X220971Y448767D01*
X220971Y445378D01*
X222666Y443683D01*
X231140Y454207D02*
X231140Y460986D01*
X231140Y454207D02*
X224361Y460986D01*
X222666Y460986D01*
X220971Y459292D01*
X220971Y455902D01*
X222666Y454207D01*
X246371Y434853D02*
X256540Y434853D01*
X256540Y438242D02*
X246371Y438242D01*
X249761Y438242D02*
X249761Y433158D01*
X249761Y438242D02*
X249761Y439937D01*
X253150Y439937D02*
X253150Y433158D01*
X256540Y443683D02*
X256540Y450462D01*
X256540Y443683D02*
X249761Y450462D01*
X248066Y450462D01*
X246371Y448767D01*
X246371Y445378D01*
X248066Y443683D01*
X248066Y454207D02*
X246371Y455902D01*
X246371Y459292D01*
X248066Y460986D01*
X249761Y460986D01*
X251456Y459292D01*
X251456Y457597D01*
X251456Y459292D02*
X253150Y460986D01*
X254845Y460986D01*
X256540Y459292D01*
X256540Y455902D01*
X254845Y454207D01*
X271771Y434853D02*
X281940Y434853D01*
X281940Y438242D02*
X271771Y438242D01*
X275161Y438242D02*
X275161Y433158D01*
X275161Y438242D02*
X275161Y439937D01*
X278550Y439937D02*
X278550Y433158D01*
X281940Y443683D02*
X281940Y450462D01*
X281940Y443683D02*
X275161Y450462D01*
X273466Y450462D01*
X271771Y448767D01*
X271771Y445378D01*
X273466Y443683D01*
X271771Y459292D02*
X281940Y459292D01*
X276856Y454207D02*
X271771Y459292D01*
X276856Y460986D02*
X276856Y454207D01*
X297171Y434853D02*
X307340Y434853D01*
X307340Y438242D02*
X297171Y438242D01*
X300561Y438242D02*
X300561Y433158D01*
X300561Y438242D02*
X300561Y439937D01*
X303950Y439937D02*
X303950Y433158D01*
X307340Y443683D02*
X307340Y450462D01*
X307340Y443683D02*
X300561Y450462D01*
X298866Y450462D01*
X297171Y448767D01*
X297171Y445378D01*
X298866Y443683D01*
X297171Y454207D02*
X297171Y460986D01*
X297171Y454207D02*
X302256Y454207D01*
X300561Y457597D01*
X300561Y459292D01*
X302256Y460986D01*
X305645Y460986D01*
X307340Y459292D01*
X307340Y455902D01*
X305645Y454207D01*
X323207Y431794D02*
X332105Y431794D01*
X326173Y434760D02*
X323207Y431794D01*
X326173Y434760D02*
X323207Y437726D01*
X332105Y437726D01*
X323207Y442632D02*
X323207Y445598D01*
X323207Y442632D02*
X324690Y441149D01*
X330622Y441149D01*
X332105Y442632D01*
X332105Y445598D01*
X330622Y447081D01*
X324690Y447081D01*
X323207Y445598D01*
X323207Y454953D02*
X324690Y456436D01*
X323207Y454953D02*
X323207Y451987D01*
X324690Y450504D01*
X326173Y450504D01*
X327656Y451987D01*
X327656Y454953D01*
X329139Y456436D01*
X330622Y456436D01*
X332105Y454953D01*
X332105Y451987D01*
X330622Y450504D01*
X332105Y459859D02*
X332105Y462825D01*
X332105Y461342D02*
X323207Y461342D01*
X323207Y459859D02*
X323207Y462825D01*
X348607Y430524D02*
X357505Y430524D01*
X351573Y433490D02*
X348607Y430524D01*
X351573Y433490D02*
X348607Y436456D01*
X357505Y436456D01*
X357505Y439879D02*
X357505Y442845D01*
X357505Y441362D02*
X348607Y441362D01*
X348607Y439879D02*
X348607Y442845D01*
X348607Y450565D02*
X350090Y452048D01*
X348607Y450565D02*
X348607Y447599D01*
X350090Y446116D01*
X351573Y446116D01*
X353056Y447599D01*
X353056Y450565D01*
X354539Y452048D01*
X356022Y452048D01*
X357505Y450565D01*
X357505Y447599D01*
X356022Y446116D01*
X348607Y456954D02*
X348607Y459920D01*
X348607Y456954D02*
X350090Y455471D01*
X356022Y455471D01*
X357505Y456954D01*
X357505Y459920D01*
X356022Y461403D01*
X350090Y461403D01*
X348607Y459920D01*
X373371Y436972D02*
X375066Y438667D01*
X373371Y436972D02*
X373371Y433583D01*
X375066Y431888D01*
X381845Y431888D01*
X383540Y433583D01*
X383540Y436972D01*
X381845Y438667D01*
X383540Y442413D02*
X373371Y442413D01*
X383540Y442413D02*
X383540Y449192D01*
X383540Y452937D02*
X373371Y452937D01*
X380150Y452937D02*
X373371Y459716D01*
X378456Y454632D02*
X383540Y459716D01*
X400466Y438667D02*
X398771Y436972D01*
X398771Y433583D01*
X400466Y431888D01*
X407245Y431888D01*
X408940Y433583D01*
X408940Y436972D01*
X407245Y438667D01*
X398771Y442413D02*
X398771Y449192D01*
X398771Y442413D02*
X408940Y442413D01*
X408940Y449192D01*
X403856Y445802D02*
X403856Y442413D01*
X407245Y452937D02*
X400466Y452937D01*
X398771Y454632D01*
X398771Y458022D01*
X400466Y459716D01*
X407245Y459716D01*
X408940Y458022D01*
X408940Y454632D01*
X407245Y452937D01*
X400466Y459716D01*
X424171Y436972D02*
X425866Y438667D01*
X424171Y436972D02*
X424171Y433583D01*
X425866Y431888D01*
X432645Y431888D01*
X434340Y433583D01*
X434340Y436972D01*
X432645Y438667D01*
X424171Y442413D02*
X424171Y449192D01*
X424171Y442413D02*
X434340Y442413D01*
X434340Y449192D01*
X429256Y445802D02*
X429256Y442413D01*
X427561Y452937D02*
X424171Y456327D01*
X434340Y456327D01*
X434340Y459716D02*
X434340Y452937D01*
X449571Y440115D02*
X459740Y440115D01*
X459740Y443505D02*
X449571Y443505D01*
X452961Y443505D02*
X452961Y438420D01*
X452961Y443505D02*
X452961Y445200D01*
X456350Y445200D02*
X456350Y438420D01*
X449571Y448945D02*
X449571Y455724D01*
X449571Y448945D02*
X454656Y448945D01*
X452961Y452335D01*
X452961Y454029D01*
X454656Y455724D01*
X458045Y455724D01*
X459740Y454029D01*
X459740Y450640D01*
X458045Y448945D01*
X474971Y440115D02*
X485140Y440115D01*
X485140Y443505D02*
X474971Y443505D01*
X478361Y443505D02*
X478361Y438420D01*
X478361Y443505D02*
X478361Y445200D01*
X481750Y445200D02*
X481750Y438420D01*
X476666Y452335D02*
X474971Y455724D01*
X476666Y452335D02*
X480056Y448945D01*
X483445Y448945D01*
X485140Y450640D01*
X485140Y454029D01*
X483445Y455724D01*
X481750Y455724D01*
X480056Y454029D01*
X480056Y448945D01*
X500371Y433583D02*
X510540Y433583D01*
X510540Y436972D02*
X500371Y436972D01*
X503761Y436972D02*
X503761Y431888D01*
X503761Y436972D02*
X503761Y438667D01*
X507150Y438667D02*
X507150Y431888D01*
X503761Y442413D02*
X500371Y445802D01*
X510540Y445802D01*
X510540Y442413D02*
X510540Y449192D01*
X510540Y452937D02*
X510540Y459716D01*
X510540Y452937D02*
X503761Y459716D01*
X502066Y459716D01*
X500371Y458022D01*
X500371Y454632D01*
X502066Y452937D01*
X525771Y433583D02*
X535940Y433583D01*
X535940Y436972D02*
X525771Y436972D01*
X529161Y436972D02*
X529161Y431888D01*
X529161Y436972D02*
X529161Y438667D01*
X532550Y438667D02*
X532550Y431888D01*
X529161Y442413D02*
X525771Y445802D01*
X535940Y445802D01*
X535940Y442413D02*
X535940Y449192D01*
X527466Y452937D02*
X525771Y454632D01*
X525771Y458022D01*
X527466Y459716D01*
X529161Y459716D01*
X530856Y458022D01*
X530856Y456327D01*
X530856Y458022D02*
X532550Y459716D01*
X534245Y459716D01*
X535940Y458022D01*
X535940Y454632D01*
X534245Y452937D01*
X551171Y433583D02*
X561340Y433583D01*
X561340Y436972D02*
X551171Y436972D01*
X554561Y436972D02*
X554561Y431888D01*
X554561Y436972D02*
X554561Y438667D01*
X557950Y438667D02*
X557950Y431888D01*
X554561Y442413D02*
X551171Y445802D01*
X561340Y445802D01*
X561340Y442413D02*
X561340Y449192D01*
X552866Y456327D02*
X551171Y459716D01*
X552866Y456327D02*
X556256Y452937D01*
X559645Y452937D01*
X561340Y454632D01*
X561340Y458022D01*
X559645Y459716D01*
X557950Y459716D01*
X556256Y458022D01*
X556256Y452937D01*
X576571Y433583D02*
X586740Y433583D01*
X586740Y436972D02*
X576571Y436972D01*
X579961Y436972D02*
X579961Y431888D01*
X579961Y436972D02*
X579961Y438667D01*
X583350Y438667D02*
X583350Y431888D01*
X579961Y442413D02*
X576571Y445802D01*
X586740Y445802D01*
X586740Y442413D02*
X586740Y449192D01*
X585045Y452937D02*
X586740Y454632D01*
X586740Y458022D01*
X585045Y459716D01*
X578266Y459716D01*
X576571Y458022D01*
X576571Y454632D01*
X578266Y452937D01*
X579961Y452937D01*
X581656Y454632D01*
X581656Y459716D01*
X601971Y433583D02*
X612140Y433583D01*
X612140Y436972D02*
X601971Y436972D01*
X605361Y436972D02*
X605361Y431888D01*
X605361Y436972D02*
X605361Y438667D01*
X608750Y438667D02*
X608750Y431888D01*
X612140Y442413D02*
X612140Y449192D01*
X612140Y442413D02*
X605361Y449192D01*
X603666Y449192D01*
X601971Y447497D01*
X601971Y444108D01*
X603666Y442413D01*
X603666Y452937D02*
X610445Y452937D01*
X603666Y452937D02*
X601971Y454632D01*
X601971Y458022D01*
X603666Y459716D01*
X610445Y459716D01*
X612140Y458022D01*
X612140Y454632D01*
X610445Y452937D01*
X603666Y459716D01*
X627371Y433583D02*
X637540Y433583D01*
X637540Y436972D02*
X627371Y436972D01*
X630761Y436972D02*
X630761Y431888D01*
X630761Y436972D02*
X630761Y438667D01*
X634150Y438667D02*
X634150Y431888D01*
X637540Y442413D02*
X637540Y449192D01*
X637540Y442413D02*
X630761Y449192D01*
X629066Y449192D01*
X627371Y447497D01*
X627371Y444108D01*
X629066Y442413D01*
X630761Y452937D02*
X627371Y456327D01*
X637540Y456327D01*
X637540Y459716D02*
X637540Y452937D01*
X451485Y5715D02*
X442587Y5715D01*
X448519Y8681D02*
X451485Y5715D01*
X448519Y8681D02*
X451485Y11647D01*
X442587Y11647D01*
X442587Y15070D02*
X451485Y15070D01*
X442587Y15070D02*
X442587Y19519D01*
X444070Y21002D01*
X447036Y21002D01*
X448519Y19519D01*
X448519Y15070D01*
D10*
X628650Y393700D02*
X67310Y393700D01*
X118110Y38100D02*
X422910Y38100D01*
D13*
X103670Y160204D02*
X92823Y160204D01*
X103670Y160204D02*
X109093Y165627D01*
X103670Y171051D01*
X92823Y171051D01*
X92823Y184711D02*
X95535Y187422D01*
X92823Y184711D02*
X92823Y179287D01*
X95535Y176576D01*
X106381Y176576D01*
X109093Y179287D01*
X109093Y184711D01*
X106381Y187422D01*
X92823Y201082D02*
X95535Y203794D01*
X92823Y201082D02*
X92823Y195659D01*
X95535Y192947D01*
X106381Y192947D01*
X109093Y195659D01*
X109093Y201082D01*
X106381Y203794D01*
X92823Y282940D02*
X95535Y285652D01*
X92823Y282940D02*
X92823Y277517D01*
X95535Y274805D01*
X98246Y274805D01*
X100958Y277517D01*
X100958Y282940D01*
X103670Y285652D01*
X106381Y285652D01*
X109093Y282940D01*
X109093Y277517D01*
X106381Y274805D01*
X109093Y291177D02*
X92823Y291177D01*
X109093Y291177D02*
X109093Y299312D01*
X106381Y302023D01*
X95535Y302023D01*
X92823Y299312D01*
X92823Y291177D01*
X98246Y307548D02*
X109093Y307548D01*
X98246Y307548D02*
X92823Y312971D01*
X98246Y318395D01*
X109093Y318395D01*
X100958Y318395D02*
X100958Y307548D01*
X122205Y171051D02*
X119493Y168339D01*
X119493Y162916D01*
X122205Y160204D01*
X133051Y160204D01*
X135763Y162916D01*
X135763Y168339D01*
X133051Y171051D01*
X127628Y171051D01*
X127628Y165627D01*
X135763Y176576D02*
X119493Y176576D01*
X135763Y187422D01*
X119493Y187422D01*
X119493Y192947D02*
X135763Y192947D01*
X135763Y201082D01*
X133051Y203794D01*
X122205Y203794D01*
X119493Y201082D01*
X119493Y192947D01*
X119493Y282940D02*
X122205Y285652D01*
X119493Y282940D02*
X119493Y277517D01*
X122205Y274805D01*
X124916Y274805D01*
X127628Y277517D01*
X127628Y282940D01*
X130340Y285652D01*
X133051Y285652D01*
X135763Y282940D01*
X135763Y277517D01*
X133051Y274805D01*
X119493Y299312D02*
X122205Y302023D01*
X119493Y299312D02*
X119493Y293888D01*
X122205Y291177D01*
X133051Y291177D01*
X135763Y293888D01*
X135763Y299312D01*
X133051Y302023D01*
X135763Y307548D02*
X119493Y307548D01*
X135763Y307548D02*
X135763Y318395D01*
X261804Y353530D02*
X261804Y364377D01*
X261804Y353530D02*
X267227Y348107D01*
X272651Y353530D01*
X272651Y364377D01*
X286311Y364377D02*
X289022Y361665D01*
X286311Y364377D02*
X280887Y364377D01*
X278176Y361665D01*
X278176Y350819D01*
X280887Y348107D01*
X286311Y348107D01*
X289022Y350819D01*
X302682Y364377D02*
X305394Y361665D01*
X302682Y364377D02*
X297259Y364377D01*
X294547Y361665D01*
X294547Y350819D01*
X297259Y348107D01*
X302682Y348107D01*
X305394Y350819D01*
X384540Y364377D02*
X387252Y361665D01*
X384540Y364377D02*
X379117Y364377D01*
X376405Y361665D01*
X376405Y358954D01*
X379117Y356242D01*
X384540Y356242D01*
X387252Y353530D01*
X387252Y350819D01*
X384540Y348107D01*
X379117Y348107D01*
X376405Y350819D01*
X392777Y348107D02*
X392777Y364377D01*
X392777Y348107D02*
X400911Y348107D01*
X403623Y350819D01*
X403623Y361665D01*
X400911Y364377D01*
X392777Y364377D01*
X409148Y358954D02*
X409148Y348107D01*
X409148Y358954D02*
X414571Y364377D01*
X419995Y358954D01*
X419995Y348107D01*
X419995Y356242D02*
X409148Y356242D01*
X272651Y334995D02*
X269939Y337707D01*
X264516Y337707D01*
X261804Y334995D01*
X261804Y324149D01*
X264516Y321437D01*
X269939Y321437D01*
X272651Y324149D01*
X272651Y329572D01*
X267227Y329572D01*
X278176Y321437D02*
X278176Y337707D01*
X289022Y321437D01*
X289022Y337707D01*
X294547Y337707D02*
X294547Y321437D01*
X302682Y321437D01*
X305394Y324149D01*
X305394Y334995D01*
X302682Y337707D01*
X294547Y337707D01*
X384540Y337707D02*
X387252Y334995D01*
X384540Y337707D02*
X379117Y337707D01*
X376405Y334995D01*
X376405Y332284D01*
X379117Y329572D01*
X384540Y329572D01*
X387252Y326860D01*
X387252Y324149D01*
X384540Y321437D01*
X379117Y321437D01*
X376405Y324149D01*
X400911Y337707D02*
X403623Y334995D01*
X400911Y337707D02*
X395488Y337707D01*
X392777Y334995D01*
X392777Y324149D01*
X395488Y321437D01*
X400911Y321437D01*
X403623Y324149D01*
X409148Y321437D02*
X409148Y337707D01*
X409148Y321437D02*
X419995Y321437D01*
X594830Y322396D02*
X605677Y322396D01*
X594830Y322396D02*
X589407Y316973D01*
X594830Y311549D01*
X605677Y311549D01*
X605677Y297889D02*
X602965Y295178D01*
X605677Y297889D02*
X605677Y303313D01*
X602965Y306024D01*
X592119Y306024D01*
X589407Y303313D01*
X589407Y297889D01*
X592119Y295178D01*
X605677Y281518D02*
X602965Y278806D01*
X605677Y281518D02*
X605677Y286941D01*
X602965Y289653D01*
X592119Y289653D01*
X589407Y286941D01*
X589407Y281518D01*
X592119Y278806D01*
X605677Y199660D02*
X602965Y196948D01*
X605677Y199660D02*
X605677Y205083D01*
X602965Y207795D01*
X600254Y207795D01*
X597542Y205083D01*
X597542Y199660D01*
X594830Y196948D01*
X592119Y196948D01*
X589407Y199660D01*
X589407Y205083D01*
X592119Y207795D01*
X589407Y191423D02*
X605677Y191423D01*
X589407Y191423D02*
X589407Y183289D01*
X592119Y180577D01*
X602965Y180577D01*
X605677Y183289D01*
X605677Y191423D01*
X600254Y175052D02*
X589407Y175052D01*
X600254Y175052D02*
X605677Y169629D01*
X600254Y164205D01*
X589407Y164205D01*
X597542Y164205D02*
X597542Y175052D01*
X576295Y311549D02*
X579007Y314261D01*
X579007Y319684D01*
X576295Y322396D01*
X565449Y322396D01*
X562737Y319684D01*
X562737Y314261D01*
X565449Y311549D01*
X570872Y311549D01*
X570872Y316973D01*
X562737Y306024D02*
X579007Y306024D01*
X562737Y295178D01*
X579007Y295178D01*
X579007Y289653D02*
X562737Y289653D01*
X562737Y281518D01*
X565449Y278806D01*
X576295Y278806D01*
X579007Y281518D01*
X579007Y289653D01*
X579007Y199660D02*
X576295Y196948D01*
X579007Y199660D02*
X579007Y205083D01*
X576295Y207795D01*
X573584Y207795D01*
X570872Y205083D01*
X570872Y199660D01*
X568160Y196948D01*
X565449Y196948D01*
X562737Y199660D01*
X562737Y205083D01*
X565449Y207795D01*
X579007Y183289D02*
X576295Y180577D01*
X579007Y183289D02*
X579007Y188712D01*
X576295Y191423D01*
X565449Y191423D01*
X562737Y188712D01*
X562737Y183289D01*
X565449Y180577D01*
X562737Y175052D02*
X579007Y175052D01*
X562737Y175052D02*
X562737Y164205D01*
X423996Y116370D02*
X423996Y105523D01*
X423996Y116370D02*
X418573Y121793D01*
X413149Y116370D01*
X413149Y105523D01*
X399489Y105523D02*
X396778Y108235D01*
X399489Y105523D02*
X404913Y105523D01*
X407624Y108235D01*
X407624Y119081D01*
X404913Y121793D01*
X399489Y121793D01*
X396778Y119081D01*
X383118Y105523D02*
X380406Y108235D01*
X383118Y105523D02*
X388541Y105523D01*
X391253Y108235D01*
X391253Y119081D01*
X388541Y121793D01*
X383118Y121793D01*
X380406Y119081D01*
X301260Y105523D02*
X298548Y108235D01*
X301260Y105523D02*
X306683Y105523D01*
X309395Y108235D01*
X309395Y110946D01*
X306683Y113658D01*
X301260Y113658D01*
X298548Y116370D01*
X298548Y119081D01*
X301260Y121793D01*
X306683Y121793D01*
X309395Y119081D01*
X293023Y121793D02*
X293023Y105523D01*
X293023Y121793D02*
X284889Y121793D01*
X282177Y119081D01*
X282177Y108235D01*
X284889Y105523D01*
X293023Y105523D01*
X276652Y110946D02*
X276652Y121793D01*
X276652Y110946D02*
X271229Y105523D01*
X265805Y110946D01*
X265805Y121793D01*
X265805Y113658D02*
X276652Y113658D01*
X413149Y134905D02*
X415861Y132193D01*
X421284Y132193D01*
X423996Y134905D01*
X423996Y145751D01*
X421284Y148463D01*
X415861Y148463D01*
X413149Y145751D01*
X413149Y140328D01*
X418573Y140328D01*
X407624Y148463D02*
X407624Y132193D01*
X396778Y148463D01*
X396778Y132193D01*
X391253Y132193D02*
X391253Y148463D01*
X383118Y148463D01*
X380406Y145751D01*
X380406Y134905D01*
X383118Y132193D01*
X391253Y132193D01*
X301260Y132193D02*
X298548Y134905D01*
X301260Y132193D02*
X306683Y132193D01*
X309395Y134905D01*
X309395Y137616D01*
X306683Y140328D01*
X301260Y140328D01*
X298548Y143040D01*
X298548Y145751D01*
X301260Y148463D01*
X306683Y148463D01*
X309395Y145751D01*
X284889Y132193D02*
X282177Y134905D01*
X284889Y132193D02*
X290312Y132193D01*
X293023Y134905D01*
X293023Y145751D01*
X290312Y148463D01*
X284889Y148463D01*
X282177Y145751D01*
X276652Y148463D02*
X276652Y132193D01*
X276652Y148463D02*
X265805Y148463D01*
X14566Y496998D02*
X13465Y498100D01*
X11262Y498100D01*
X10160Y496998D01*
X10160Y492592D01*
X11262Y491490D01*
X13465Y491490D01*
X14566Y492592D01*
X18746Y498100D02*
X20949Y498100D01*
X18746Y498100D02*
X17644Y496998D01*
X17644Y492592D01*
X18746Y491490D01*
X20949Y491490D01*
X22051Y492592D01*
X22051Y496998D01*
X20949Y498100D01*
X25128Y498100D02*
X25128Y491490D01*
X29535Y491490D02*
X25128Y498100D01*
X29535Y498100D02*
X29535Y491490D01*
X32612Y491490D02*
X32612Y498100D01*
X37019Y491490D01*
X37019Y498100D01*
X40097Y495896D02*
X42300Y498100D01*
X42300Y491490D01*
X40097Y491490D02*
X44503Y491490D01*
D11*
X490270Y72260D02*
X528270Y72260D01*
X528270Y24260D02*
X490270Y24260D01*
X497840Y67564D02*
X497842Y67664D01*
X497848Y67765D01*
X497858Y67864D01*
X497872Y67964D01*
X497889Y68063D01*
X497911Y68161D01*
X497937Y68258D01*
X497966Y68354D01*
X497999Y68448D01*
X498036Y68542D01*
X498076Y68634D01*
X498120Y68724D01*
X498168Y68812D01*
X498219Y68899D01*
X498273Y68983D01*
X498331Y69065D01*
X498392Y69145D01*
X498456Y69222D01*
X498523Y69297D01*
X498593Y69369D01*
X498666Y69438D01*
X498741Y69504D01*
X498819Y69568D01*
X498899Y69628D01*
X498982Y69685D01*
X499067Y69738D01*
X499154Y69788D01*
X499243Y69835D01*
X499333Y69878D01*
X499425Y69918D01*
X499519Y69954D01*
X499614Y69986D01*
X499710Y70014D01*
X499808Y70039D01*
X499906Y70059D01*
X500005Y70076D01*
X500105Y70089D01*
X500204Y70098D01*
X500305Y70103D01*
X500405Y70104D01*
X500505Y70101D01*
X500606Y70094D01*
X500705Y70083D01*
X500805Y70068D01*
X500903Y70050D01*
X501001Y70027D01*
X501098Y70000D01*
X501193Y69970D01*
X501288Y69936D01*
X501381Y69898D01*
X501472Y69857D01*
X501562Y69812D01*
X501650Y69764D01*
X501736Y69712D01*
X501820Y69657D01*
X501901Y69598D01*
X501980Y69536D01*
X502057Y69472D01*
X502131Y69404D01*
X502202Y69333D01*
X502271Y69260D01*
X502336Y69184D01*
X502399Y69105D01*
X502458Y69024D01*
X502514Y68941D01*
X502567Y68856D01*
X502616Y68768D01*
X502662Y68679D01*
X502704Y68588D01*
X502743Y68495D01*
X502778Y68401D01*
X502809Y68306D01*
X502837Y68209D01*
X502860Y68112D01*
X502880Y68013D01*
X502896Y67914D01*
X502908Y67815D01*
X502916Y67714D01*
X502920Y67614D01*
X502920Y67514D01*
X502916Y67414D01*
X502908Y67313D01*
X502896Y67214D01*
X502880Y67115D01*
X502860Y67016D01*
X502837Y66919D01*
X502809Y66822D01*
X502778Y66727D01*
X502743Y66633D01*
X502704Y66540D01*
X502662Y66449D01*
X502616Y66360D01*
X502567Y66272D01*
X502514Y66187D01*
X502458Y66104D01*
X502399Y66023D01*
X502336Y65944D01*
X502271Y65868D01*
X502202Y65795D01*
X502131Y65724D01*
X502057Y65656D01*
X501980Y65592D01*
X501901Y65530D01*
X501820Y65471D01*
X501736Y65416D01*
X501650Y65364D01*
X501562Y65316D01*
X501472Y65271D01*
X501381Y65230D01*
X501288Y65192D01*
X501193Y65158D01*
X501098Y65128D01*
X501001Y65101D01*
X500903Y65078D01*
X500805Y65060D01*
X500705Y65045D01*
X500606Y65034D01*
X500505Y65027D01*
X500405Y65024D01*
X500305Y65025D01*
X500204Y65030D01*
X500105Y65039D01*
X500005Y65052D01*
X499906Y65069D01*
X499808Y65089D01*
X499710Y65114D01*
X499614Y65142D01*
X499519Y65174D01*
X499425Y65210D01*
X499333Y65250D01*
X499243Y65293D01*
X499154Y65340D01*
X499067Y65390D01*
X498982Y65443D01*
X498899Y65500D01*
X498819Y65560D01*
X498741Y65624D01*
X498666Y65690D01*
X498593Y65759D01*
X498523Y65831D01*
X498456Y65906D01*
X498392Y65983D01*
X498331Y66063D01*
X498273Y66145D01*
X498219Y66229D01*
X498168Y66316D01*
X498120Y66404D01*
X498076Y66494D01*
X498036Y66586D01*
X497999Y66680D01*
X497966Y66774D01*
X497937Y66870D01*
X497911Y66967D01*
X497889Y67065D01*
X497872Y67164D01*
X497858Y67264D01*
X497848Y67363D01*
X497842Y67464D01*
X497840Y67564D01*
D13*
X513836Y53104D02*
X519344Y53104D01*
X520446Y54205D01*
X520446Y56409D01*
X519344Y57510D01*
X513836Y57510D01*
X516040Y60588D02*
X513836Y62791D01*
X520446Y62791D01*
X520446Y60588D02*
X520446Y64994D01*
X510304Y13214D02*
X510304Y6604D01*
X510304Y13214D02*
X513609Y13214D01*
X514710Y12112D01*
X514710Y9909D01*
X513609Y8807D01*
X510304Y8807D01*
X512507Y8807D02*
X514710Y6604D01*
X517788Y11010D02*
X519991Y13214D01*
X519991Y6604D01*
X517788Y6604D02*
X522194Y6604D01*
D14*
X544830Y7620D02*
X544830Y17780D01*
D13*
X553968Y74422D02*
X560578Y74422D01*
X553968Y74422D02*
X553968Y77727D01*
X555070Y78828D01*
X557273Y78828D01*
X558375Y77727D01*
X558375Y74422D01*
X558375Y76625D02*
X560578Y78828D01*
X560578Y81906D02*
X560578Y86313D01*
X556172Y86313D02*
X560578Y81906D01*
X556172Y86313D02*
X555070Y86313D01*
X553968Y85211D01*
X553968Y83008D01*
X555070Y81906D01*
D14*
X554990Y53340D02*
X565150Y53340D01*
D13*
X527812Y18802D02*
X527812Y12192D01*
X527812Y18802D02*
X531117Y18802D01*
X532218Y17700D01*
X532218Y15497D01*
X531117Y14395D01*
X527812Y14395D01*
X530015Y14395D02*
X532218Y12192D01*
X535296Y17700D02*
X536398Y18802D01*
X538601Y18802D01*
X539703Y17700D01*
X539703Y16598D01*
X538601Y15497D01*
X537499Y15497D01*
X538601Y15497D02*
X539703Y14395D01*
X539703Y13294D01*
X538601Y12192D01*
X536398Y12192D01*
X535296Y13294D01*
D14*
X506730Y17780D02*
X506730Y7620D01*
D11*
X485140Y2540D02*
X457200Y2540D01*
X485140Y22860D02*
X485240Y22858D01*
X485339Y22852D01*
X485439Y22842D01*
X485537Y22829D01*
X485636Y22811D01*
X485733Y22790D01*
X485829Y22765D01*
X485925Y22736D01*
X486019Y22703D01*
X486112Y22667D01*
X486203Y22627D01*
X486293Y22583D01*
X486381Y22536D01*
X486467Y22486D01*
X486551Y22432D01*
X486633Y22375D01*
X486712Y22315D01*
X486790Y22251D01*
X486864Y22185D01*
X486936Y22116D01*
X487005Y22044D01*
X487071Y21970D01*
X487135Y21892D01*
X487195Y21813D01*
X487252Y21731D01*
X487306Y21647D01*
X487356Y21561D01*
X487403Y21473D01*
X487447Y21383D01*
X487487Y21292D01*
X487523Y21199D01*
X487556Y21105D01*
X487585Y21009D01*
X487610Y20913D01*
X487631Y20816D01*
X487649Y20717D01*
X487662Y20619D01*
X487672Y20519D01*
X487678Y20420D01*
X487680Y20320D01*
X457200Y22860D02*
X457100Y22858D01*
X457001Y22852D01*
X456901Y22842D01*
X456803Y22829D01*
X456704Y22811D01*
X456607Y22790D01*
X456511Y22765D01*
X456415Y22736D01*
X456321Y22703D01*
X456228Y22667D01*
X456137Y22627D01*
X456047Y22583D01*
X455959Y22536D01*
X455873Y22486D01*
X455789Y22432D01*
X455707Y22375D01*
X455628Y22315D01*
X455550Y22251D01*
X455476Y22185D01*
X455404Y22116D01*
X455335Y22044D01*
X455269Y21970D01*
X455205Y21892D01*
X455145Y21813D01*
X455088Y21731D01*
X455034Y21647D01*
X454984Y21561D01*
X454937Y21473D01*
X454893Y21383D01*
X454853Y21292D01*
X454817Y21199D01*
X454784Y21105D01*
X454755Y21009D01*
X454730Y20913D01*
X454709Y20816D01*
X454691Y20717D01*
X454678Y20619D01*
X454668Y20519D01*
X454662Y20420D01*
X454660Y20320D01*
X454660Y5080D02*
X454662Y4980D01*
X454668Y4881D01*
X454678Y4781D01*
X454691Y4683D01*
X454709Y4584D01*
X454730Y4487D01*
X454755Y4391D01*
X454784Y4295D01*
X454817Y4201D01*
X454853Y4108D01*
X454893Y4017D01*
X454937Y3927D01*
X454984Y3839D01*
X455034Y3753D01*
X455088Y3669D01*
X455145Y3587D01*
X455205Y3508D01*
X455269Y3430D01*
X455335Y3356D01*
X455404Y3284D01*
X455476Y3215D01*
X455550Y3149D01*
X455628Y3085D01*
X455707Y3025D01*
X455789Y2968D01*
X455873Y2914D01*
X455959Y2864D01*
X456047Y2817D01*
X456137Y2773D01*
X456228Y2733D01*
X456321Y2697D01*
X456415Y2664D01*
X456511Y2635D01*
X456607Y2610D01*
X456704Y2589D01*
X456803Y2571D01*
X456901Y2558D01*
X457001Y2548D01*
X457100Y2542D01*
X457200Y2540D01*
X485140Y2540D02*
X485240Y2542D01*
X485339Y2548D01*
X485439Y2558D01*
X485537Y2571D01*
X485636Y2589D01*
X485733Y2610D01*
X485829Y2635D01*
X485925Y2664D01*
X486019Y2697D01*
X486112Y2733D01*
X486203Y2773D01*
X486293Y2817D01*
X486381Y2864D01*
X486467Y2914D01*
X486551Y2968D01*
X486633Y3025D01*
X486712Y3085D01*
X486790Y3149D01*
X486864Y3215D01*
X486936Y3284D01*
X487005Y3356D01*
X487071Y3430D01*
X487135Y3508D01*
X487195Y3587D01*
X487252Y3669D01*
X487306Y3753D01*
X487356Y3839D01*
X487403Y3927D01*
X487447Y4017D01*
X487487Y4108D01*
X487523Y4201D01*
X487556Y4295D01*
X487585Y4391D01*
X487610Y4487D01*
X487631Y4584D01*
X487649Y4683D01*
X487662Y4781D01*
X487672Y4881D01*
X487678Y4980D01*
X487680Y5080D01*
X487680Y20320D01*
X454660Y20320D02*
X454660Y5080D01*
X457200Y22860D02*
X485140Y22860D01*
D13*
X459828Y31670D02*
X458727Y32772D01*
X456524Y32772D01*
X455422Y31670D01*
X455422Y30568D01*
X456524Y29467D01*
X458727Y29467D01*
X459828Y28365D01*
X459828Y27264D01*
X458727Y26162D01*
X456524Y26162D01*
X455422Y27264D01*
X462906Y27264D02*
X464008Y26162D01*
X465109Y26162D01*
X466211Y27264D01*
X466211Y32772D01*
X465109Y32772D02*
X467313Y32772D01*
X470390Y30568D02*
X472594Y32772D01*
X472594Y26162D01*
X474797Y26162D02*
X470390Y26162D01*
D15*
X39218Y72390D03*
D16*
X39218Y72466D03*
D17*
X39180Y72543D03*
D18*
X39180Y72619D03*
D19*
X39218Y72695D03*
D20*
X39180Y72771D03*
D21*
X39180Y72847D03*
D22*
X39180Y72924D03*
D23*
X39180Y73000D03*
D24*
X39103Y73076D03*
D25*
X39104Y73152D03*
D26*
X39066Y73228D03*
D27*
X39028Y73305D03*
D28*
X39027Y73381D03*
D29*
X38951Y73457D03*
D30*
X38913Y73533D03*
D31*
X38913Y73609D03*
D32*
X38837Y73686D03*
D33*
X38799Y73762D03*
D34*
X38723Y73838D03*
D35*
X38684Y73914D03*
D36*
X38684Y73990D03*
D37*
X38608Y74067D03*
D38*
X38570Y74143D03*
D39*
X38532Y74219D03*
D40*
X38456Y74295D03*
D41*
X38418Y74371D03*
D42*
X38380Y74448D03*
D43*
X38303Y74524D03*
D44*
X38265Y74600D03*
D45*
X38189Y74676D03*
D46*
X38151Y74752D03*
D47*
X38113Y74829D03*
D48*
X38037Y74905D03*
D49*
X37999Y74981D03*
D50*
X37960Y75057D03*
D51*
X37884Y75133D03*
D52*
X37846Y75210D03*
D53*
X37808Y75286D03*
D54*
X37732Y75362D03*
D55*
X37694Y75438D03*
D56*
X37618Y75514D03*
D57*
X37579Y75591D03*
D58*
X37541Y75667D03*
D59*
X37465Y75743D03*
D60*
X37427Y75819D03*
D61*
X37389Y75895D03*
D62*
X37313Y75972D03*
D63*
X37275Y76048D03*
D64*
X37237Y76124D03*
D65*
X37160Y76200D03*
D66*
X37122Y76276D03*
D67*
X37046Y76353D03*
D68*
X37008Y76429D03*
D69*
X36970Y76505D03*
D70*
X36894Y76581D03*
D71*
X36856Y76657D03*
D72*
X36817Y76734D03*
D73*
X11291Y76810D03*
D74*
X36741Y76810D03*
D75*
X11329Y76886D03*
D76*
X36703Y76886D03*
D77*
X11405Y76962D03*
D78*
X36627Y76962D03*
D79*
X11481Y77038D03*
D80*
X36589Y77038D03*
D81*
X11519Y77115D03*
D82*
X36551Y77115D03*
D83*
X11595Y77191D03*
D84*
X36475Y77191D03*
D25*
X11672Y77267D03*
D85*
X36436Y77267D03*
D86*
X11748Y77343D03*
D87*
X36398Y77343D03*
D29*
X11824Y77419D03*
D88*
X36322Y77419D03*
D89*
X11900Y77496D03*
D90*
X36284Y77496D03*
D91*
X12015Y77572D03*
D92*
X36246Y77572D03*
D93*
X12091Y77648D03*
D94*
X36170Y77648D03*
D39*
X12167Y77724D03*
D95*
X36132Y77724D03*
D96*
X12281Y77800D03*
D97*
X36055Y77800D03*
D98*
X12357Y77877D03*
D99*
X36017Y77877D03*
D46*
X12472Y77953D03*
D100*
X35979Y77953D03*
D101*
X12586Y78029D03*
D102*
X35903Y78029D03*
D103*
X12700Y78105D03*
D104*
X35865Y78105D03*
D105*
X12777Y78181D03*
D106*
X35827Y78181D03*
D107*
X12891Y78258D03*
D108*
X35751Y78258D03*
D58*
X13005Y78334D03*
D109*
X35713Y78334D03*
D110*
X13120Y78410D03*
D111*
X35674Y78410D03*
D112*
X13234Y78486D03*
D113*
X35636Y78486D03*
D114*
X13348Y78562D03*
D115*
X35560Y78562D03*
D116*
X13462Y78639D03*
D117*
X35522Y78639D03*
D69*
X13577Y78715D03*
D118*
X35484Y78715D03*
D119*
X13691Y78791D03*
D120*
X35446Y78791D03*
D121*
X13843Y78867D03*
D122*
X35408Y78867D03*
D123*
X13958Y78943D03*
D124*
X35370Y78943D03*
D82*
X14072Y79020D03*
D125*
X35332Y79020D03*
D87*
X14224Y79096D03*
D126*
X35293Y79096D03*
D127*
X14339Y79172D03*
D128*
X35255Y79172D03*
D129*
X14491Y79248D03*
D130*
X35217Y79248D03*
D131*
X14605Y79324D03*
D132*
X35179Y79324D03*
D133*
X14720Y79401D03*
D134*
X35141Y79401D03*
D135*
X14872Y79477D03*
D136*
X35103Y79477D03*
D137*
X14986Y79553D03*
D138*
X35065Y79553D03*
D111*
X15100Y79629D03*
D139*
X35027Y79629D03*
D140*
X15253Y79705D03*
D141*
X34989Y79705D03*
D142*
X15368Y79782D03*
D143*
X34951Y79782D03*
D122*
X15444Y79858D03*
D144*
X34951Y79858D03*
D126*
X15558Y79934D03*
D145*
X34912Y79934D03*
D128*
X15672Y80010D03*
D146*
X34874Y80010D03*
D132*
X15748Y80086D03*
D147*
X34836Y80086D03*
D148*
X15863Y80163D03*
D149*
X34798Y80163D03*
D139*
X15977Y80239D03*
D150*
X34798Y80239D03*
D151*
X16053Y80315D03*
D152*
X34760Y80315D03*
D146*
X16129Y80391D03*
D153*
X34722Y80391D03*
D146*
X16205Y80467D03*
D154*
X34684Y80467D03*
D155*
X16282Y80544D03*
D156*
X34684Y80544D03*
D153*
X16358Y80620D03*
D157*
X34646Y80620D03*
D158*
X16472Y80696D03*
D159*
X34608Y80696D03*
D160*
X16510Y80772D03*
D161*
X34570Y80772D03*
D162*
X16586Y80848D03*
D161*
X34570Y80848D03*
D163*
X16701Y80925D03*
X34531Y80925D03*
D164*
X16739Y81001D03*
X34493Y81001D03*
D165*
X16815Y81077D03*
D164*
X34493Y81077D03*
D165*
X16891Y81153D03*
D166*
X34455Y81153D03*
D167*
X16930Y81229D03*
D166*
X34455Y81229D03*
D168*
X17006Y81306D03*
D169*
X34417Y81306D03*
D170*
X17082Y81382D03*
D171*
X34379Y81382D03*
D172*
X17120Y81458D03*
D171*
X34379Y81458D03*
D173*
X17196Y81534D03*
D174*
X34341Y81534D03*
D173*
X17272Y81610D03*
D174*
X34341Y81610D03*
D175*
X17310Y81687D03*
D168*
X34303Y81687D03*
D176*
X17348Y81763D03*
D170*
X34303Y81763D03*
D177*
X17425Y81839D03*
D172*
X34265Y81839D03*
D178*
X17463Y81915D03*
D172*
X34265Y81915D03*
D179*
X17501Y81991D03*
D180*
X34227Y81991D03*
D181*
X17577Y82068D03*
D182*
X34227Y82068D03*
D183*
X17615Y82144D03*
D180*
X34227Y82144D03*
D184*
X17654Y82220D03*
D185*
X34189Y82220D03*
D184*
X17730Y82296D03*
D185*
X34189Y82296D03*
D186*
X17768Y82372D03*
D187*
X34150Y82372D03*
D188*
X17806Y82449D03*
D175*
X34150Y82449D03*
D189*
X17882Y82525D03*
D187*
X34150Y82525D03*
D190*
X17920Y82601D03*
D176*
X34112Y82601D03*
D191*
X17958Y82677D03*
D176*
X34112Y82677D03*
D191*
X18034Y82753D03*
D192*
X34074Y82753D03*
D193*
X18072Y82830D03*
D194*
X34074Y82830D03*
D195*
X18072Y82906D03*
D192*
X34074Y82906D03*
D195*
X18148Y82982D03*
D192*
X34074Y82982D03*
D196*
X18187Y83058D03*
D197*
X34036Y83058D03*
D198*
X18225Y83134D03*
D197*
X34036Y83134D03*
D199*
X18263Y83211D03*
D181*
X34036Y83211D03*
D200*
X18301Y83287D03*
D183*
X33998Y83287D03*
D201*
X18339Y83363D03*
D183*
X33998Y83363D03*
D200*
X18377Y83439D03*
D183*
X33998Y83439D03*
D201*
X18415Y83515D03*
D183*
X33998Y83515D03*
D202*
X18415Y83592D03*
D203*
X33960Y83592D03*
D204*
X18492Y83668D03*
D205*
X33922Y83668D03*
D206*
X18530Y83744D03*
D205*
X33922Y83744D03*
D206*
X18530Y83820D03*
D205*
X33922Y83820D03*
D206*
X18606Y83896D03*
D205*
X33922Y83896D03*
D207*
X18606Y83973D03*
D208*
X33922Y83973D03*
D209*
X18644Y84049D03*
D184*
X33884Y84049D03*
D206*
X18682Y84125D03*
D184*
X33884Y84125D03*
D209*
X18720Y84201D03*
D184*
X33884Y84201D03*
D209*
X18720Y84277D03*
D184*
X33884Y84277D03*
D210*
X18797Y84354D03*
D203*
X33884Y84354D03*
D209*
X18797Y84430D03*
D184*
X33884Y84430D03*
D209*
X18797Y84506D03*
D184*
X33884Y84506D03*
D209*
X18873Y84582D03*
D205*
X33846Y84582D03*
D209*
X18873Y84658D03*
D205*
X33846Y84658D03*
D211*
X18911Y84735D03*
D208*
X33846Y84735D03*
D209*
X18949Y84811D03*
D205*
X33846Y84811D03*
D209*
X18949Y84887D03*
D205*
X33846Y84887D03*
D212*
X18987Y84963D03*
D205*
X33846Y84963D03*
D209*
X19025Y85039D03*
D205*
X33846Y85039D03*
D210*
X19025Y85116D03*
D213*
X33808Y85116D03*
D212*
X19063Y85192D03*
D179*
X33808Y85192D03*
D209*
X19101Y85268D03*
D179*
X33808Y85268D03*
D209*
X19101Y85344D03*
D179*
X33808Y85344D03*
D209*
X19101Y85420D03*
D179*
X33808Y85420D03*
D214*
X19139Y85497D03*
D215*
X33770Y85497D03*
D209*
X19178Y85573D03*
D178*
X33770Y85573D03*
D209*
X19178Y85649D03*
D178*
X33770Y85649D03*
D212*
X19216Y85725D03*
D178*
X33770Y85725D03*
D209*
X19254Y85801D03*
D176*
X33731Y85801D03*
D210*
X19254Y85878D03*
D216*
X33731Y85878D03*
D212*
X19292Y85954D03*
D176*
X33731Y85954D03*
D209*
X19330Y86030D03*
D176*
X33731Y86030D03*
D209*
X19330Y86106D03*
D187*
X33693Y86106D03*
D209*
X19330Y86182D03*
D187*
X33693Y86182D03*
D217*
X26264Y86259D03*
D218*
X26264Y86335D03*
D219*
X26226Y86411D03*
D220*
X26264Y86487D03*
X26264Y86563D03*
D221*
X26226Y86640D03*
D222*
X26264Y86716D03*
X26264Y86792D03*
D223*
X26226Y86868D03*
D224*
X26264Y86944D03*
D225*
X26264Y87021D03*
D226*
X26226Y87097D03*
D227*
X26264Y87173D03*
D228*
X22111Y87249D03*
D65*
X36322Y87249D03*
D229*
X21997Y87325D03*
D230*
X36398Y87325D03*
D231*
X21997Y87402D03*
D232*
X36437Y87402D03*
D233*
X21920Y87478D03*
D234*
X36437Y87478D03*
D235*
X21882Y87554D03*
D234*
X36437Y87554D03*
D236*
X21844Y87630D03*
D110*
X36437Y87630D03*
D237*
X21806Y87706D03*
D110*
X36437Y87706D03*
D238*
X21768Y87783D03*
D239*
X36399Y87783D03*
D240*
X21768Y87859D03*
D241*
X36437Y87859D03*
D242*
X21730Y87935D03*
D58*
X36398Y87935D03*
D243*
X21692Y88011D03*
D58*
X36398Y88011D03*
D244*
X21692Y88087D03*
D245*
X36360Y88087D03*
D246*
X21654Y88164D03*
D57*
X36360Y88164D03*
D247*
X21616Y88240D03*
D248*
X36322Y88240D03*
D249*
X21616Y88316D03*
D248*
X36322Y88316D03*
D249*
X21616Y88392D03*
D250*
X36284Y88392D03*
D251*
X21616Y88468D03*
D250*
X36284Y88468D03*
D252*
X21578Y88545D03*
D253*
X36246Y88545D03*
D254*
X21539Y88621D03*
D54*
X36208Y88621D03*
D255*
X21577Y88697D03*
D54*
X36208Y88697D03*
D256*
X17501Y88773D03*
D257*
X26302Y88773D03*
D105*
X36170Y88773D03*
D258*
X17387Y88849D03*
D112*
X26493Y88849D03*
D105*
X36094Y88849D03*
D259*
X17311Y88926D03*
D260*
X26607Y88926D03*
D261*
X36094Y88926D03*
D123*
X17311Y89002D03*
D58*
X26645Y89002D03*
D262*
X36056Y89002D03*
D123*
X17311Y89078D03*
D250*
X26683Y89078D03*
D263*
X36018Y89078D03*
D74*
X17310Y89154D03*
D264*
X26759Y89154D03*
D51*
X35979Y89154D03*
D74*
X17310Y89230D03*
D265*
X26797Y89230D03*
D51*
X35979Y89230D03*
D266*
X17348Y89307D03*
D267*
X26873Y89307D03*
D268*
X35903Y89307D03*
D121*
X17348Y89383D03*
D269*
X26873Y89383D03*
D103*
X35865Y89383D03*
D270*
X17386Y89459D03*
D271*
X26950Y89459D03*
D50*
X35827Y89459D03*
D270*
X17386Y89535D03*
D46*
X26950Y89535D03*
D269*
X35789Y89535D03*
D71*
X17425Y89611D03*
D272*
X26988Y89611D03*
D49*
X35713Y89611D03*
D273*
X17425Y89688D03*
D274*
X27026Y89688D03*
D275*
X35675Y89688D03*
D70*
X17463Y89764D03*
D276*
X27026Y89764D03*
D271*
X35637Y89764D03*
D70*
X17463Y89840D03*
D96*
X27064Y89840D03*
D277*
X35560Y89840D03*
D278*
X17501Y89916D03*
D39*
X27102Y89916D03*
D279*
X35522Y89916D03*
D280*
X17577Y89992D03*
D38*
X27140Y89992D03*
D46*
X35484Y89992D03*
D281*
X17577Y90069D03*
D37*
X27178Y90069D03*
D282*
X35408Y90069D03*
D283*
X17615Y90145D03*
D36*
X27178Y90145D03*
D284*
X35370Y90145D03*
D280*
X17653Y90221D03*
D285*
X27216Y90221D03*
D284*
X35294Y90221D03*
D69*
X17692Y90297D03*
D286*
X27216Y90297D03*
D287*
X35256Y90297D03*
D68*
X17730Y90373D03*
D91*
X27255Y90373D03*
D43*
X35179Y90373D03*
D288*
X17768Y90450D03*
D32*
X27255Y90450D03*
D274*
X35103Y90450D03*
D68*
X17806Y90526D03*
D289*
X27293Y90526D03*
D290*
X35065Y90526D03*
D291*
X40018Y90526D03*
D68*
X17882Y90602D03*
D292*
X27331Y90602D03*
D293*
X34951Y90602D03*
D79*
X40056Y90602D03*
D68*
X17882Y90678D03*
D294*
X27331Y90678D03*
D41*
X34913Y90678D03*
D295*
X40056Y90678D03*
D68*
X17958Y90754D03*
D29*
X27369Y90754D03*
D96*
X34836Y90754D03*
D28*
X40094Y90754D03*
D67*
X17996Y90831D03*
D296*
X27407Y90831D03*
D297*
X34760Y90831D03*
D298*
X40094Y90831D03*
D257*
X18073Y90907D03*
D299*
X27407Y90907D03*
D300*
X34684Y90907D03*
D301*
X40094Y90907D03*
D68*
X18111Y90983D03*
D299*
X27407Y90983D03*
D302*
X34608Y90983D03*
D96*
X40094Y90983D03*
D257*
X18149Y91059D03*
D86*
X27445Y91059D03*
D302*
X34532Y91059D03*
D45*
X40094Y91059D03*
D257*
X18225Y91135D03*
D303*
X27445Y91135D03*
D301*
X34455Y91135D03*
D269*
X40132Y91135D03*
D304*
X18301Y91212D03*
D305*
X27483Y91212D03*
D306*
X34379Y91212D03*
D307*
X40094Y91212D03*
D308*
X18339Y91288D03*
D309*
X27521Y91288D03*
D285*
X34303Y91288D03*
D245*
X40094Y91288D03*
D310*
X18377Y91364D03*
D309*
X27521Y91364D03*
D311*
X37808Y91364D03*
D257*
X18454Y91440D03*
D24*
X27521Y91440D03*
D312*
X37846Y91440D03*
D313*
X18492Y91516D03*
D295*
X27559Y91516D03*
D151*
X37922Y91516D03*
D314*
X18568Y91593D03*
D315*
X27559Y91593D03*
D155*
X37999Y91593D03*
D313*
X18644Y91669D03*
D83*
X27597Y91669D03*
D316*
X38037Y91669D03*
D308*
X18720Y91745D03*
D317*
X27636Y91745D03*
D157*
X38075Y91745D03*
D308*
X18796Y91821D03*
D317*
X27636Y91821D03*
D318*
X38113Y91821D03*
D66*
X18834Y91897D03*
D319*
X27636Y91897D03*
D166*
X38189Y91897D03*
D320*
X18911Y91974D03*
D321*
X27636Y91974D03*
D322*
X38228Y91974D03*
D323*
X18987Y92050D03*
D21*
X27674Y92050D03*
D324*
X38227Y92050D03*
D66*
X19063Y92126D03*
D21*
X27674Y92126D03*
D187*
X38265Y92126D03*
D66*
X19139Y92202D03*
D325*
X27712Y92202D03*
D178*
X38342Y92202D03*
D66*
X19215Y92278D03*
D325*
X27712Y92278D03*
D205*
X38342Y92278D03*
D320*
X19292Y92355D03*
D326*
X27750Y92355D03*
D188*
X38380Y92355D03*
D65*
X19406Y92431D03*
D327*
X27750Y92431D03*
D328*
X38380Y92431D03*
D65*
X19482Y92507D03*
D329*
X27788Y92507D03*
D196*
X38380Y92507D03*
D65*
X19558Y92583D03*
D329*
X27788Y92583D03*
D206*
X38418Y92583D03*
D65*
X19634Y92659D03*
D20*
X27826Y92659D03*
D212*
X38418Y92659D03*
D330*
X19749Y92736D03*
D331*
X27864Y92736D03*
D332*
X38418Y92736D03*
D114*
X19825Y92812D03*
D329*
X27864Y92812D03*
D333*
X38456Y92812D03*
D114*
X19977Y92888D03*
D329*
X27864Y92888D03*
D334*
X38456Y92888D03*
D114*
X20053Y92964D03*
D20*
X27902Y92964D03*
D335*
X38494Y92964D03*
D230*
X20168Y93040D03*
D329*
X27940Y93040D03*
D336*
X38494Y93040D03*
D337*
X20282Y93117D03*
D331*
X27940Y93117D03*
D338*
X38456Y93117D03*
D63*
X20435Y93193D03*
D339*
X27978Y93193D03*
D340*
X38494Y93193D03*
D63*
X20511Y93269D03*
D325*
X28017Y93269D03*
D341*
X38456Y93269D03*
D342*
X20701Y93345D03*
D319*
X28093Y93345D03*
D343*
X38456Y93345D03*
D234*
X20816Y93421D03*
D344*
X36856Y93421D03*
D345*
X20968Y93498D03*
D346*
X36894Y93498D03*
D61*
X21159Y93574D03*
D347*
X36932Y93574D03*
D110*
X21349Y93650D03*
D348*
X36970Y93650D03*
D349*
X21540Y93726D03*
D350*
X36970Y93726D03*
D351*
X21730Y93802D03*
D352*
X37008Y93802D03*
D353*
X21997Y93879D03*
D354*
X37008Y93879D03*
D58*
X22225Y93955D03*
D355*
X37008Y93955D03*
D356*
X17768Y94031D03*
D357*
X33427Y94031D03*
D358*
X32245Y94107D03*
D359*
X32131Y94183D03*
D360*
X32017Y94260D03*
D361*
X31979Y94336D03*
D362*
X31903Y94412D03*
D363*
X31827Y94488D03*
D364*
X31788Y94564D03*
D365*
X31750Y94641D03*
D366*
X31750Y94717D03*
D367*
X31712Y94793D03*
D368*
X31674Y94869D03*
D369*
X31674Y94945D03*
D370*
X23254Y95022D03*
D371*
X41466Y95022D03*
D249*
X22911Y95098D03*
D209*
X41809Y95098D03*
D372*
X22721Y95174D03*
D200*
X42075Y95174D03*
D373*
X22568Y95250D03*
D191*
X42266Y95250D03*
D372*
X22416Y95326D03*
D189*
X42495Y95326D03*
D374*
X22301Y95403D03*
D203*
X42647Y95403D03*
D254*
X22149Y95479D03*
D197*
X42799Y95479D03*
D254*
X22073Y95555D03*
D179*
X42952Y95555D03*
D375*
X21997Y95631D03*
D192*
X43066Y95631D03*
D251*
X21921Y95707D03*
D176*
X43256Y95707D03*
D376*
X21844Y95784D03*
D377*
X43333Y95784D03*
D378*
X21806Y95860D03*
D187*
X43447Y95860D03*
D249*
X21768Y95936D03*
D187*
X43599Y95936D03*
D247*
X21692Y96012D03*
D187*
X43675Y96012D03*
D379*
X21654Y96088D03*
D173*
X43790Y96088D03*
D380*
X21616Y96165D03*
D175*
X43904Y96165D03*
D145*
X18529Y96241D03*
D293*
X28093Y96241D03*
D187*
X43980Y96241D03*
D136*
X18263Y96317D03*
D381*
X28283Y96317D03*
D177*
X44095Y96317D03*
D130*
X18072Y96393D03*
D302*
X28360Y96393D03*
D176*
X44171Y96393D03*
D382*
X17882Y96469D03*
D302*
X28436Y96469D03*
D192*
X44209Y96469D03*
D383*
X17768Y96546D03*
D384*
X28512Y96546D03*
D181*
X44323Y96546D03*
D385*
X17577Y96622D03*
D39*
X28550Y96622D03*
D179*
X44400Y96622D03*
D120*
X17463Y96698D03*
D39*
X28626Y96698D03*
D184*
X44476Y96698D03*
D386*
X17311Y96774D03*
D381*
X28664Y96774D03*
D186*
X44514Y96774D03*
D140*
X17234Y96850D03*
D387*
X28702Y96850D03*
D189*
X44552Y96850D03*
D388*
X17120Y96927D03*
D389*
X28778Y96927D03*
D390*
X44628Y96927D03*
D111*
X17005Y97003D03*
D290*
X28816Y97003D03*
D195*
X44666Y97003D03*
D391*
X16891Y97079D03*
D272*
X28893Y97079D03*
D200*
X44742Y97079D03*
D392*
X16777Y97155D03*
D284*
X28969Y97155D03*
D204*
X44781Y97155D03*
D393*
X16701Y97231D03*
D279*
X29045Y97231D03*
D209*
X44781Y97231D03*
D394*
X16587Y97308D03*
D395*
X29083Y97308D03*
D332*
X44819Y97308D03*
D137*
X16510Y97384D03*
D103*
X29159Y97384D03*
D396*
X44818Y97384D03*
D106*
X16396Y97460D03*
D105*
X29236Y97460D03*
D397*
X44819Y97460D03*
D106*
X16320Y97536D03*
D250*
X29350Y97536D03*
D335*
X44819Y97536D03*
D135*
X16244Y97612D03*
D351*
X29426Y97612D03*
D398*
X44780Y97612D03*
D399*
X16168Y97689D03*
D62*
X29541Y97689D03*
D400*
X44742Y97689D03*
D401*
X16053Y97765D03*
D66*
X29731Y97765D03*
D402*
X44704Y97765D03*
D403*
X15977Y97841D03*
D119*
X29921Y97841D03*
D404*
X44552Y97841D03*
D403*
X15901Y97917D03*
D405*
X39408Y97917D03*
D406*
X15863Y97993D03*
D83*
X27064Y97993D03*
D407*
X41123Y97993D03*
D408*
X15786Y98070D03*
D409*
X26950Y98070D03*
D410*
X41237Y98070D03*
D100*
X15710Y98146D03*
D317*
X26874Y98146D03*
D411*
X41314Y98146D03*
D412*
X15672Y98222D03*
D413*
X26797Y98222D03*
D411*
X41390Y98222D03*
D412*
X15596Y98298D03*
D83*
X26759Y98298D03*
D411*
X41466Y98298D03*
D414*
X15520Y98374D03*
D83*
X26683Y98374D03*
D415*
X41504Y98374D03*
D99*
X15443Y98451D03*
D416*
X26607Y98451D03*
D417*
X41580Y98451D03*
D97*
X15405Y98527D03*
D418*
X26569Y98527D03*
D415*
X41657Y98527D03*
D97*
X15329Y98603D03*
D24*
X26454Y98603D03*
D415*
X41657Y98603D03*
D412*
X15291Y98679D03*
D419*
X26416Y98679D03*
D420*
X41695Y98679D03*
D412*
X15215Y98755D03*
D309*
X26378Y98755D03*
D420*
X41771Y98755D03*
D421*
X15177Y98832D03*
D422*
X26264Y98832D03*
D423*
X41771Y98832D03*
D414*
X15139Y98908D03*
D303*
X26226Y98908D03*
D424*
X41809Y98908D03*
D412*
X15062Y98984D03*
D86*
X26150Y98984D03*
D424*
X41809Y98984D03*
D100*
X15024Y99060D03*
D299*
X26112Y99060D03*
D424*
X41885Y99060D03*
D412*
X14986Y99136D03*
D28*
X25997Y99136D03*
D424*
X41885Y99136D03*
D408*
X14948Y99213D03*
D425*
X25921Y99213D03*
D426*
X41923Y99213D03*
D401*
X14910Y99289D03*
D30*
X25883Y99289D03*
D427*
X41923Y99289D03*
D401*
X14910Y99365D03*
D292*
X25807Y99365D03*
D428*
X41961Y99365D03*
D135*
X14872Y99441D03*
D429*
X25731Y99441D03*
D430*
X41923Y99441D03*
D104*
X14834Y99517D03*
D431*
X25616Y99517D03*
D430*
X41923Y99517D03*
D432*
X14796Y99594D03*
D433*
X25540Y99594D03*
D434*
X41961Y99594D03*
D106*
X14796Y99670D03*
D93*
X25426Y99670D03*
D435*
X41961Y99670D03*
D393*
X14796Y99746D03*
D436*
X25350Y99746D03*
D437*
X41999Y99746D03*
D109*
X14758Y99822D03*
D381*
X25235Y99822D03*
D437*
X41999Y99822D03*
D438*
X14758Y99898D03*
D276*
X25121Y99898D03*
D439*
X41961Y99898D03*
D440*
X14796Y99975D03*
D441*
X25007Y99975D03*
D442*
X41999Y99975D03*
D118*
X14834Y100051D03*
D279*
X24854Y100051D03*
D443*
X41999Y100051D03*
D126*
X14948Y100127D03*
D444*
X24626Y100127D03*
D445*
X41961Y100127D03*
D446*
X18454Y100203D03*
D445*
X41961Y100203D03*
D446*
X18454Y100279D03*
D447*
X41961Y100279D03*
D238*
X18416Y100356D03*
D448*
X41923Y100356D03*
D237*
X18377Y100432D03*
D449*
X41923Y100432D03*
D237*
X18377Y100508D03*
D450*
X41885Y100508D03*
D236*
X18339Y100584D03*
D451*
X41885Y100584D03*
D452*
X18301Y100660D03*
D453*
X41847Y100660D03*
D454*
X18263Y100737D03*
D455*
X41771Y100737D03*
D456*
X18263Y100813D03*
D457*
X41733Y100813D03*
D235*
X18225Y100889D03*
D458*
X41656Y100889D03*
D459*
X18187Y100965D03*
D460*
X41618Y100965D03*
D461*
X18149Y101041D03*
D462*
X41504Y101041D03*
D463*
X18149Y101118D03*
D464*
X41428Y101118D03*
D465*
X18149Y101194D03*
D466*
X41313Y101194D03*
D229*
X18111Y101270D03*
D467*
X41199Y101270D03*
D468*
X18073Y101346D03*
D352*
X41047Y101346D03*
D468*
X18073Y101422D03*
D350*
X40932Y101422D03*
D469*
X18034Y101499D03*
D470*
X40856Y101499D03*
D228*
X17996Y101575D03*
D344*
X40742Y101575D03*
D471*
X17958Y101651D03*
D472*
X40628Y101651D03*
D473*
X17996Y101727D03*
D471*
X40513Y101727D03*
D474*
X17958Y101803D03*
D468*
X40399Y101803D03*
D475*
X17920Y101880D03*
D231*
X40285Y101880D03*
D476*
X17920Y101956D03*
D456*
X40132Y101956D03*
D477*
X17882Y102032D03*
D478*
X40018Y102032D03*
D344*
X17882Y102108D03*
D429*
X32741Y102108D03*
D479*
X42037Y102108D03*
D480*
X17844Y102184D03*
D33*
X32779Y102184D03*
D197*
X41961Y102184D03*
D346*
X17844Y102261D03*
D481*
X32817Y102261D03*
D482*
X41885Y102261D03*
D483*
X17806Y102337D03*
D484*
X32817Y102337D03*
D174*
X41809Y102337D03*
D485*
X17806Y102413D03*
D286*
X32855Y102413D03*
D318*
X41770Y102413D03*
D348*
X17767Y102489D03*
D35*
X32893Y102489D03*
D153*
X41657Y102489D03*
D348*
X17767Y102565D03*
D285*
X32931Y102565D03*
D146*
X41580Y102565D03*
D486*
X17729Y102642D03*
D487*
X32969Y102642D03*
D488*
X41504Y102642D03*
D489*
X17730Y102718D03*
D36*
X32969Y102718D03*
D490*
X41466Y102718D03*
D491*
X17692Y102794D03*
D492*
X33008Y102794D03*
D124*
X41390Y102794D03*
D491*
X17692Y102870D03*
D436*
X33046Y102870D03*
D386*
X41314Y102870D03*
D493*
X17692Y102946D03*
D302*
X33084Y102946D03*
D391*
X41275Y102946D03*
D354*
X17653Y103023D03*
D384*
X33084Y103023D03*
D399*
X41161Y103023D03*
D494*
X17691Y103099D03*
D39*
X33122Y103099D03*
D131*
X41123Y103099D03*
D467*
X17653Y103175D03*
D40*
X33122Y103175D03*
D92*
X41047Y103175D03*
D495*
X17615Y103251D03*
D96*
X33160Y103251D03*
D85*
X41008Y103251D03*
D466*
X17615Y103327D03*
D96*
X33160Y103327D03*
D80*
X40933Y103327D03*
D496*
X17615Y103404D03*
D389*
X33198Y103404D03*
D266*
X40894Y103404D03*
D497*
X17615Y103480D03*
D290*
X33236Y103480D03*
D283*
X40856Y103480D03*
D498*
X17577Y103556D03*
D290*
X33236Y103556D03*
D65*
X40818Y103556D03*
D499*
X17577Y103632D03*
D44*
X33236Y103632D03*
D61*
X40742Y103632D03*
D499*
X17577Y103708D03*
D500*
X33274Y103708D03*
D245*
X40704Y103708D03*
D501*
X17577Y103785D03*
D502*
X33274Y103785D03*
D503*
X40704Y103785D03*
D255*
X15253Y103861D03*
D35*
X26340Y103861D03*
D46*
X33275Y103861D03*
D49*
X40666Y103861D03*
D255*
X15177Y103937D03*
D36*
X26340Y103937D03*
D46*
X33275Y103937D03*
D287*
X40666Y103937D03*
D255*
X15177Y104013D03*
D301*
X26378Y104013D03*
D504*
X33313Y104013D03*
D39*
X40666Y104013D03*
D255*
X15100Y104089D03*
D505*
X26340Y104089D03*
D277*
X33274Y104089D03*
D91*
X40590Y104089D03*
D506*
X15024Y104166D03*
D507*
X26378Y104166D03*
D508*
X33312Y104166D03*
D509*
X40590Y104166D03*
D255*
X15024Y104242D03*
D39*
X26417Y104242D03*
D269*
X33274Y104242D03*
D21*
X40552Y104242D03*
D255*
X14948Y104318D03*
D387*
X26416Y104318D03*
D50*
X33312Y104318D03*
D510*
X40513Y104318D03*
D255*
X14872Y104394D03*
D96*
X26454Y104394D03*
D103*
X33274Y104394D03*
D254*
X14834Y104470D03*
D276*
X26492Y104470D03*
D265*
X33274Y104470D03*
D506*
X14796Y104547D03*
D274*
X26492Y104547D03*
D307*
X33236Y104547D03*
D255*
X14719Y104623D03*
D287*
X26569Y104623D03*
D264*
X33236Y104623D03*
D254*
X14681Y104699D03*
D511*
X30112Y104699D03*
D254*
X14605Y104775D03*
D511*
X30112Y104775D03*
D255*
X14567Y104851D03*
D162*
X30150Y104851D03*
D506*
X14491Y104928D03*
D163*
X30112Y104928D03*
D254*
X14453Y105004D03*
D164*
X30150Y105004D03*
D255*
X14415Y105080D03*
D164*
X30150Y105080D03*
D255*
X14338Y105156D03*
D166*
X30112Y105156D03*
D255*
X14262Y105232D03*
D165*
X30150Y105232D03*
D506*
X14262Y105309D03*
D169*
X30150Y105309D03*
D255*
X14186Y105385D03*
D165*
X30150Y105385D03*
D255*
X14110Y105461D03*
D167*
X30112Y105461D03*
D512*
X14072Y105537D03*
D174*
X30150Y105537D03*
D513*
X13996Y105613D03*
D174*
X30150Y105613D03*
D514*
X13958Y105690D03*
D168*
X30112Y105690D03*
D515*
X13881Y105766D03*
D170*
X30112Y105766D03*
D516*
X13843Y105842D03*
D324*
X30150Y105842D03*
D517*
X13805Y105918D03*
D324*
X30150Y105918D03*
D518*
X13729Y105994D03*
D324*
X30150Y105994D03*
D519*
X13691Y106071D03*
D520*
X30112Y106071D03*
D521*
X13653Y106147D03*
D522*
X30112Y106147D03*
D523*
X13577Y106223D03*
D173*
X30150Y106223D03*
D343*
X13538Y106299D03*
D173*
X30150Y106299D03*
D343*
X13462Y106375D03*
D173*
X30150Y106375D03*
D524*
X13462Y106452D03*
D482*
X30150Y106452D03*
D402*
X13386Y106528D03*
D173*
X30150Y106528D03*
D525*
X13348Y106604D03*
D187*
X30112Y106604D03*
D340*
X13272Y106680D03*
D176*
X30150Y106680D03*
D526*
X13234Y106756D03*
D176*
X30150Y106756D03*
D338*
X13157Y106833D03*
D216*
X30150Y106833D03*
D336*
X13119Y106909D03*
D176*
X30150Y106909D03*
D527*
X13081Y106985D03*
D176*
X30150Y106985D03*
D528*
X13043Y107061D03*
D176*
X30150Y107061D03*
D529*
X12967Y107137D03*
D176*
X30150Y107137D03*
D530*
X12891Y107214D03*
D216*
X30150Y107214D03*
D531*
X12853Y107290D03*
D176*
X30150Y107290D03*
D204*
X12777Y107366D03*
D176*
X30150Y107366D03*
D532*
X12700Y107442D03*
D176*
X30150Y107442D03*
D479*
X12624Y107518D03*
D176*
X30150Y107518D03*
D213*
X12548Y107595D03*
D216*
X30150Y107595D03*
D187*
X12433Y107671D03*
D176*
X30150Y107671D03*
D170*
X12358Y107747D03*
D176*
X30150Y107747D03*
D318*
X12281Y107823D03*
D176*
X30150Y107823D03*
D153*
X12167Y107899D03*
D176*
X30150Y107899D03*
D143*
X12091Y107976D03*
D216*
X30150Y107976D03*
D128*
X11938Y108052D03*
D187*
X30188Y108052D03*
D113*
X11786Y108128D03*
D187*
X30188Y108128D03*
D269*
X10033Y108204D03*
D187*
X30188Y108204D03*
X30188Y108280D03*
D175*
X30188Y108357D03*
D187*
X30188Y108433D03*
X30188Y108509D03*
D173*
X30226Y108585D03*
X30226Y108661D03*
D482*
X30226Y108738D03*
D173*
X30226Y108814D03*
D522*
X30188Y108890D03*
D324*
X30226Y108966D03*
X30226Y109042D03*
D533*
X30226Y109119D03*
D324*
X30226Y109195D03*
D170*
X30265Y109271D03*
X30265Y109347D03*
X30265Y109423D03*
D322*
X30227Y109500D03*
D167*
X30265Y109576D03*
X30265Y109652D03*
X30265Y109728D03*
D534*
X30303Y109804D03*
D535*
X30264Y109881D03*
D166*
X30264Y109957D03*
D164*
X30302Y110033D03*
X30302Y110109D03*
X30302Y110185D03*
D536*
X30302Y110262D03*
D162*
X30302Y110338D03*
X30302Y110414D03*
D159*
X30341Y110490D03*
D157*
X30303Y110566D03*
D156*
X30341Y110643D03*
D154*
X30341Y110719D03*
X30341Y110795D03*
D316*
X30341Y110871D03*
X30341Y110947D03*
D155*
X30379Y111024D03*
D537*
X30341Y111100D03*
D538*
X30379Y111176D03*
X30379Y111252D03*
D144*
X30379Y111328D03*
D143*
X30379Y111405D03*
D141*
X30417Y111481D03*
D139*
X30379Y111557D03*
D138*
X30417Y111633D03*
X30417Y111709D03*
D539*
X30417Y111786D03*
D540*
X30417Y111862D03*
D541*
X30455Y111938D03*
X30455Y112014D03*
D128*
X30455Y112090D03*
D542*
X30493Y112167D03*
D126*
X30493Y112243D03*
D543*
X30493Y112319D03*
X30493Y112395D03*
D385*
X30531Y112471D03*
D142*
X30531Y112548D03*
D118*
X30531Y112624D03*
D544*
X30569Y112700D03*
D140*
X30569Y112776D03*
X30569Y112852D03*
D388*
X30607Y112929D03*
D391*
X30607Y113005D03*
D392*
X30645Y113081D03*
X30645Y113157D03*
D106*
X30646Y113233D03*
D545*
X30684Y113310D03*
D135*
X30722Y113386D03*
D403*
X30684Y113462D03*
D406*
X30722Y113538D03*
D414*
X30760Y113614D03*
D421*
X30721Y113691D03*
D546*
X30760Y113767D03*
D95*
X30798Y113843D03*
D129*
X30798Y113919D03*
X30798Y113995D03*
D547*
X30836Y114072D03*
D127*
X30874Y114148D03*
D256*
X30836Y114224D03*
D548*
X30874Y114300D03*
D87*
X30912Y114376D03*
D549*
X30912Y114453D03*
D550*
X30912Y114529D03*
D551*
X30950Y114605D03*
D552*
X30950Y114681D03*
X30950Y114757D03*
D553*
X30989Y114834D03*
D76*
X30988Y114910D03*
D74*
X31026Y114986D03*
X31026Y115062D03*
D270*
X31026Y115138D03*
D554*
X31064Y115215D03*
D119*
X31064Y115291D03*
D278*
X31065Y115367D03*
D69*
X31103Y115443D03*
D68*
X31141Y115519D03*
D304*
X31103Y115596D03*
D313*
X31141Y115672D03*
D323*
X31179Y115748D03*
D114*
X31179Y115824D03*
X31179Y115900D03*
D555*
X31217Y115977D03*
D556*
X31255Y116053D03*
D112*
X31217Y116129D03*
D234*
X31255Y116205D03*
D61*
X31293Y116281D03*
D557*
X31293Y116358D03*
D59*
X31293Y116434D03*
D351*
X31331Y116510D03*
D245*
X31331Y116586D03*
X31331Y116662D03*
D558*
X31369Y116739D03*
D559*
X31369Y116815D03*
D54*
X31408Y116891D03*
X31408Y116967D03*
D262*
X31408Y117043D03*
D560*
X31446Y117120D03*
D263*
X31446Y117196D03*
D103*
X31445Y117272D03*
D50*
X31483Y117348D03*
D49*
X31522Y117424D03*
D275*
X31484Y117501D03*
D271*
X31522Y117577D03*
D504*
X31560Y117653D03*
D46*
X31522Y117729D03*
D284*
X31560Y117805D03*
D561*
X31598Y117882D03*
D43*
X31598Y117958D03*
X31598Y118034D03*
D290*
X31636Y118110D03*
D276*
X31674Y118186D03*
D562*
X31636Y118263D03*
D387*
X31674Y118339D03*
D381*
X31712Y118415D03*
D38*
X31712Y118491D03*
X31712Y118567D03*
D37*
X31750Y118644D03*
D36*
X31750Y118720D03*
D285*
X31788Y118796D03*
X31788Y118872D03*
D286*
X31788Y118948D03*
D563*
X31827Y119025D03*
D91*
X31827Y119101D03*
D429*
X31827Y119177D03*
D289*
X31865Y119253D03*
D292*
X31903Y119329D03*
D564*
X31865Y119406D03*
D294*
X31903Y119482D03*
D29*
X31941Y119558D03*
D565*
X31903Y119634D03*
D566*
X31941Y119710D03*
D27*
X31941Y119787D03*
D26*
X31979Y119863D03*
X31979Y119939D03*
D567*
X31979Y120015D03*
D309*
X32017Y120091D03*
D568*
X32017Y120168D03*
D83*
X32017Y120244D03*
X32017Y120320D03*
D569*
X32017Y120396D03*
D21*
X32017Y120472D03*
D570*
X32017Y120549D03*
D20*
X32017Y120625D03*
D571*
X32055Y120701D03*
D18*
X32017Y120777D03*
D572*
X32017Y120853D03*
D573*
X32017Y120930D03*
D356*
X31941Y121006D03*
D14*
X14476Y162560D02*
X14479Y162828D01*
X14489Y163096D01*
X14506Y163364D01*
X14529Y163631D01*
X14558Y163897D01*
X14594Y164163D01*
X14637Y164428D01*
X14686Y164691D01*
X14741Y164953D01*
X14803Y165214D01*
X14872Y165474D01*
X14946Y165731D01*
X15027Y165987D01*
X15115Y166240D01*
X15208Y166491D01*
X15308Y166740D01*
X15413Y166987D01*
X15525Y167231D01*
X15642Y167472D01*
X15766Y167710D01*
X15895Y167944D01*
X16030Y168176D01*
X16171Y168404D01*
X16317Y168629D01*
X16469Y168850D01*
X16626Y169067D01*
X16788Y169281D01*
X16956Y169490D01*
X17128Y169695D01*
X17306Y169896D01*
X17488Y170093D01*
X17676Y170284D01*
X17867Y170472D01*
X18064Y170654D01*
X18265Y170832D01*
X18470Y171004D01*
X18679Y171172D01*
X18893Y171334D01*
X19110Y171491D01*
X19331Y171643D01*
X19556Y171789D01*
X19784Y171930D01*
X20016Y172065D01*
X20250Y172194D01*
X20488Y172318D01*
X20729Y172435D01*
X20973Y172547D01*
X21220Y172652D01*
X21469Y172752D01*
X21720Y172845D01*
X21973Y172933D01*
X22229Y173014D01*
X22486Y173088D01*
X22746Y173157D01*
X23007Y173219D01*
X23269Y173274D01*
X23532Y173323D01*
X23797Y173366D01*
X24063Y173402D01*
X24329Y173431D01*
X24596Y173454D01*
X24864Y173471D01*
X25132Y173481D01*
X25400Y173484D01*
X25668Y173481D01*
X25936Y173471D01*
X26204Y173454D01*
X26471Y173431D01*
X26737Y173402D01*
X27003Y173366D01*
X27268Y173323D01*
X27531Y173274D01*
X27793Y173219D01*
X28054Y173157D01*
X28314Y173088D01*
X28571Y173014D01*
X28827Y172933D01*
X29080Y172845D01*
X29331Y172752D01*
X29580Y172652D01*
X29827Y172547D01*
X30071Y172435D01*
X30312Y172318D01*
X30550Y172194D01*
X30784Y172065D01*
X31016Y171930D01*
X31244Y171789D01*
X31469Y171643D01*
X31690Y171491D01*
X31907Y171334D01*
X32121Y171172D01*
X32330Y171004D01*
X32535Y170832D01*
X32736Y170654D01*
X32933Y170472D01*
X33124Y170284D01*
X33312Y170093D01*
X33494Y169896D01*
X33672Y169695D01*
X33844Y169490D01*
X34012Y169281D01*
X34174Y169067D01*
X34331Y168850D01*
X34483Y168629D01*
X34629Y168404D01*
X34770Y168176D01*
X34905Y167944D01*
X35034Y167710D01*
X35158Y167472D01*
X35275Y167231D01*
X35387Y166987D01*
X35492Y166740D01*
X35592Y166491D01*
X35685Y166240D01*
X35773Y165987D01*
X35854Y165731D01*
X35928Y165474D01*
X35997Y165214D01*
X36059Y164953D01*
X36114Y164691D01*
X36163Y164428D01*
X36206Y164163D01*
X36242Y163897D01*
X36271Y163631D01*
X36294Y163364D01*
X36311Y163096D01*
X36321Y162828D01*
X36324Y162560D01*
X36321Y162292D01*
X36311Y162024D01*
X36294Y161756D01*
X36271Y161489D01*
X36242Y161223D01*
X36206Y160957D01*
X36163Y160692D01*
X36114Y160429D01*
X36059Y160167D01*
X35997Y159906D01*
X35928Y159646D01*
X35854Y159389D01*
X35773Y159133D01*
X35685Y158880D01*
X35592Y158629D01*
X35492Y158380D01*
X35387Y158133D01*
X35275Y157889D01*
X35158Y157648D01*
X35034Y157410D01*
X34905Y157176D01*
X34770Y156944D01*
X34629Y156716D01*
X34483Y156491D01*
X34331Y156270D01*
X34174Y156053D01*
X34012Y155839D01*
X33844Y155630D01*
X33672Y155425D01*
X33494Y155224D01*
X33312Y155027D01*
X33124Y154836D01*
X32933Y154648D01*
X32736Y154466D01*
X32535Y154288D01*
X32330Y154116D01*
X32121Y153948D01*
X31907Y153786D01*
X31690Y153629D01*
X31469Y153477D01*
X31244Y153331D01*
X31016Y153190D01*
X30784Y153055D01*
X30550Y152926D01*
X30312Y152802D01*
X30071Y152685D01*
X29827Y152573D01*
X29580Y152468D01*
X29331Y152368D01*
X29080Y152275D01*
X28827Y152187D01*
X28571Y152106D01*
X28314Y152032D01*
X28054Y151963D01*
X27793Y151901D01*
X27531Y151846D01*
X27268Y151797D01*
X27003Y151754D01*
X26737Y151718D01*
X26471Y151689D01*
X26204Y151666D01*
X25936Y151649D01*
X25668Y151639D01*
X25400Y151636D01*
X25132Y151639D01*
X24864Y151649D01*
X24596Y151666D01*
X24329Y151689D01*
X24063Y151718D01*
X23797Y151754D01*
X23532Y151797D01*
X23269Y151846D01*
X23007Y151901D01*
X22746Y151963D01*
X22486Y152032D01*
X22229Y152106D01*
X21973Y152187D01*
X21720Y152275D01*
X21469Y152368D01*
X21220Y152468D01*
X20973Y152573D01*
X20729Y152685D01*
X20488Y152802D01*
X20250Y152926D01*
X20016Y153055D01*
X19784Y153190D01*
X19556Y153331D01*
X19331Y153477D01*
X19110Y153629D01*
X18893Y153786D01*
X18679Y153948D01*
X18470Y154116D01*
X18265Y154288D01*
X18064Y154466D01*
X17867Y154648D01*
X17676Y154836D01*
X17488Y155027D01*
X17306Y155224D01*
X17128Y155425D01*
X16956Y155630D01*
X16788Y155839D01*
X16626Y156053D01*
X16469Y156270D01*
X16317Y156491D01*
X16171Y156716D01*
X16030Y156944D01*
X15895Y157176D01*
X15766Y157410D01*
X15642Y157648D01*
X15525Y157889D01*
X15413Y158133D01*
X15308Y158380D01*
X15208Y158629D01*
X15115Y158880D01*
X15027Y159133D01*
X14946Y159389D01*
X14872Y159646D01*
X14803Y159906D01*
X14741Y160167D01*
X14686Y160429D01*
X14637Y160692D01*
X14594Y160957D01*
X14558Y161223D01*
X14529Y161489D01*
X14506Y161756D01*
X14489Y162024D01*
X14479Y162292D01*
X14476Y162560D01*
D574*
X21742Y164439D02*
X21742Y156812D01*
X21742Y164439D02*
X25555Y168252D01*
X29369Y164439D01*
X29369Y156812D01*
X29369Y162532D02*
X21742Y162532D01*
D11*
X120650Y215900D02*
X133350Y215900D01*
X120650Y215900D02*
X114300Y222250D01*
X114300Y234950D02*
X120650Y241300D01*
X114300Y222250D02*
X107950Y215900D01*
X95250Y215900D01*
X88900Y222250D01*
X88900Y234950D02*
X95250Y241300D01*
X107950Y241300D01*
X114300Y234950D01*
X139700Y234950D02*
X139700Y222250D01*
X133350Y215900D01*
X139700Y234950D02*
X133350Y241300D01*
X120650Y241300D01*
X88900Y234950D02*
X88900Y222250D01*
X120650Y241300D02*
X133350Y241300D01*
X120650Y241300D02*
X114300Y247650D01*
X114300Y260350D02*
X120650Y266700D01*
X114300Y247650D02*
X107950Y241300D01*
X95250Y241300D01*
X88900Y247650D01*
X88900Y260350D02*
X95250Y266700D01*
X107950Y266700D01*
X114300Y260350D01*
X139700Y260350D02*
X139700Y247650D01*
X133350Y241300D01*
X139700Y260350D02*
X133350Y266700D01*
X120650Y266700D01*
X88900Y260350D02*
X88900Y247650D01*
X317500Y323850D02*
X317500Y336550D01*
X323850Y342900D01*
X336550Y342900D02*
X342900Y336550D01*
X323850Y342900D02*
X317500Y349250D01*
X317500Y361950D01*
X323850Y368300D01*
X336550Y368300D02*
X342900Y361950D01*
X342900Y349250D01*
X336550Y342900D01*
X336550Y317500D02*
X323850Y317500D01*
X317500Y323850D01*
X336550Y317500D02*
X342900Y323850D01*
X342900Y336550D01*
X336550Y368300D02*
X323850Y368300D01*
X342900Y336550D02*
X342900Y323850D01*
X342900Y336550D02*
X349250Y342900D01*
X361950Y342900D02*
X368300Y336550D01*
X349250Y342900D02*
X342900Y349250D01*
X342900Y361950D01*
X349250Y368300D01*
X361950Y368300D02*
X368300Y361950D01*
X368300Y349250D01*
X361950Y342900D01*
X361950Y317500D02*
X349250Y317500D01*
X342900Y323850D01*
X361950Y317500D02*
X368300Y323850D01*
X368300Y336550D01*
X361950Y368300D02*
X349250Y368300D01*
X565150Y266700D02*
X577850Y266700D01*
X584200Y260350D01*
X584200Y247650D02*
X577850Y241300D01*
X584200Y260350D02*
X590550Y266700D01*
X603250Y266700D01*
X609600Y260350D01*
X609600Y247650D02*
X603250Y241300D01*
X590550Y241300D01*
X584200Y247650D01*
X558800Y247650D02*
X558800Y260350D01*
X565150Y266700D01*
X558800Y247650D02*
X565150Y241300D01*
X577850Y241300D01*
X609600Y247650D02*
X609600Y260350D01*
X577850Y241300D02*
X565150Y241300D01*
X577850Y241300D02*
X584200Y234950D01*
X584200Y222250D02*
X577850Y215900D01*
X584200Y234950D02*
X590550Y241300D01*
X603250Y241300D01*
X609600Y234950D01*
X609600Y222250D02*
X603250Y215900D01*
X590550Y215900D01*
X584200Y222250D01*
X558800Y222250D02*
X558800Y234950D01*
X565150Y241300D01*
X558800Y222250D02*
X565150Y215900D01*
X577850Y215900D01*
X609600Y222250D02*
X609600Y234950D01*
X368300Y146050D02*
X368300Y133350D01*
X361950Y127000D01*
X349250Y127000D02*
X342900Y133350D01*
X361950Y127000D02*
X368300Y120650D01*
X368300Y107950D01*
X361950Y101600D01*
X349250Y101600D02*
X342900Y107950D01*
X342900Y120650D01*
X349250Y127000D01*
X349250Y152400D02*
X361950Y152400D01*
X368300Y146050D01*
X349250Y152400D02*
X342900Y146050D01*
X342900Y133350D01*
X349250Y101600D02*
X361950Y101600D01*
X342900Y133350D02*
X342900Y146050D01*
X342900Y133350D02*
X336550Y127000D01*
X323850Y127000D02*
X317500Y133350D01*
X336550Y127000D02*
X342900Y120650D01*
X342900Y107950D01*
X336550Y101600D01*
X323850Y101600D02*
X317500Y107950D01*
X317500Y120650D01*
X323850Y127000D01*
X323850Y152400D02*
X336550Y152400D01*
X342900Y146050D01*
X323850Y152400D02*
X317500Y146050D01*
X317500Y133350D01*
X323850Y101600D02*
X336550Y101600D01*
M02*
