G04 EAGLE Gerber X2 export*
G75*
%MOMM*%
%FSLAX34Y34*%
%LPD*%
%AMOC8*
5,1,8,0,0,1.08239X$1,22.5*%
G01*
%ADD10C,0.254000*%


D10*
X0Y30000D02*
X114Y27385D01*
X456Y24791D01*
X1022Y22235D01*
X1809Y19739D01*
X2811Y17321D01*
X4019Y15000D01*
X5425Y12793D01*
X7019Y10716D01*
X8787Y8787D01*
X10716Y7019D01*
X12793Y5425D01*
X15000Y4019D01*
X17321Y2811D01*
X19739Y1809D01*
X22235Y1022D01*
X24791Y456D01*
X27385Y114D01*
X30000Y0D01*
X620000Y0D01*
X622615Y114D01*
X625209Y456D01*
X627765Y1022D01*
X630261Y1809D01*
X632679Y2811D01*
X635000Y4019D01*
X637207Y5425D01*
X639284Y7019D01*
X641213Y8787D01*
X642981Y10716D01*
X644575Y12793D01*
X645981Y15000D01*
X647189Y17321D01*
X648191Y19739D01*
X648978Y22235D01*
X649544Y24791D01*
X649886Y27385D01*
X650000Y30000D01*
X650000Y535000D01*
X649886Y537615D01*
X649544Y540209D01*
X648978Y542765D01*
X648191Y545261D01*
X647189Y547679D01*
X645981Y550000D01*
X644575Y552207D01*
X642981Y554284D01*
X641213Y556213D01*
X639284Y557981D01*
X637207Y559575D01*
X635000Y560981D01*
X632679Y562189D01*
X630261Y563191D01*
X627765Y563978D01*
X625209Y564544D01*
X622615Y564886D01*
X620000Y565000D01*
X30000Y565000D01*
X27385Y564886D01*
X24791Y564544D01*
X22235Y563978D01*
X19739Y563191D01*
X17321Y562189D01*
X15000Y560981D01*
X12793Y559575D01*
X10716Y557981D01*
X8787Y556213D01*
X7019Y554284D01*
X5425Y552207D01*
X4019Y550000D01*
X2811Y547679D01*
X1809Y545261D01*
X1022Y542765D01*
X456Y540209D01*
X114Y537615D01*
X0Y535000D01*
X0Y30000D01*
X440690Y38100D02*
X440714Y37547D01*
X440786Y36997D01*
X440906Y36457D01*
X441073Y35928D01*
X441285Y35416D01*
X441541Y34925D01*
X441838Y34458D01*
X442176Y34018D01*
X442550Y33610D01*
X442958Y33236D01*
X443398Y32898D01*
X443865Y32601D01*
X444356Y32345D01*
X444868Y32133D01*
X445397Y31966D01*
X445937Y31846D01*
X446487Y31774D01*
X447040Y31750D01*
X453390Y31750D01*
X453943Y31774D01*
X454493Y31846D01*
X455034Y31966D01*
X455562Y32133D01*
X456074Y32345D01*
X456565Y32601D01*
X457032Y32898D01*
X457472Y33236D01*
X457880Y33610D01*
X458254Y34018D01*
X458592Y34458D01*
X458889Y34925D01*
X459145Y35416D01*
X459357Y35928D01*
X459524Y36457D01*
X459644Y36997D01*
X459716Y37547D01*
X459740Y38100D01*
X459740Y193040D01*
X459716Y193593D01*
X459644Y194143D01*
X459524Y194684D01*
X459357Y195212D01*
X459145Y195724D01*
X458889Y196215D01*
X458592Y196682D01*
X458254Y197122D01*
X457880Y197530D01*
X457472Y197904D01*
X457032Y198242D01*
X456565Y198539D01*
X456074Y198795D01*
X455562Y199007D01*
X455034Y199174D01*
X454493Y199294D01*
X453943Y199366D01*
X453390Y199390D01*
X447040Y199390D01*
X446487Y199366D01*
X445937Y199294D01*
X445397Y199174D01*
X444868Y199007D01*
X444356Y198795D01*
X443865Y198539D01*
X443398Y198242D01*
X442958Y197904D01*
X442550Y197530D01*
X442176Y197122D01*
X441838Y196682D01*
X441541Y196215D01*
X441285Y195724D01*
X441073Y195212D01*
X440906Y194684D01*
X440786Y194143D01*
X440714Y193593D01*
X440690Y193040D01*
X440690Y38100D01*
X49000Y34500D02*
X48929Y33503D01*
X48786Y32513D01*
X48574Y31536D01*
X48292Y30576D01*
X47943Y29639D01*
X47527Y28729D01*
X47048Y27852D01*
X46507Y27010D01*
X45908Y26210D01*
X45253Y25454D01*
X44546Y24747D01*
X43790Y24092D01*
X42990Y23493D01*
X42148Y22952D01*
X41271Y22473D01*
X40361Y22057D01*
X39424Y21708D01*
X38465Y21426D01*
X37487Y21214D01*
X36498Y21071D01*
X35500Y21000D01*
X34500Y21000D01*
X33503Y21071D01*
X32513Y21214D01*
X31536Y21426D01*
X30576Y21708D01*
X29639Y22057D01*
X28729Y22473D01*
X27852Y22952D01*
X27010Y23493D01*
X26210Y24092D01*
X25454Y24747D01*
X24747Y25454D01*
X24092Y26210D01*
X23493Y27010D01*
X22952Y27852D01*
X22473Y28729D01*
X22057Y29639D01*
X21708Y30576D01*
X21426Y31536D01*
X21214Y32513D01*
X21071Y33503D01*
X21000Y34500D01*
X21000Y35500D01*
X21071Y36498D01*
X21214Y37487D01*
X21426Y38465D01*
X21708Y39424D01*
X22057Y40361D01*
X22473Y41271D01*
X22952Y42148D01*
X23493Y42990D01*
X24092Y43790D01*
X24747Y44546D01*
X25454Y45253D01*
X26210Y45908D01*
X27010Y46507D01*
X27852Y47048D01*
X28729Y47527D01*
X29639Y47943D01*
X30576Y48292D01*
X31536Y48574D01*
X32513Y48786D01*
X33503Y48929D01*
X34500Y49000D01*
X35500Y49000D01*
X36498Y48929D01*
X37487Y48786D01*
X38465Y48574D01*
X39424Y48292D01*
X40361Y47943D01*
X41271Y47527D01*
X42148Y47048D01*
X42990Y46507D01*
X43790Y45908D01*
X44546Y45253D01*
X45253Y44546D01*
X45908Y43790D01*
X46507Y42990D01*
X47048Y42148D01*
X47527Y41271D01*
X47943Y40361D01*
X48292Y39424D01*
X48574Y38465D01*
X48786Y37487D01*
X48929Y36498D01*
X49000Y35500D01*
X49000Y34500D01*
X49000Y524500D02*
X48929Y523503D01*
X48786Y522513D01*
X48574Y521536D01*
X48292Y520576D01*
X47943Y519639D01*
X47527Y518729D01*
X47048Y517852D01*
X46507Y517010D01*
X45908Y516210D01*
X45253Y515454D01*
X44546Y514747D01*
X43790Y514092D01*
X42990Y513493D01*
X42148Y512952D01*
X41271Y512473D01*
X40361Y512057D01*
X39424Y511708D01*
X38465Y511426D01*
X37487Y511214D01*
X36498Y511071D01*
X35500Y511000D01*
X34500Y511000D01*
X33503Y511071D01*
X32513Y511214D01*
X31536Y511426D01*
X30576Y511708D01*
X29639Y512057D01*
X28729Y512473D01*
X27852Y512952D01*
X27010Y513493D01*
X26210Y514092D01*
X25454Y514747D01*
X24747Y515454D01*
X24092Y516210D01*
X23493Y517010D01*
X22952Y517852D01*
X22473Y518729D01*
X22057Y519639D01*
X21708Y520576D01*
X21426Y521536D01*
X21214Y522513D01*
X21071Y523503D01*
X21000Y524500D01*
X21000Y525500D01*
X21071Y526498D01*
X21214Y527487D01*
X21426Y528465D01*
X21708Y529424D01*
X22057Y530361D01*
X22473Y531271D01*
X22952Y532148D01*
X23493Y532990D01*
X24092Y533790D01*
X24747Y534546D01*
X25454Y535253D01*
X26210Y535908D01*
X27010Y536507D01*
X27852Y537048D01*
X28729Y537527D01*
X29639Y537943D01*
X30576Y538292D01*
X31536Y538574D01*
X32513Y538786D01*
X33503Y538929D01*
X34500Y539000D01*
X35500Y539000D01*
X36498Y538929D01*
X37487Y538786D01*
X38465Y538574D01*
X39424Y538292D01*
X40361Y537943D01*
X41271Y537527D01*
X42148Y537048D01*
X42990Y536507D01*
X43790Y535908D01*
X44546Y535253D01*
X45253Y534546D01*
X45908Y533790D01*
X46507Y532990D01*
X47048Y532148D01*
X47527Y531271D01*
X47943Y530361D01*
X48292Y529424D01*
X48574Y528465D01*
X48786Y527487D01*
X48929Y526498D01*
X49000Y525500D01*
X49000Y524500D01*
X629000Y524500D02*
X628929Y523503D01*
X628786Y522513D01*
X628574Y521536D01*
X628292Y520576D01*
X627943Y519639D01*
X627527Y518729D01*
X627048Y517852D01*
X626507Y517010D01*
X625908Y516210D01*
X625253Y515454D01*
X624546Y514747D01*
X623790Y514092D01*
X622990Y513493D01*
X622148Y512952D01*
X621271Y512473D01*
X620361Y512057D01*
X619424Y511708D01*
X618465Y511426D01*
X617487Y511214D01*
X616498Y511071D01*
X615500Y511000D01*
X614500Y511000D01*
X613503Y511071D01*
X612513Y511214D01*
X611536Y511426D01*
X610576Y511708D01*
X609639Y512057D01*
X608729Y512473D01*
X607852Y512952D01*
X607010Y513493D01*
X606210Y514092D01*
X605454Y514747D01*
X604747Y515454D01*
X604092Y516210D01*
X603493Y517010D01*
X602952Y517852D01*
X602473Y518729D01*
X602057Y519639D01*
X601708Y520576D01*
X601426Y521536D01*
X601214Y522513D01*
X601071Y523503D01*
X601000Y524500D01*
X601000Y525500D01*
X601071Y526498D01*
X601214Y527487D01*
X601426Y528465D01*
X601708Y529424D01*
X602057Y530361D01*
X602473Y531271D01*
X602952Y532148D01*
X603493Y532990D01*
X604092Y533790D01*
X604747Y534546D01*
X605454Y535253D01*
X606210Y535908D01*
X607010Y536507D01*
X607852Y537048D01*
X608729Y537527D01*
X609639Y537943D01*
X610576Y538292D01*
X611536Y538574D01*
X612513Y538786D01*
X613503Y538929D01*
X614500Y539000D01*
X615500Y539000D01*
X616498Y538929D01*
X617487Y538786D01*
X618465Y538574D01*
X619424Y538292D01*
X620361Y537943D01*
X621271Y537527D01*
X622148Y537048D01*
X622990Y536507D01*
X623790Y535908D01*
X624546Y535253D01*
X625253Y534546D01*
X625908Y533790D01*
X626507Y532990D01*
X627048Y532148D01*
X627527Y531271D01*
X627943Y530361D01*
X628292Y529424D01*
X628574Y528465D01*
X628786Y527487D01*
X628929Y526498D01*
X629000Y525500D01*
X629000Y524500D01*
X629000Y34500D02*
X628929Y33503D01*
X628786Y32513D01*
X628574Y31536D01*
X628292Y30576D01*
X627943Y29639D01*
X627527Y28729D01*
X627048Y27852D01*
X626507Y27010D01*
X625908Y26210D01*
X625253Y25454D01*
X624546Y24747D01*
X623790Y24092D01*
X622990Y23493D01*
X622148Y22952D01*
X621271Y22473D01*
X620361Y22057D01*
X619424Y21708D01*
X618465Y21426D01*
X617487Y21214D01*
X616498Y21071D01*
X615500Y21000D01*
X614500Y21000D01*
X613503Y21071D01*
X612513Y21214D01*
X611536Y21426D01*
X610576Y21708D01*
X609639Y22057D01*
X608729Y22473D01*
X607852Y22952D01*
X607010Y23493D01*
X606210Y24092D01*
X605454Y24747D01*
X604747Y25454D01*
X604092Y26210D01*
X603493Y27010D01*
X602952Y27852D01*
X602473Y28729D01*
X602057Y29639D01*
X601708Y30576D01*
X601426Y31536D01*
X601214Y32513D01*
X601071Y33503D01*
X601000Y34500D01*
X601000Y35500D01*
X601071Y36498D01*
X601214Y37487D01*
X601426Y38465D01*
X601708Y39424D01*
X602057Y40361D01*
X602473Y41271D01*
X602952Y42148D01*
X603493Y42990D01*
X604092Y43790D01*
X604747Y44546D01*
X605454Y45253D01*
X606210Y45908D01*
X607010Y46507D01*
X607852Y47048D01*
X608729Y47527D01*
X609639Y47943D01*
X610576Y48292D01*
X611536Y48574D01*
X612513Y48786D01*
X613503Y48929D01*
X614500Y49000D01*
X615500Y49000D01*
X616498Y48929D01*
X617487Y48786D01*
X618465Y48574D01*
X619424Y48292D01*
X620361Y47943D01*
X621271Y47527D01*
X622148Y47048D01*
X622990Y46507D01*
X623790Y45908D01*
X624546Y45253D01*
X625253Y44546D01*
X625908Y43790D01*
X626507Y42990D01*
X627048Y42148D01*
X627527Y41271D01*
X627943Y40361D01*
X628292Y39424D01*
X628574Y38465D01*
X628786Y37487D01*
X628929Y36498D01*
X629000Y35500D01*
X629000Y34500D01*
M02*
