G04 EAGLE Gerber X2 export*
G75*
%MOMM*%
%FSLAX34Y34*%
%LPD*%
%AMOC8*
5,1,8,0,0,1.08239X$1,22.5*%
G01*
%ADD10C,1.676400*%
%ADD11R,2.200000X0.600000*%
%ADD12R,1.300000X1.500000*%
%ADD13R,1.500000X1.300000*%
%ADD14R,1.168400X1.600200*%
%ADD15R,0.635000X0.203200*%
%ADD16C,1.000000*%
%ADD17C,1.879600*%
%ADD18C,1.930400*%
%ADD19C,0.304800*%
%ADD20C,0.508000*%
%ADD21C,0.254000*%
%ADD22C,0.800100*%

G36*
X454796Y2556D02*
X454796Y2556D01*
X454891Y2565D01*
X454917Y2576D01*
X454945Y2580D01*
X455029Y2625D01*
X455116Y2663D01*
X455137Y2682D01*
X455162Y2696D01*
X455227Y2765D01*
X455298Y2829D01*
X455312Y2853D01*
X455331Y2874D01*
X455372Y2961D01*
X455418Y3044D01*
X455423Y3071D01*
X455435Y3097D01*
X455445Y3192D01*
X455463Y3286D01*
X455459Y3313D01*
X455462Y3341D01*
X455442Y3435D01*
X455428Y3529D01*
X455414Y3561D01*
X455410Y3582D01*
X455393Y3610D01*
X455361Y3683D01*
X455340Y3718D01*
X455167Y4365D01*
X455167Y11177D01*
X462788Y11177D01*
X462808Y11180D01*
X462827Y11178D01*
X462929Y11200D01*
X463031Y11217D01*
X463048Y11226D01*
X463068Y11230D01*
X463157Y11283D01*
X463248Y11332D01*
X463262Y11346D01*
X463279Y11356D01*
X463346Y11435D01*
X463417Y11510D01*
X463426Y11528D01*
X463439Y11543D01*
X463478Y11639D01*
X463521Y11733D01*
X463523Y11753D01*
X463531Y11771D01*
X463549Y11938D01*
X463549Y12701D01*
X464312Y12701D01*
X464332Y12704D01*
X464351Y12702D01*
X464453Y12724D01*
X464555Y12741D01*
X464572Y12750D01*
X464592Y12754D01*
X464681Y12807D01*
X464772Y12856D01*
X464786Y12870D01*
X464803Y12880D01*
X464870Y12959D01*
X464941Y13034D01*
X464950Y13052D01*
X464963Y13067D01*
X465002Y13163D01*
X465045Y13257D01*
X465047Y13277D01*
X465055Y13295D01*
X465073Y13462D01*
X465073Y23242D01*
X469807Y23242D01*
X469878Y23253D01*
X469950Y23255D01*
X469999Y23273D01*
X470050Y23281D01*
X470113Y23315D01*
X470181Y23340D01*
X470221Y23372D01*
X470267Y23397D01*
X470317Y23449D01*
X470373Y23493D01*
X470401Y23537D01*
X470437Y23575D01*
X470467Y23640D01*
X470506Y23700D01*
X470519Y23751D01*
X470540Y23798D01*
X470548Y23869D01*
X470566Y23939D01*
X470562Y23991D01*
X470568Y24042D01*
X470552Y24113D01*
X470547Y24184D01*
X470526Y24232D01*
X470515Y24283D01*
X470478Y24344D01*
X470450Y24410D01*
X470406Y24466D01*
X470389Y24494D01*
X470371Y24509D01*
X470346Y24541D01*
X470237Y24650D01*
X469902Y25229D01*
X469729Y25876D01*
X469729Y27711D01*
X482532Y27711D01*
X482551Y27714D01*
X482571Y27712D01*
X482673Y27734D01*
X482775Y27750D01*
X482792Y27760D01*
X482812Y27764D01*
X482901Y27817D01*
X482992Y27866D01*
X483006Y27880D01*
X483023Y27890D01*
X483090Y27969D01*
X483161Y28044D01*
X483170Y28062D01*
X483183Y28077D01*
X483221Y28173D01*
X483265Y28267D01*
X483267Y28287D01*
X483274Y28305D01*
X483287Y28229D01*
X483296Y28212D01*
X483300Y28192D01*
X483353Y28103D01*
X483402Y28012D01*
X483416Y27998D01*
X483426Y27981D01*
X483505Y27914D01*
X483580Y27842D01*
X483598Y27834D01*
X483613Y27821D01*
X483710Y27782D01*
X483803Y27739D01*
X483823Y27737D01*
X483841Y27729D01*
X484008Y27711D01*
X496811Y27711D01*
X496811Y25876D01*
X496638Y25229D01*
X496303Y24650D01*
X495830Y24177D01*
X495251Y23842D01*
X494828Y23729D01*
X494807Y23719D01*
X494783Y23715D01*
X494695Y23669D01*
X494604Y23628D01*
X494587Y23612D01*
X494565Y23600D01*
X494497Y23529D01*
X494424Y23461D01*
X494413Y23440D01*
X494396Y23422D01*
X494354Y23332D01*
X494307Y23245D01*
X494303Y23221D01*
X494292Y23199D01*
X494281Y23100D01*
X494264Y23002D01*
X494268Y22978D01*
X494265Y22955D01*
X494286Y22858D01*
X494301Y22759D01*
X494312Y22738D01*
X494318Y22714D01*
X494368Y22629D01*
X494414Y22540D01*
X494431Y22524D01*
X494444Y22503D01*
X494519Y22438D01*
X494591Y22369D01*
X494612Y22359D01*
X494631Y22343D01*
X494723Y22306D01*
X494813Y22263D01*
X494836Y22260D01*
X494859Y22251D01*
X495025Y22233D01*
X497586Y22233D01*
X497606Y22236D01*
X497625Y22234D01*
X497727Y22256D01*
X497829Y22272D01*
X497846Y22282D01*
X497866Y22286D01*
X497955Y22339D01*
X498046Y22388D01*
X498060Y22402D01*
X498077Y22412D01*
X498144Y22491D01*
X498216Y22566D01*
X498224Y22584D01*
X498237Y22599D01*
X498276Y22695D01*
X498319Y22789D01*
X498321Y22809D01*
X498329Y22827D01*
X498347Y22994D01*
X498347Y49628D01*
X505362Y56643D01*
X521476Y56643D01*
X521496Y56646D01*
X521515Y56644D01*
X521617Y56666D01*
X521719Y56682D01*
X521736Y56692D01*
X521756Y56696D01*
X521845Y56749D01*
X521936Y56798D01*
X521950Y56812D01*
X521967Y56822D01*
X522034Y56901D01*
X522106Y56976D01*
X522114Y56994D01*
X522127Y57009D01*
X522166Y57105D01*
X522209Y57199D01*
X522211Y57219D01*
X522219Y57237D01*
X522237Y57404D01*
X522237Y58452D01*
X523428Y59643D01*
X547112Y59643D01*
X548303Y58452D01*
X548303Y50768D01*
X547112Y49577D01*
X523428Y49577D01*
X523191Y49814D01*
X523117Y49867D01*
X523048Y49927D01*
X523017Y49939D01*
X522991Y49958D01*
X522904Y49985D01*
X522819Y50019D01*
X522778Y50023D01*
X522756Y50030D01*
X522724Y50029D01*
X522653Y50037D01*
X508413Y50037D01*
X508323Y50023D01*
X508232Y50015D01*
X508203Y50003D01*
X508171Y49998D01*
X508090Y49955D01*
X508006Y49919D01*
X507974Y49893D01*
X507953Y49882D01*
X507931Y49859D01*
X507875Y49814D01*
X505176Y47115D01*
X505123Y47041D01*
X505063Y46972D01*
X505051Y46941D01*
X505032Y46915D01*
X505005Y46828D01*
X504971Y46743D01*
X504967Y46702D01*
X504960Y46680D01*
X504961Y46648D01*
X504953Y46577D01*
X504953Y22167D01*
X504967Y22077D01*
X504975Y21986D01*
X504987Y21957D01*
X504992Y21925D01*
X505035Y21844D01*
X505071Y21760D01*
X505097Y21728D01*
X505108Y21707D01*
X505131Y21685D01*
X505176Y21629D01*
X505763Y21042D01*
X505763Y4358D01*
X505245Y3840D01*
X505203Y3782D01*
X505154Y3730D01*
X505132Y3683D01*
X505101Y3641D01*
X505080Y3572D01*
X505050Y3507D01*
X505044Y3455D01*
X505029Y3405D01*
X505031Y3334D01*
X505023Y3263D01*
X505034Y3212D01*
X505035Y3160D01*
X505060Y3092D01*
X505075Y3022D01*
X505102Y2977D01*
X505120Y2929D01*
X505165Y2873D01*
X505201Y2811D01*
X505241Y2777D01*
X505274Y2737D01*
X505334Y2698D01*
X505388Y2651D01*
X505437Y2632D01*
X505481Y2604D01*
X505550Y2586D01*
X505617Y2559D01*
X505688Y2551D01*
X505719Y2543D01*
X505742Y2545D01*
X505783Y2541D01*
X507677Y2541D01*
X507747Y2552D01*
X507819Y2554D01*
X507868Y2572D01*
X507919Y2580D01*
X507983Y2614D01*
X508050Y2639D01*
X508091Y2671D01*
X508137Y2696D01*
X508186Y2748D01*
X508242Y2792D01*
X508270Y2836D01*
X508306Y2874D01*
X508336Y2939D01*
X508375Y2999D01*
X508388Y3050D01*
X508410Y3097D01*
X508418Y3168D01*
X508435Y3238D01*
X508431Y3290D01*
X508437Y3341D01*
X508422Y3412D01*
X508416Y3483D01*
X508396Y3531D01*
X508385Y3582D01*
X508348Y3643D01*
X508320Y3709D01*
X508275Y3765D01*
X508259Y3793D01*
X508241Y3808D01*
X508215Y3840D01*
X507697Y4358D01*
X507697Y21042D01*
X508888Y22233D01*
X510286Y22233D01*
X510306Y22236D01*
X510325Y22234D01*
X510427Y22256D01*
X510529Y22272D01*
X510546Y22282D01*
X510566Y22286D01*
X510655Y22339D01*
X510746Y22388D01*
X510760Y22402D01*
X510777Y22412D01*
X510844Y22491D01*
X510916Y22566D01*
X510924Y22584D01*
X510937Y22599D01*
X510976Y22695D01*
X511019Y22789D01*
X511021Y22809D01*
X511029Y22827D01*
X511047Y22994D01*
X511047Y32555D01*
X511033Y32645D01*
X511025Y32736D01*
X511013Y32766D01*
X511008Y32798D01*
X510965Y32879D01*
X510929Y32962D01*
X510903Y32995D01*
X510892Y33015D01*
X510869Y33037D01*
X510824Y33093D01*
X509235Y34682D01*
X508317Y36900D01*
X508317Y39300D01*
X509235Y41518D01*
X510932Y43215D01*
X513150Y44133D01*
X515550Y44133D01*
X517768Y43215D01*
X519465Y41518D01*
X520383Y39300D01*
X520383Y36900D01*
X519465Y34682D01*
X517876Y33093D01*
X517823Y33019D01*
X517763Y32950D01*
X517751Y32920D01*
X517732Y32894D01*
X517705Y32807D01*
X517671Y32722D01*
X517667Y32681D01*
X517660Y32659D01*
X517661Y32626D01*
X517653Y32555D01*
X517653Y22994D01*
X517656Y22974D01*
X517654Y22955D01*
X517676Y22853D01*
X517692Y22751D01*
X517702Y22734D01*
X517706Y22714D01*
X517759Y22625D01*
X517808Y22534D01*
X517822Y22520D01*
X517832Y22503D01*
X517911Y22436D01*
X517986Y22364D01*
X518004Y22356D01*
X518019Y22343D01*
X518115Y22304D01*
X518209Y22261D01*
X518229Y22259D01*
X518247Y22251D01*
X518414Y22233D01*
X523572Y22233D01*
X524763Y21042D01*
X524763Y16764D01*
X524766Y16744D01*
X524764Y16725D01*
X524786Y16623D01*
X524802Y16521D01*
X524812Y16504D01*
X524816Y16484D01*
X524869Y16395D01*
X524918Y16304D01*
X524932Y16290D01*
X524942Y16273D01*
X525021Y16206D01*
X525096Y16134D01*
X525114Y16126D01*
X525129Y16113D01*
X525225Y16074D01*
X525319Y16031D01*
X525339Y16029D01*
X525357Y16021D01*
X525524Y16003D01*
X526036Y16003D01*
X526056Y16006D01*
X526075Y16004D01*
X526177Y16026D01*
X526279Y16042D01*
X526296Y16052D01*
X526316Y16056D01*
X526405Y16109D01*
X526496Y16158D01*
X526510Y16172D01*
X526527Y16182D01*
X526594Y16261D01*
X526666Y16336D01*
X526674Y16354D01*
X526687Y16369D01*
X526726Y16465D01*
X526769Y16559D01*
X526771Y16579D01*
X526779Y16597D01*
X526797Y16764D01*
X526797Y21042D01*
X527988Y22233D01*
X542672Y22233D01*
X543863Y21042D01*
X543863Y4358D01*
X543345Y3840D01*
X543303Y3782D01*
X543254Y3730D01*
X543232Y3683D01*
X543201Y3641D01*
X543180Y3572D01*
X543150Y3507D01*
X543144Y3455D01*
X543129Y3405D01*
X543131Y3334D01*
X543123Y3263D01*
X543134Y3212D01*
X543135Y3160D01*
X543160Y3092D01*
X543175Y3022D01*
X543202Y2977D01*
X543220Y2929D01*
X543265Y2873D01*
X543301Y2811D01*
X543341Y2777D01*
X543374Y2737D01*
X543434Y2698D01*
X543488Y2651D01*
X543537Y2632D01*
X543581Y2604D01*
X543650Y2586D01*
X543717Y2559D01*
X543788Y2551D01*
X543819Y2543D01*
X543842Y2545D01*
X543883Y2541D01*
X545777Y2541D01*
X545847Y2552D01*
X545919Y2554D01*
X545968Y2572D01*
X546019Y2580D01*
X546083Y2614D01*
X546150Y2639D01*
X546191Y2671D01*
X546237Y2696D01*
X546286Y2748D01*
X546342Y2792D01*
X546370Y2836D01*
X546406Y2874D01*
X546436Y2939D01*
X546475Y2999D01*
X546488Y3050D01*
X546510Y3097D01*
X546518Y3168D01*
X546535Y3238D01*
X546531Y3290D01*
X546537Y3341D01*
X546522Y3412D01*
X546516Y3483D01*
X546496Y3531D01*
X546485Y3582D01*
X546448Y3643D01*
X546420Y3709D01*
X546375Y3765D01*
X546359Y3793D01*
X546341Y3808D01*
X546315Y3840D01*
X545797Y4358D01*
X545797Y21042D01*
X546988Y22233D01*
X553466Y22233D01*
X553486Y22236D01*
X553505Y22234D01*
X553607Y22256D01*
X553709Y22272D01*
X553726Y22282D01*
X553746Y22286D01*
X553835Y22339D01*
X553926Y22388D01*
X553940Y22402D01*
X553957Y22412D01*
X554024Y22491D01*
X554096Y22566D01*
X554104Y22584D01*
X554117Y22599D01*
X554156Y22695D01*
X554199Y22789D01*
X554201Y22809D01*
X554209Y22827D01*
X554227Y22994D01*
X554227Y25146D01*
X554224Y25166D01*
X554226Y25185D01*
X554204Y25287D01*
X554188Y25389D01*
X554178Y25406D01*
X554174Y25426D01*
X554121Y25515D01*
X554072Y25606D01*
X554058Y25620D01*
X554048Y25637D01*
X553969Y25704D01*
X553894Y25776D01*
X553876Y25784D01*
X553861Y25797D01*
X553765Y25836D01*
X553671Y25879D01*
X553651Y25881D01*
X553633Y25889D01*
X553466Y25907D01*
X549064Y25907D01*
X549044Y25904D01*
X549025Y25906D01*
X548923Y25884D01*
X548821Y25868D01*
X548804Y25858D01*
X548784Y25854D01*
X548695Y25801D01*
X548604Y25752D01*
X548590Y25738D01*
X548573Y25728D01*
X548506Y25649D01*
X548434Y25574D01*
X548426Y25556D01*
X548413Y25541D01*
X548374Y25445D01*
X548370Y25435D01*
X547112Y24177D01*
X523428Y24177D01*
X522237Y25368D01*
X522237Y33052D01*
X523428Y34243D01*
X547112Y34243D01*
X548355Y33000D01*
X548356Y32994D01*
X548409Y32905D01*
X548458Y32814D01*
X548472Y32800D01*
X548482Y32783D01*
X548561Y32716D01*
X548636Y32644D01*
X548654Y32636D01*
X548669Y32623D01*
X548765Y32584D01*
X548859Y32541D01*
X548879Y32539D01*
X548897Y32531D01*
X549064Y32513D01*
X557628Y32513D01*
X560833Y29308D01*
X560833Y22994D01*
X560836Y22974D01*
X560834Y22955D01*
X560856Y22853D01*
X560872Y22751D01*
X560882Y22734D01*
X560886Y22714D01*
X560939Y22625D01*
X560988Y22534D01*
X561002Y22520D01*
X561012Y22503D01*
X561091Y22436D01*
X561166Y22364D01*
X561184Y22356D01*
X561199Y22343D01*
X561295Y22304D01*
X561389Y22261D01*
X561409Y22259D01*
X561427Y22251D01*
X561594Y22233D01*
X561672Y22233D01*
X562863Y21042D01*
X562863Y16764D01*
X562866Y16744D01*
X562864Y16725D01*
X562886Y16623D01*
X562902Y16521D01*
X562912Y16504D01*
X562916Y16484D01*
X562969Y16395D01*
X563018Y16304D01*
X563032Y16290D01*
X563042Y16273D01*
X563121Y16206D01*
X563196Y16134D01*
X563214Y16126D01*
X563229Y16113D01*
X563325Y16074D01*
X563419Y16031D01*
X563439Y16029D01*
X563457Y16021D01*
X563624Y16003D01*
X564777Y16003D01*
X564892Y16022D01*
X565008Y16039D01*
X565014Y16041D01*
X565020Y16042D01*
X565122Y16097D01*
X565227Y16150D01*
X565232Y16155D01*
X565237Y16158D01*
X565317Y16242D01*
X565399Y16326D01*
X565403Y16332D01*
X565406Y16336D01*
X565414Y16353D01*
X565480Y16473D01*
X566385Y18658D01*
X568082Y20355D01*
X570300Y21273D01*
X572700Y21273D01*
X574918Y20355D01*
X576615Y18658D01*
X577533Y16440D01*
X577533Y14040D01*
X576615Y11822D01*
X574918Y10125D01*
X572700Y9207D01*
X570300Y9207D01*
X569980Y9339D01*
X569916Y9354D01*
X569855Y9379D01*
X569773Y9388D01*
X569740Y9395D01*
X569721Y9394D01*
X569689Y9397D01*
X563624Y9397D01*
X563604Y9394D01*
X563585Y9396D01*
X563483Y9374D01*
X563381Y9358D01*
X563364Y9348D01*
X563344Y9344D01*
X563255Y9291D01*
X563164Y9242D01*
X563150Y9228D01*
X563133Y9218D01*
X563066Y9139D01*
X562994Y9064D01*
X562986Y9046D01*
X562973Y9031D01*
X562934Y8935D01*
X562891Y8841D01*
X562889Y8821D01*
X562881Y8803D01*
X562863Y8636D01*
X562863Y4358D01*
X562345Y3840D01*
X562303Y3782D01*
X562254Y3730D01*
X562232Y3683D01*
X562201Y3641D01*
X562180Y3572D01*
X562150Y3507D01*
X562144Y3455D01*
X562129Y3405D01*
X562131Y3334D01*
X562123Y3263D01*
X562134Y3212D01*
X562135Y3160D01*
X562160Y3092D01*
X562175Y3022D01*
X562202Y2977D01*
X562220Y2929D01*
X562265Y2873D01*
X562301Y2811D01*
X562341Y2777D01*
X562374Y2737D01*
X562434Y2698D01*
X562488Y2651D01*
X562537Y2632D01*
X562581Y2604D01*
X562650Y2586D01*
X562717Y2559D01*
X562788Y2551D01*
X562819Y2543D01*
X562842Y2545D01*
X562883Y2541D01*
X610580Y2541D01*
X610604Y2545D01*
X610628Y2542D01*
X610725Y2564D01*
X610823Y2580D01*
X610844Y2592D01*
X610867Y2597D01*
X610952Y2649D01*
X611040Y2696D01*
X611057Y2713D01*
X611077Y2726D01*
X611141Y2802D01*
X611209Y2874D01*
X611219Y2896D01*
X611235Y2914D01*
X611271Y3007D01*
X611313Y3097D01*
X611316Y3121D01*
X611324Y3143D01*
X611329Y3243D01*
X611340Y3341D01*
X611335Y3365D01*
X611336Y3389D01*
X611309Y3485D01*
X611288Y3582D01*
X611275Y3602D01*
X611269Y3626D01*
X611213Y3708D01*
X611162Y3793D01*
X611143Y3809D01*
X611130Y3828D01*
X611050Y3888D01*
X610975Y3953D01*
X610952Y3962D01*
X610933Y3976D01*
X610777Y4037D01*
X603034Y6112D01*
X595965Y10193D01*
X590193Y15965D01*
X586112Y23034D01*
X583999Y30919D01*
X583999Y39081D01*
X586112Y46966D01*
X590193Y54035D01*
X595965Y59807D01*
X600780Y62587D01*
X600817Y62617D01*
X600860Y62640D01*
X600912Y62695D01*
X600971Y62743D01*
X600996Y62783D01*
X601029Y62818D01*
X601061Y62887D01*
X601101Y62951D01*
X601113Y62998D01*
X601133Y63041D01*
X601141Y63116D01*
X601159Y63190D01*
X601155Y63238D01*
X601160Y63285D01*
X601144Y63360D01*
X601137Y63435D01*
X601118Y63479D01*
X601108Y63526D01*
X601069Y63591D01*
X601038Y63660D01*
X601006Y63696D01*
X600981Y63737D01*
X600924Y63786D01*
X600873Y63842D01*
X600831Y63866D01*
X600794Y63897D01*
X600724Y63925D01*
X600658Y63962D01*
X600611Y63971D01*
X600566Y63989D01*
X600438Y64003D01*
X600416Y64007D01*
X600410Y64006D01*
X600400Y64007D01*
X594773Y64007D01*
X594683Y63993D01*
X594592Y63985D01*
X594563Y63973D01*
X594531Y63968D01*
X594450Y63925D01*
X594366Y63889D01*
X594334Y63863D01*
X594313Y63852D01*
X594291Y63829D01*
X594235Y63784D01*
X570988Y40537D01*
X570364Y40537D01*
X570344Y40534D01*
X570325Y40536D01*
X570223Y40514D01*
X570121Y40498D01*
X570104Y40488D01*
X570084Y40484D01*
X569995Y40431D01*
X569904Y40382D01*
X569890Y40368D01*
X569873Y40358D01*
X569806Y40279D01*
X569734Y40204D01*
X569726Y40186D01*
X569713Y40171D01*
X569674Y40075D01*
X569631Y39981D01*
X569629Y39961D01*
X569621Y39943D01*
X569603Y39776D01*
X569603Y36498D01*
X568412Y35307D01*
X551728Y35307D01*
X550537Y36498D01*
X550537Y37846D01*
X550534Y37866D01*
X550536Y37885D01*
X550514Y37987D01*
X550498Y38089D01*
X550488Y38106D01*
X550484Y38126D01*
X550431Y38215D01*
X550382Y38306D01*
X550368Y38320D01*
X550358Y38337D01*
X550279Y38404D01*
X550204Y38476D01*
X550186Y38484D01*
X550171Y38497D01*
X550075Y38536D01*
X549981Y38579D01*
X549961Y38581D01*
X549943Y38589D01*
X549776Y38607D01*
X549064Y38607D01*
X549044Y38604D01*
X549025Y38606D01*
X548923Y38584D01*
X548821Y38568D01*
X548804Y38558D01*
X548784Y38554D01*
X548695Y38501D01*
X548604Y38452D01*
X548590Y38438D01*
X548573Y38428D01*
X548506Y38349D01*
X548434Y38274D01*
X548426Y38256D01*
X548413Y38241D01*
X548374Y38145D01*
X548370Y38135D01*
X547112Y36877D01*
X523428Y36877D01*
X522237Y38068D01*
X522237Y45752D01*
X523428Y46943D01*
X547112Y46943D01*
X548355Y45700D01*
X548356Y45694D01*
X548409Y45605D01*
X548458Y45514D01*
X548472Y45500D01*
X548482Y45483D01*
X548561Y45416D01*
X548636Y45344D01*
X548654Y45336D01*
X548669Y45323D01*
X548765Y45284D01*
X548859Y45241D01*
X548879Y45239D01*
X548897Y45231D01*
X549064Y45213D01*
X549776Y45213D01*
X549796Y45216D01*
X549815Y45214D01*
X549917Y45236D01*
X550019Y45252D01*
X550036Y45262D01*
X550056Y45266D01*
X550145Y45319D01*
X550236Y45368D01*
X550250Y45382D01*
X550267Y45392D01*
X550334Y45471D01*
X550406Y45546D01*
X550414Y45564D01*
X550427Y45579D01*
X550466Y45675D01*
X550509Y45769D01*
X550511Y45789D01*
X550519Y45807D01*
X550537Y45974D01*
X550537Y51182D01*
X551728Y52373D01*
X568412Y52373D01*
X569603Y51182D01*
X569603Y50331D01*
X569614Y50261D01*
X569616Y50189D01*
X569634Y50140D01*
X569642Y50089D01*
X569676Y50025D01*
X569701Y49958D01*
X569733Y49917D01*
X569758Y49871D01*
X569810Y49822D01*
X569854Y49766D01*
X569898Y49738D01*
X569936Y49702D01*
X570001Y49672D01*
X570061Y49633D01*
X570112Y49620D01*
X570159Y49598D01*
X570230Y49590D01*
X570300Y49573D01*
X570352Y49577D01*
X570403Y49571D01*
X570474Y49586D01*
X570545Y49592D01*
X570593Y49612D01*
X570644Y49623D01*
X570705Y49660D01*
X570771Y49688D01*
X570827Y49733D01*
X570855Y49750D01*
X570870Y49767D01*
X570902Y49793D01*
X589564Y68455D01*
X590167Y69058D01*
X590209Y69116D01*
X590258Y69168D01*
X590280Y69215D01*
X590311Y69257D01*
X590332Y69326D01*
X590362Y69391D01*
X590368Y69443D01*
X590383Y69493D01*
X590381Y69564D01*
X590389Y69635D01*
X590378Y69686D01*
X590377Y69738D01*
X590352Y69806D01*
X590337Y69876D01*
X590310Y69921D01*
X590292Y69969D01*
X590247Y70025D01*
X590210Y70087D01*
X590171Y70121D01*
X590138Y70161D01*
X590078Y70200D01*
X590024Y70247D01*
X589975Y70266D01*
X589931Y70294D01*
X589862Y70312D01*
X589795Y70339D01*
X589724Y70347D01*
X589693Y70355D01*
X589670Y70353D01*
X589629Y70357D01*
X572573Y70357D01*
X572483Y70343D01*
X572392Y70335D01*
X572363Y70323D01*
X572331Y70318D01*
X572250Y70275D01*
X572166Y70239D01*
X572134Y70213D01*
X572113Y70202D01*
X572091Y70179D01*
X572035Y70134D01*
X569826Y67925D01*
X569773Y67851D01*
X569713Y67782D01*
X569701Y67751D01*
X569682Y67725D01*
X569655Y67638D01*
X569621Y67553D01*
X569617Y67512D01*
X569610Y67490D01*
X569611Y67458D01*
X569603Y67387D01*
X569603Y55498D01*
X568412Y54307D01*
X551728Y54307D01*
X550537Y55498D01*
X550537Y63246D01*
X550534Y63266D01*
X550536Y63285D01*
X550514Y63387D01*
X550498Y63489D01*
X550488Y63506D01*
X550484Y63526D01*
X550431Y63615D01*
X550382Y63706D01*
X550368Y63720D01*
X550358Y63737D01*
X550279Y63804D01*
X550204Y63876D01*
X550186Y63884D01*
X550171Y63897D01*
X550075Y63936D01*
X549981Y63979D01*
X549961Y63981D01*
X549943Y63989D01*
X549776Y64007D01*
X549064Y64007D01*
X549044Y64004D01*
X549025Y64006D01*
X548923Y63984D01*
X548821Y63968D01*
X548804Y63958D01*
X548784Y63954D01*
X548695Y63901D01*
X548604Y63852D01*
X548590Y63838D01*
X548573Y63828D01*
X548506Y63749D01*
X548434Y63674D01*
X548426Y63656D01*
X548413Y63641D01*
X548374Y63545D01*
X548370Y63535D01*
X547112Y62277D01*
X523428Y62277D01*
X522185Y63520D01*
X522184Y63526D01*
X522131Y63615D01*
X522082Y63706D01*
X522068Y63720D01*
X522058Y63737D01*
X521979Y63804D01*
X521904Y63876D01*
X521886Y63884D01*
X521871Y63897D01*
X521775Y63936D01*
X521681Y63979D01*
X521661Y63981D01*
X521643Y63989D01*
X521476Y64007D01*
X520547Y64007D01*
X520432Y63988D01*
X520316Y63971D01*
X520310Y63969D01*
X520304Y63968D01*
X520202Y63913D01*
X520097Y63860D01*
X520092Y63855D01*
X520087Y63852D01*
X520007Y63768D01*
X519925Y63684D01*
X519921Y63678D01*
X519917Y63674D01*
X519910Y63657D01*
X519844Y63537D01*
X519465Y62622D01*
X517768Y60925D01*
X515550Y60007D01*
X513150Y60007D01*
X510932Y60925D01*
X509235Y62622D01*
X508317Y64840D01*
X508317Y67240D01*
X509235Y69458D01*
X510932Y71155D01*
X513150Y72073D01*
X515550Y72073D01*
X517768Y71155D01*
X518087Y70836D01*
X518161Y70783D01*
X518230Y70723D01*
X518260Y70711D01*
X518286Y70692D01*
X518373Y70665D01*
X518458Y70631D01*
X518499Y70627D01*
X518521Y70620D01*
X518554Y70621D01*
X518625Y70613D01*
X521476Y70613D01*
X521496Y70616D01*
X521515Y70614D01*
X521617Y70636D01*
X521719Y70652D01*
X521736Y70662D01*
X521756Y70666D01*
X521845Y70719D01*
X521936Y70768D01*
X521950Y70782D01*
X521967Y70792D01*
X522034Y70871D01*
X522106Y70946D01*
X522114Y70964D01*
X522127Y70979D01*
X522166Y71075D01*
X522170Y71085D01*
X523428Y72343D01*
X547112Y72343D01*
X548355Y71100D01*
X548356Y71094D01*
X548409Y71005D01*
X548458Y70914D01*
X548472Y70900D01*
X548482Y70883D01*
X548561Y70816D01*
X548636Y70744D01*
X548654Y70736D01*
X548669Y70723D01*
X548765Y70684D01*
X548859Y70641D01*
X548879Y70639D01*
X548897Y70631D01*
X549064Y70613D01*
X550653Y70613D01*
X550743Y70627D01*
X550834Y70635D01*
X550863Y70647D01*
X550895Y70652D01*
X550976Y70695D01*
X551060Y70731D01*
X551092Y70757D01*
X551113Y70768D01*
X551135Y70791D01*
X551191Y70836D01*
X551728Y71373D01*
X563617Y71373D01*
X563707Y71387D01*
X563798Y71395D01*
X563827Y71407D01*
X563859Y71412D01*
X563940Y71455D01*
X564024Y71491D01*
X564056Y71517D01*
X564077Y71528D01*
X564099Y71551D01*
X564155Y71596D01*
X569522Y76963D01*
X628237Y76963D01*
X628327Y76977D01*
X628418Y76985D01*
X628447Y76997D01*
X628479Y77002D01*
X628560Y77045D01*
X628644Y77081D01*
X628676Y77107D01*
X628697Y77118D01*
X628719Y77141D01*
X628775Y77186D01*
X636554Y84965D01*
X636607Y85039D01*
X636667Y85108D01*
X636679Y85139D01*
X636698Y85165D01*
X636725Y85252D01*
X636747Y85307D01*
X636749Y85312D01*
X636749Y85313D01*
X636759Y85337D01*
X636763Y85378D01*
X636770Y85400D01*
X636769Y85432D01*
X636777Y85503D01*
X636777Y411405D01*
X636766Y411475D01*
X636764Y411547D01*
X636746Y411596D01*
X636738Y411648D01*
X636704Y411711D01*
X636679Y411778D01*
X636647Y411819D01*
X636622Y411865D01*
X636570Y411914D01*
X636526Y411970D01*
X636482Y411998D01*
X636444Y412034D01*
X636379Y412064D01*
X636319Y412103D01*
X636268Y412116D01*
X636221Y412138D01*
X636150Y412146D01*
X636080Y412163D01*
X636028Y412159D01*
X635977Y412165D01*
X635906Y412150D01*
X635835Y412144D01*
X635787Y412124D01*
X635736Y412113D01*
X635675Y412076D01*
X635609Y412048D01*
X635553Y412003D01*
X635525Y411987D01*
X635510Y411969D01*
X635478Y411943D01*
X632729Y409194D01*
X628434Y407415D01*
X623786Y407415D01*
X619491Y409194D01*
X616204Y412481D01*
X614425Y416776D01*
X614425Y421424D01*
X616204Y425719D01*
X619491Y429006D01*
X623786Y430785D01*
X628434Y430785D01*
X632729Y429006D01*
X636016Y425719D01*
X637195Y422873D01*
X637256Y422773D01*
X637316Y422673D01*
X637321Y422669D01*
X637324Y422664D01*
X637414Y422589D01*
X637503Y422513D01*
X637509Y422511D01*
X637514Y422507D01*
X637622Y422465D01*
X637731Y422421D01*
X637739Y422420D01*
X637743Y422419D01*
X637762Y422418D01*
X637898Y422403D01*
X638908Y422403D01*
X640558Y420753D01*
X640616Y420711D01*
X640668Y420662D01*
X640715Y420640D01*
X640757Y420609D01*
X640826Y420588D01*
X640891Y420558D01*
X640943Y420552D01*
X640993Y420537D01*
X641064Y420539D01*
X641135Y420531D01*
X641186Y420542D01*
X641238Y420543D01*
X641306Y420568D01*
X641376Y420583D01*
X641421Y420610D01*
X641469Y420628D01*
X641525Y420673D01*
X641587Y420710D01*
X641621Y420749D01*
X641661Y420782D01*
X641700Y420842D01*
X641747Y420896D01*
X641766Y420945D01*
X641794Y420989D01*
X641812Y421058D01*
X641839Y421125D01*
X641847Y421196D01*
X641855Y421227D01*
X641853Y421250D01*
X641857Y421291D01*
X641857Y432816D01*
X641854Y432836D01*
X641856Y432855D01*
X641834Y432957D01*
X641818Y433059D01*
X641808Y433076D01*
X641804Y433096D01*
X641751Y433185D01*
X641702Y433276D01*
X641688Y433290D01*
X641678Y433307D01*
X641599Y433374D01*
X641524Y433446D01*
X641506Y433454D01*
X641491Y433467D01*
X641395Y433506D01*
X641301Y433549D01*
X641281Y433551D01*
X641263Y433559D01*
X641096Y433577D01*
X440592Y433577D01*
X413257Y460912D01*
X413257Y465271D01*
X413246Y465342D01*
X413244Y465413D01*
X413226Y465462D01*
X413218Y465514D01*
X413184Y465577D01*
X413159Y465644D01*
X413127Y465685D01*
X413102Y465731D01*
X413050Y465780D01*
X413006Y465836D01*
X412962Y465864D01*
X412924Y465900D01*
X412859Y465930D01*
X412799Y465969D01*
X412748Y465982D01*
X412701Y466004D01*
X412630Y466012D01*
X412560Y466029D01*
X412508Y466025D01*
X412457Y466031D01*
X412386Y466016D01*
X412315Y466010D01*
X412267Y465990D01*
X412216Y465979D01*
X412155Y465942D01*
X412089Y465914D01*
X412033Y465869D01*
X412005Y465853D01*
X411990Y465835D01*
X411958Y465809D01*
X409760Y463611D01*
X405932Y462025D01*
X401788Y462025D01*
X397960Y463611D01*
X395031Y466540D01*
X393445Y470368D01*
X393445Y474512D01*
X394221Y476384D01*
X394248Y476498D01*
X394276Y476612D01*
X394276Y476618D01*
X394277Y476624D01*
X394266Y476740D01*
X394257Y476857D01*
X394255Y476862D01*
X394254Y476869D01*
X394206Y476976D01*
X394161Y477083D01*
X394156Y477089D01*
X394154Y477093D01*
X394141Y477107D01*
X394056Y477214D01*
X372363Y498907D01*
X372363Y504997D01*
X372362Y505004D01*
X372362Y505005D01*
X372361Y505012D01*
X372352Y505068D01*
X372350Y505139D01*
X372332Y505188D01*
X372324Y505240D01*
X372290Y505303D01*
X372265Y505370D01*
X372233Y505411D01*
X372208Y505457D01*
X372156Y505506D01*
X372112Y505562D01*
X372068Y505590D01*
X372030Y505626D01*
X371965Y505656D01*
X371905Y505695D01*
X371854Y505708D01*
X371807Y505730D01*
X371736Y505738D01*
X371666Y505755D01*
X371614Y505751D01*
X371563Y505757D01*
X371492Y505742D01*
X371421Y505736D01*
X371373Y505716D01*
X371322Y505705D01*
X371261Y505668D01*
X371195Y505640D01*
X371139Y505595D01*
X371111Y505579D01*
X371096Y505561D01*
X371064Y505535D01*
X369000Y503471D01*
X367127Y502695D01*
X367027Y502634D01*
X366927Y502574D01*
X366923Y502569D01*
X366918Y502565D01*
X366843Y502475D01*
X366767Y502387D01*
X366765Y502381D01*
X366761Y502376D01*
X366719Y502268D01*
X366675Y502158D01*
X366674Y502151D01*
X366673Y502146D01*
X366672Y502128D01*
X366657Y501992D01*
X366657Y489589D01*
X366671Y489498D01*
X366679Y489408D01*
X366691Y489378D01*
X366696Y489346D01*
X366739Y489265D01*
X366775Y489181D01*
X366801Y489149D01*
X366812Y489128D01*
X366835Y489106D01*
X366880Y489050D01*
X373686Y482244D01*
X373780Y482176D01*
X373875Y482106D01*
X373881Y482104D01*
X373886Y482100D01*
X373997Y482066D01*
X374109Y482030D01*
X374115Y482030D01*
X374121Y482028D01*
X374238Y482031D01*
X374354Y482032D01*
X374362Y482034D01*
X374367Y482034D01*
X374384Y482041D01*
X374516Y482079D01*
X376388Y482855D01*
X380532Y482855D01*
X384360Y481269D01*
X387289Y478340D01*
X388875Y474512D01*
X388875Y470368D01*
X387289Y466540D01*
X384360Y463611D01*
X380532Y462025D01*
X376388Y462025D01*
X372560Y463611D01*
X369631Y466540D01*
X368045Y470368D01*
X368045Y474512D01*
X368821Y476384D01*
X368848Y476498D01*
X368876Y476612D01*
X368876Y476618D01*
X368877Y476624D01*
X368866Y476740D01*
X368857Y476857D01*
X368855Y476862D01*
X368854Y476869D01*
X368806Y476976D01*
X368761Y477083D01*
X368756Y477089D01*
X368754Y477093D01*
X368741Y477107D01*
X368656Y477214D01*
X359543Y486327D01*
X359543Y501992D01*
X359524Y502107D01*
X359507Y502223D01*
X359505Y502228D01*
X359504Y502235D01*
X359449Y502337D01*
X359396Y502442D01*
X359391Y502446D01*
X359388Y502452D01*
X359304Y502532D01*
X359220Y502614D01*
X359214Y502618D01*
X359210Y502621D01*
X359193Y502629D01*
X359073Y502695D01*
X357200Y503471D01*
X354271Y506400D01*
X352685Y510228D01*
X352685Y514372D01*
X354271Y518200D01*
X357200Y521129D01*
X361028Y522715D01*
X365172Y522715D01*
X369000Y521129D01*
X371064Y519065D01*
X371122Y519023D01*
X371174Y518974D01*
X371221Y518952D01*
X371263Y518921D01*
X371332Y518900D01*
X371397Y518870D01*
X371449Y518864D01*
X371499Y518849D01*
X371570Y518851D01*
X371641Y518843D01*
X371692Y518854D01*
X371744Y518855D01*
X371812Y518880D01*
X371882Y518895D01*
X371927Y518922D01*
X371975Y518940D01*
X372031Y518985D01*
X372093Y519021D01*
X372127Y519061D01*
X372167Y519094D01*
X372206Y519154D01*
X372253Y519208D01*
X372272Y519257D01*
X372300Y519300D01*
X372318Y519370D01*
X372345Y519436D01*
X372353Y519508D01*
X372361Y519539D01*
X372359Y519562D01*
X372363Y519603D01*
X372363Y520181D01*
X372349Y520272D01*
X372341Y520362D01*
X372329Y520392D01*
X372324Y520424D01*
X372302Y520465D01*
X372301Y520471D01*
X372286Y520495D01*
X372281Y520505D01*
X372245Y520589D01*
X372219Y520621D01*
X372208Y520642D01*
X372185Y520663D01*
X372174Y520682D01*
X372163Y520692D01*
X372140Y520720D01*
X365798Y527062D01*
X365724Y527115D01*
X365654Y527175D01*
X365624Y527187D01*
X365598Y527206D01*
X365511Y527233D01*
X365426Y527267D01*
X365385Y527271D01*
X365363Y527278D01*
X365331Y527277D01*
X365259Y527285D01*
X361028Y527285D01*
X357200Y528871D01*
X354271Y531800D01*
X352685Y535628D01*
X352685Y539772D01*
X354271Y543600D01*
X357200Y546529D01*
X361028Y548115D01*
X365172Y548115D01*
X369000Y546529D01*
X371929Y543600D01*
X373515Y539772D01*
X373515Y535628D01*
X371887Y531698D01*
X371860Y531584D01*
X371831Y531471D01*
X371832Y531465D01*
X371831Y531458D01*
X371842Y531342D01*
X371851Y531226D01*
X371853Y531220D01*
X371854Y531214D01*
X371901Y531106D01*
X371947Y530999D01*
X371952Y530993D01*
X371954Y530989D01*
X371966Y530975D01*
X372052Y530868D01*
X379477Y523443D01*
X379477Y520562D01*
X379488Y520491D01*
X379490Y520419D01*
X379508Y520370D01*
X379516Y520319D01*
X379550Y520256D01*
X379575Y520188D01*
X379607Y520147D01*
X379632Y520101D01*
X379683Y520052D01*
X379728Y519996D01*
X379772Y519968D01*
X379810Y519932D01*
X379875Y519902D01*
X379935Y519863D01*
X379986Y519850D01*
X380033Y519828D01*
X380104Y519821D01*
X380174Y519803D01*
X380226Y519807D01*
X380277Y519801D01*
X380348Y519817D01*
X380419Y519822D01*
X380467Y519843D01*
X380518Y519854D01*
X380579Y519890D01*
X380645Y519919D01*
X380701Y519963D01*
X380729Y519980D01*
X380744Y519998D01*
X380776Y520023D01*
X381384Y520631D01*
X382775Y521642D01*
X384307Y522422D01*
X385942Y522954D01*
X386977Y523118D01*
X386977Y513062D01*
X386980Y513042D01*
X386978Y513023D01*
X387000Y512921D01*
X387017Y512819D01*
X387026Y512802D01*
X387030Y512782D01*
X387083Y512693D01*
X387132Y512602D01*
X387146Y512588D01*
X387156Y512571D01*
X387235Y512504D01*
X387310Y512433D01*
X387328Y512424D01*
X387343Y512411D01*
X387439Y512373D01*
X387533Y512329D01*
X387553Y512327D01*
X387571Y512319D01*
X387738Y512301D01*
X389262Y512301D01*
X389282Y512304D01*
X389301Y512302D01*
X389403Y512324D01*
X389505Y512341D01*
X389522Y512350D01*
X389542Y512354D01*
X389631Y512407D01*
X389722Y512456D01*
X389736Y512470D01*
X389753Y512480D01*
X389820Y512559D01*
X389891Y512634D01*
X389900Y512652D01*
X389913Y512667D01*
X389952Y512763D01*
X389995Y512857D01*
X389997Y512877D01*
X390005Y512895D01*
X390023Y513062D01*
X390023Y523118D01*
X391058Y522954D01*
X392693Y522422D01*
X394225Y521642D01*
X395616Y520631D01*
X396718Y519529D01*
X396776Y519487D01*
X396828Y519438D01*
X396875Y519416D01*
X396917Y519386D01*
X396986Y519365D01*
X397051Y519334D01*
X397103Y519329D01*
X397153Y519313D01*
X397224Y519315D01*
X397295Y519307D01*
X397346Y519318D01*
X397398Y519320D01*
X397466Y519344D01*
X397536Y519360D01*
X397581Y519386D01*
X397629Y519404D01*
X397685Y519449D01*
X397747Y519486D01*
X397781Y519525D01*
X397821Y519558D01*
X397860Y519618D01*
X397907Y519673D01*
X397926Y519721D01*
X397954Y519765D01*
X397972Y519834D01*
X397999Y519901D01*
X398007Y519972D01*
X398015Y520003D01*
X398013Y520027D01*
X398017Y520068D01*
X398017Y522068D01*
X405872Y529923D01*
X405884Y529939D01*
X405899Y529951D01*
X405955Y530038D01*
X406016Y530122D01*
X406021Y530142D01*
X406032Y530158D01*
X406057Y530259D01*
X406088Y530358D01*
X406087Y530378D01*
X406092Y530397D01*
X406084Y530500D01*
X406082Y530603D01*
X406075Y530622D01*
X406073Y530642D01*
X406033Y530737D01*
X405997Y530834D01*
X405985Y530850D01*
X405977Y530868D01*
X405872Y530999D01*
X405071Y531800D01*
X403485Y535628D01*
X403485Y539772D01*
X405071Y543600D01*
X408000Y546529D01*
X411828Y548115D01*
X415972Y548115D01*
X419800Y546529D01*
X422729Y543600D01*
X424315Y539772D01*
X424315Y535628D01*
X422729Y531800D01*
X419800Y528871D01*
X415972Y527285D01*
X412891Y527285D01*
X412801Y527271D01*
X412710Y527263D01*
X412681Y527251D01*
X412649Y527246D01*
X412568Y527203D01*
X412484Y527167D01*
X412452Y527141D01*
X412431Y527130D01*
X412409Y527107D01*
X412353Y527062D01*
X408008Y522718D01*
X407952Y522639D01*
X407890Y522564D01*
X407880Y522539D01*
X407865Y522518D01*
X407836Y522425D01*
X407801Y522334D01*
X407800Y522308D01*
X407793Y522283D01*
X407795Y522185D01*
X407791Y522088D01*
X407798Y522063D01*
X407799Y522037D01*
X407832Y521945D01*
X407859Y521852D01*
X407874Y521831D01*
X407883Y521806D01*
X407944Y521730D01*
X408000Y521650D01*
X408021Y521634D01*
X408037Y521614D01*
X408119Y521561D01*
X408197Y521503D01*
X408222Y521495D01*
X408244Y521481D01*
X408338Y521457D01*
X408431Y521427D01*
X408457Y521427D01*
X408483Y521421D01*
X408579Y521428D01*
X408677Y521429D01*
X408708Y521438D01*
X408728Y521440D01*
X408758Y521453D01*
X408838Y521476D01*
X411828Y522715D01*
X415972Y522715D01*
X419800Y521129D01*
X422729Y518200D01*
X424315Y514372D01*
X424315Y510228D01*
X422729Y506400D01*
X419800Y503471D01*
X415972Y501885D01*
X411828Y501885D01*
X408000Y503471D01*
X405922Y505549D01*
X405864Y505591D01*
X405812Y505640D01*
X405765Y505662D01*
X405723Y505693D01*
X405654Y505714D01*
X405589Y505744D01*
X405537Y505750D01*
X405487Y505765D01*
X405416Y505763D01*
X405345Y505771D01*
X405294Y505760D01*
X405242Y505759D01*
X405174Y505734D01*
X405104Y505719D01*
X405059Y505692D01*
X405011Y505674D01*
X404955Y505629D01*
X404893Y505593D01*
X404859Y505553D01*
X404819Y505520D01*
X404780Y505460D01*
X404733Y505406D01*
X404714Y505357D01*
X404686Y505314D01*
X404668Y505244D01*
X404641Y505178D01*
X404633Y505106D01*
X404625Y505075D01*
X404627Y505052D01*
X404623Y505011D01*
X404623Y499523D01*
X404637Y499433D01*
X404645Y499342D01*
X404657Y499313D01*
X404662Y499281D01*
X404705Y499200D01*
X404741Y499116D01*
X404767Y499084D01*
X404778Y499063D01*
X404801Y499041D01*
X404846Y498985D01*
X419863Y483968D01*
X419863Y479609D01*
X419874Y479538D01*
X419876Y479467D01*
X419894Y479418D01*
X419902Y479366D01*
X419936Y479303D01*
X419961Y479236D01*
X419993Y479195D01*
X420018Y479149D01*
X420070Y479100D01*
X420114Y479044D01*
X420158Y479016D01*
X420196Y478980D01*
X420261Y478950D01*
X420321Y478911D01*
X420372Y478898D01*
X420419Y478876D01*
X420490Y478868D01*
X420560Y478851D01*
X420612Y478855D01*
X420663Y478849D01*
X420734Y478864D01*
X420805Y478870D01*
X420853Y478890D01*
X420904Y478901D01*
X420965Y478938D01*
X421031Y478966D01*
X421087Y479011D01*
X421115Y479027D01*
X421130Y479045D01*
X421162Y479071D01*
X423360Y481269D01*
X427188Y482855D01*
X431332Y482855D01*
X435160Y481269D01*
X438089Y478340D01*
X439675Y474512D01*
X439675Y470368D01*
X438089Y466540D01*
X435160Y463611D01*
X431332Y462025D01*
X427188Y462025D01*
X423360Y463611D01*
X421162Y465809D01*
X421104Y465851D01*
X421052Y465900D01*
X421005Y465922D01*
X420963Y465953D01*
X420894Y465974D01*
X420829Y466004D01*
X420777Y466010D01*
X420727Y466025D01*
X420656Y466023D01*
X420585Y466031D01*
X420534Y466020D01*
X420482Y466019D01*
X420414Y465994D01*
X420344Y465979D01*
X420299Y465952D01*
X420251Y465934D01*
X420195Y465889D01*
X420133Y465853D01*
X420099Y465813D01*
X420059Y465780D01*
X420020Y465720D01*
X419973Y465666D01*
X419954Y465617D01*
X419926Y465574D01*
X419908Y465504D01*
X419881Y465438D01*
X419873Y465366D01*
X419865Y465335D01*
X419867Y465312D01*
X419863Y465271D01*
X419863Y463963D01*
X419877Y463873D01*
X419885Y463782D01*
X419897Y463753D01*
X419902Y463721D01*
X419945Y463640D01*
X419981Y463556D01*
X420007Y463524D01*
X420018Y463503D01*
X420041Y463481D01*
X420086Y463425D01*
X443105Y440406D01*
X443179Y440353D01*
X443248Y440293D01*
X443279Y440281D01*
X443305Y440262D01*
X443392Y440235D01*
X443477Y440201D01*
X443518Y440197D01*
X443540Y440190D01*
X443572Y440191D01*
X443643Y440183D01*
X646698Y440183D01*
X646718Y440186D01*
X646737Y440184D01*
X646839Y440206D01*
X646941Y440222D01*
X646958Y440232D01*
X646978Y440236D01*
X647067Y440289D01*
X647158Y440338D01*
X647172Y440352D01*
X647189Y440362D01*
X647256Y440441D01*
X647328Y440516D01*
X647336Y440534D01*
X647349Y440549D01*
X647388Y440645D01*
X647431Y440739D01*
X647433Y440759D01*
X647441Y440777D01*
X647459Y440944D01*
X647459Y520580D01*
X647455Y520604D01*
X647458Y520628D01*
X647436Y520724D01*
X647420Y520823D01*
X647408Y520844D01*
X647403Y520867D01*
X647351Y520952D01*
X647304Y521040D01*
X647287Y521056D01*
X647274Y521077D01*
X647198Y521141D01*
X647126Y521209D01*
X647104Y521219D01*
X647086Y521235D01*
X646993Y521271D01*
X646903Y521313D01*
X646879Y521316D01*
X646857Y521324D01*
X646757Y521329D01*
X646659Y521340D01*
X646635Y521335D01*
X646611Y521336D01*
X646515Y521309D01*
X646418Y521288D01*
X646398Y521275D01*
X646374Y521269D01*
X646292Y521213D01*
X646207Y521162D01*
X646191Y521143D01*
X646172Y521130D01*
X646112Y521050D01*
X646047Y520975D01*
X646038Y520952D01*
X646024Y520933D01*
X645963Y520777D01*
X643888Y513034D01*
X639807Y505965D01*
X634035Y500193D01*
X626966Y496112D01*
X619081Y493999D01*
X610919Y493999D01*
X603034Y496112D01*
X595965Y500193D01*
X592855Y503303D01*
X592836Y503317D01*
X592821Y503336D01*
X592736Y503388D01*
X592656Y503446D01*
X592633Y503454D01*
X592612Y503466D01*
X592516Y503490D01*
X592421Y503519D01*
X592414Y503519D01*
X592414Y503551D01*
X592406Y503574D01*
X592404Y503598D01*
X592365Y503690D01*
X592332Y503783D01*
X592317Y503802D01*
X592308Y503825D01*
X592221Y503932D01*
X592220Y503934D01*
X592219Y503935D01*
X592203Y503955D01*
X590193Y505965D01*
X586112Y513034D01*
X583999Y520919D01*
X583999Y529081D01*
X586112Y536966D01*
X590193Y544035D01*
X595965Y549807D01*
X603034Y553888D01*
X610919Y556001D01*
X619081Y556001D01*
X626966Y553888D01*
X634035Y549807D01*
X639807Y544035D01*
X643888Y536966D01*
X645963Y529223D01*
X645973Y529201D01*
X645977Y529177D01*
X646023Y529090D01*
X646064Y528999D01*
X646080Y528981D01*
X646092Y528960D01*
X646164Y528892D01*
X646231Y528819D01*
X646252Y528807D01*
X646270Y528791D01*
X646360Y528749D01*
X646447Y528701D01*
X646471Y528697D01*
X646493Y528687D01*
X646592Y528676D01*
X646690Y528659D01*
X646714Y528663D01*
X646737Y528660D01*
X646835Y528681D01*
X646933Y528696D01*
X646954Y528707D01*
X646978Y528712D01*
X647063Y528763D01*
X647152Y528809D01*
X647168Y528826D01*
X647189Y528838D01*
X647254Y528914D01*
X647323Y528985D01*
X647333Y529007D01*
X647349Y529025D01*
X647386Y529118D01*
X647429Y529207D01*
X647432Y529231D01*
X647441Y529253D01*
X647459Y529420D01*
X647459Y535000D01*
X647456Y535022D01*
X647457Y535060D01*
X647128Y539236D01*
X647127Y539242D01*
X647127Y539247D01*
X647093Y539412D01*
X644512Y547356D01*
X644496Y547388D01*
X644487Y547422D01*
X644404Y547568D01*
X639494Y554326D01*
X639469Y554351D01*
X639450Y554381D01*
X639326Y554494D01*
X632568Y559404D01*
X632536Y559420D01*
X632509Y559443D01*
X632356Y559512D01*
X624412Y562093D01*
X624406Y562094D01*
X624401Y562097D01*
X624236Y562128D01*
X620060Y562457D01*
X620038Y562455D01*
X620000Y562459D01*
X30000Y562459D01*
X29978Y562456D01*
X29940Y562457D01*
X25764Y562128D01*
X25758Y562127D01*
X25753Y562127D01*
X25588Y562093D01*
X17644Y559512D01*
X17612Y559496D01*
X17578Y559487D01*
X17432Y559404D01*
X10674Y554494D01*
X10649Y554469D01*
X10619Y554450D01*
X10506Y554326D01*
X5596Y547568D01*
X5580Y547536D01*
X5557Y547509D01*
X5488Y547356D01*
X2907Y539412D01*
X2906Y539406D01*
X2903Y539401D01*
X2872Y539236D01*
X2543Y535060D01*
X2545Y535038D01*
X2541Y535000D01*
X2541Y529420D01*
X2545Y529396D01*
X2542Y529372D01*
X2564Y529275D01*
X2580Y529177D01*
X2592Y529156D01*
X2597Y529133D01*
X2649Y529048D01*
X2696Y528960D01*
X2713Y528943D01*
X2726Y528923D01*
X2802Y528859D01*
X2874Y528791D01*
X2896Y528781D01*
X2914Y528765D01*
X3007Y528729D01*
X3097Y528687D01*
X3121Y528684D01*
X3143Y528676D01*
X3243Y528671D01*
X3341Y528660D01*
X3365Y528665D01*
X3389Y528664D01*
X3485Y528691D01*
X3582Y528712D01*
X3602Y528725D01*
X3626Y528731D01*
X3708Y528787D01*
X3793Y528838D01*
X3809Y528857D01*
X3828Y528870D01*
X3888Y528950D01*
X3953Y529025D01*
X3962Y529048D01*
X3976Y529067D01*
X4037Y529223D01*
X6112Y536966D01*
X10193Y544035D01*
X15965Y549807D01*
X23034Y553888D01*
X30919Y556001D01*
X39081Y556001D01*
X46966Y553888D01*
X54035Y549807D01*
X59807Y544035D01*
X63888Y536966D01*
X66001Y529081D01*
X66001Y520919D01*
X63888Y513034D01*
X59807Y505965D01*
X56538Y502696D01*
X56496Y502638D01*
X56447Y502586D01*
X56425Y502539D01*
X56394Y502497D01*
X56373Y502428D01*
X56343Y502363D01*
X56337Y502311D01*
X56322Y502261D01*
X56324Y502190D01*
X56316Y502119D01*
X56327Y502068D01*
X56328Y502016D01*
X56353Y501948D01*
X56368Y501878D01*
X56395Y501833D01*
X56413Y501785D01*
X56458Y501729D01*
X56494Y501667D01*
X56534Y501633D01*
X56567Y501593D01*
X56627Y501554D01*
X56681Y501507D01*
X56730Y501488D01*
X56773Y501460D01*
X56843Y501442D01*
X56909Y501415D01*
X56981Y501407D01*
X57012Y501399D01*
X57035Y501401D01*
X57076Y501397D01*
X78981Y501397D01*
X79077Y501412D01*
X79174Y501422D01*
X79198Y501432D01*
X79224Y501436D01*
X79309Y501482D01*
X79399Y501522D01*
X79418Y501539D01*
X79441Y501552D01*
X79508Y501622D01*
X79580Y501688D01*
X79592Y501711D01*
X79610Y501730D01*
X79651Y501818D01*
X79698Y501904D01*
X79703Y501929D01*
X79714Y501953D01*
X79725Y502050D01*
X79742Y502146D01*
X79738Y502172D01*
X79741Y502197D01*
X79720Y502293D01*
X79706Y502389D01*
X79694Y502412D01*
X79689Y502438D01*
X79639Y502521D01*
X79595Y502608D01*
X79576Y502627D01*
X79563Y502649D01*
X79489Y502712D01*
X79419Y502780D01*
X79390Y502796D01*
X79376Y502809D01*
X79345Y502821D01*
X79272Y502861D01*
X77800Y503471D01*
X74871Y506400D01*
X73285Y510228D01*
X73285Y514372D01*
X74871Y518200D01*
X77800Y521129D01*
X81628Y522715D01*
X85772Y522715D01*
X89600Y521129D01*
X92529Y518200D01*
X94115Y514372D01*
X94115Y510228D01*
X92529Y506400D01*
X89600Y503471D01*
X88128Y502861D01*
X88045Y502810D01*
X87959Y502764D01*
X87941Y502746D01*
X87919Y502732D01*
X87857Y502656D01*
X87790Y502586D01*
X87779Y502562D01*
X87762Y502542D01*
X87727Y502451D01*
X87686Y502363D01*
X87683Y502337D01*
X87674Y502313D01*
X87670Y502215D01*
X87659Y502119D01*
X87665Y502093D01*
X87663Y502067D01*
X87691Y501973D01*
X87711Y501878D01*
X87725Y501856D01*
X87732Y501831D01*
X87787Y501751D01*
X87837Y501667D01*
X87857Y501650D01*
X87872Y501629D01*
X87950Y501570D01*
X88024Y501507D01*
X88049Y501497D01*
X88070Y501482D01*
X88162Y501452D01*
X88253Y501415D01*
X88285Y501412D01*
X88303Y501406D01*
X88337Y501406D01*
X88419Y501397D01*
X97271Y501397D01*
X97362Y501411D01*
X97452Y501419D01*
X97482Y501431D01*
X97514Y501436D01*
X97595Y501479D01*
X97679Y501515D01*
X97711Y501541D01*
X97732Y501552D01*
X97754Y501575D01*
X97810Y501620D01*
X100892Y504702D01*
X100904Y504719D01*
X100920Y504731D01*
X100976Y504818D01*
X101036Y504902D01*
X101042Y504921D01*
X101053Y504938D01*
X101078Y505038D01*
X101108Y505137D01*
X101108Y505157D01*
X101113Y505176D01*
X101105Y505279D01*
X101102Y505383D01*
X101095Y505402D01*
X101094Y505422D01*
X101053Y505517D01*
X101017Y505614D01*
X101005Y505630D01*
X100997Y505648D01*
X100892Y505779D01*
X100271Y506400D01*
X98685Y510228D01*
X98685Y514372D01*
X100271Y518200D01*
X103200Y521129D01*
X107028Y522715D01*
X111172Y522715D01*
X115000Y521129D01*
X117929Y518200D01*
X119515Y514372D01*
X119515Y510228D01*
X117929Y506400D01*
X115000Y503471D01*
X111172Y501885D01*
X108451Y501885D01*
X108360Y501871D01*
X108270Y501863D01*
X108240Y501851D01*
X108208Y501846D01*
X108127Y501803D01*
X108043Y501767D01*
X108011Y501741D01*
X107990Y501730D01*
X107968Y501707D01*
X107912Y501662D01*
X101326Y495076D01*
X101284Y495018D01*
X101235Y494966D01*
X101213Y494919D01*
X101183Y494877D01*
X101162Y494808D01*
X101131Y494743D01*
X101126Y494691D01*
X101110Y494641D01*
X101112Y494570D01*
X101104Y494499D01*
X101115Y494448D01*
X101117Y494396D01*
X101141Y494328D01*
X101157Y494258D01*
X101183Y494213D01*
X101201Y494165D01*
X101246Y494109D01*
X101283Y494047D01*
X101322Y494013D01*
X101355Y493973D01*
X101415Y493934D01*
X101470Y493887D01*
X101518Y493868D01*
X101562Y493840D01*
X101631Y493822D01*
X101698Y493795D01*
X101769Y493787D01*
X101800Y493779D01*
X101824Y493781D01*
X101865Y493777D01*
X110631Y493777D01*
X110722Y493791D01*
X110812Y493799D01*
X110842Y493811D01*
X110874Y493816D01*
X110955Y493859D01*
X111039Y493895D01*
X111071Y493921D01*
X111092Y493932D01*
X111114Y493955D01*
X111170Y494000D01*
X124696Y507526D01*
X124764Y507620D01*
X124834Y507715D01*
X124836Y507721D01*
X124840Y507726D01*
X124874Y507837D01*
X124910Y507948D01*
X124910Y507955D01*
X124912Y507961D01*
X124909Y508078D01*
X124908Y508194D01*
X124906Y508202D01*
X124906Y508207D01*
X124899Y508224D01*
X124861Y508356D01*
X124085Y510228D01*
X124085Y514372D01*
X125671Y518200D01*
X128600Y521129D01*
X132428Y522715D01*
X136572Y522715D01*
X140400Y521129D01*
X142464Y519065D01*
X142522Y519023D01*
X142574Y518974D01*
X142621Y518952D01*
X142663Y518921D01*
X142732Y518900D01*
X142797Y518870D01*
X142849Y518864D01*
X142899Y518849D01*
X142970Y518851D01*
X143041Y518843D01*
X143092Y518854D01*
X143144Y518855D01*
X143212Y518880D01*
X143282Y518895D01*
X143327Y518922D01*
X143375Y518940D01*
X143431Y518985D01*
X143493Y519021D01*
X143527Y519061D01*
X143567Y519094D01*
X143606Y519154D01*
X143653Y519208D01*
X143672Y519257D01*
X143700Y519300D01*
X143718Y519370D01*
X143745Y519436D01*
X143753Y519508D01*
X143761Y519539D01*
X143759Y519562D01*
X143763Y519603D01*
X143763Y519633D01*
X152197Y528067D01*
X152967Y528067D01*
X153038Y528078D01*
X153109Y528080D01*
X153158Y528098D01*
X153210Y528106D01*
X153273Y528140D01*
X153340Y528165D01*
X153381Y528197D01*
X153427Y528222D01*
X153476Y528274D01*
X153532Y528318D01*
X153560Y528362D01*
X153596Y528400D01*
X153626Y528465D01*
X153665Y528525D01*
X153678Y528576D01*
X153700Y528623D01*
X153708Y528694D01*
X153725Y528764D01*
X153721Y528816D01*
X153727Y528867D01*
X153712Y528938D01*
X153706Y529009D01*
X153686Y529057D01*
X153675Y529108D01*
X153638Y529169D01*
X153610Y529235D01*
X153565Y529291D01*
X153549Y529319D01*
X153531Y529334D01*
X153505Y529366D01*
X151071Y531800D01*
X149485Y535628D01*
X149485Y539772D01*
X151071Y543600D01*
X154000Y546529D01*
X157828Y548115D01*
X161972Y548115D01*
X165800Y546529D01*
X168729Y543600D01*
X170315Y539772D01*
X170315Y535628D01*
X168729Y531800D01*
X166295Y529366D01*
X166253Y529308D01*
X166204Y529256D01*
X166182Y529209D01*
X166151Y529167D01*
X166130Y529098D01*
X166100Y529033D01*
X166094Y528981D01*
X166079Y528931D01*
X166081Y528860D01*
X166073Y528789D01*
X166084Y528738D01*
X166085Y528686D01*
X166110Y528618D01*
X166125Y528548D01*
X166152Y528503D01*
X166170Y528455D01*
X166215Y528399D01*
X166251Y528337D01*
X166291Y528303D01*
X166324Y528263D01*
X166384Y528224D01*
X166438Y528177D01*
X166487Y528158D01*
X166530Y528130D01*
X166600Y528112D01*
X166666Y528085D01*
X166738Y528077D01*
X166769Y528069D01*
X166792Y528071D01*
X166833Y528067D01*
X169661Y528067D01*
X169752Y528081D01*
X169842Y528089D01*
X169872Y528101D01*
X169904Y528106D01*
X169985Y528149D01*
X170069Y528185D01*
X170101Y528211D01*
X170122Y528222D01*
X170144Y528245D01*
X170200Y528290D01*
X175303Y533393D01*
X175350Y533459D01*
X175356Y533465D01*
X175359Y533471D01*
X175370Y533487D01*
X175441Y533581D01*
X175443Y533587D01*
X175446Y533592D01*
X175480Y533703D01*
X175517Y533815D01*
X175517Y533822D01*
X175519Y533827D01*
X175516Y533944D01*
X175514Y534061D01*
X175512Y534068D01*
X175512Y534073D01*
X175506Y534091D01*
X175468Y534222D01*
X174885Y535628D01*
X174885Y539772D01*
X176471Y543600D01*
X179400Y546529D01*
X183228Y548115D01*
X187372Y548115D01*
X191200Y546529D01*
X194129Y543600D01*
X195715Y539772D01*
X195715Y535628D01*
X194129Y531800D01*
X191200Y528871D01*
X187372Y527285D01*
X183228Y527285D01*
X180889Y528254D01*
X180775Y528281D01*
X180662Y528310D01*
X180655Y528309D01*
X180649Y528310D01*
X180533Y528299D01*
X180417Y528290D01*
X180411Y528288D01*
X180405Y528287D01*
X180297Y528240D01*
X180190Y528194D01*
X180184Y528189D01*
X180180Y528187D01*
X180166Y528175D01*
X180059Y528089D01*
X172923Y520953D01*
X167813Y520953D01*
X167742Y520942D01*
X167671Y520940D01*
X167622Y520922D01*
X167570Y520914D01*
X167507Y520880D01*
X167440Y520855D01*
X167399Y520823D01*
X167353Y520798D01*
X167304Y520746D01*
X167248Y520702D01*
X167220Y520658D01*
X167184Y520620D01*
X167154Y520555D01*
X167115Y520495D01*
X167102Y520444D01*
X167080Y520397D01*
X167072Y520326D01*
X167055Y520256D01*
X167059Y520204D01*
X167053Y520153D01*
X167068Y520082D01*
X167074Y520011D01*
X167094Y519963D01*
X167105Y519912D01*
X167142Y519851D01*
X167170Y519785D01*
X167215Y519729D01*
X167231Y519701D01*
X167233Y519700D01*
X167250Y519685D01*
X167275Y519654D01*
X168729Y518200D01*
X170315Y514372D01*
X170315Y510228D01*
X168729Y506400D01*
X165800Y503471D01*
X164328Y502861D01*
X164245Y502810D01*
X164159Y502764D01*
X164141Y502746D01*
X164119Y502732D01*
X164057Y502656D01*
X163990Y502586D01*
X163979Y502562D01*
X163962Y502542D01*
X163927Y502451D01*
X163886Y502363D01*
X163883Y502337D01*
X163874Y502313D01*
X163870Y502215D01*
X163859Y502119D01*
X163865Y502093D01*
X163863Y502067D01*
X163891Y501973D01*
X163911Y501878D01*
X163925Y501856D01*
X163932Y501831D01*
X163987Y501751D01*
X164037Y501667D01*
X164057Y501650D01*
X164072Y501629D01*
X164150Y501570D01*
X164224Y501507D01*
X164249Y501497D01*
X164270Y501482D01*
X164362Y501452D01*
X164453Y501415D01*
X164485Y501412D01*
X164503Y501406D01*
X164537Y501406D01*
X164619Y501397D01*
X179469Y501397D01*
X179535Y501408D01*
X179603Y501409D01*
X179656Y501427D01*
X179711Y501436D01*
X179771Y501468D01*
X179835Y501491D01*
X179879Y501525D01*
X179929Y501552D01*
X179975Y501601D01*
X180029Y501643D01*
X180060Y501689D01*
X180098Y501730D01*
X180127Y501791D01*
X180164Y501848D01*
X180178Y501902D01*
X180202Y501953D01*
X180209Y502020D01*
X180227Y502086D01*
X180223Y502142D01*
X180229Y502197D01*
X180214Y502264D01*
X180210Y502331D01*
X180189Y502383D01*
X180177Y502438D01*
X180142Y502496D01*
X180116Y502559D01*
X180079Y502601D01*
X180050Y502649D01*
X179999Y502693D01*
X179954Y502744D01*
X179889Y502787D01*
X179864Y502809D01*
X179844Y502817D01*
X179814Y502836D01*
X179575Y502958D01*
X178184Y503969D01*
X176969Y505184D01*
X175958Y506575D01*
X175178Y508107D01*
X174646Y509742D01*
X174482Y510777D01*
X184538Y510777D01*
X184558Y510780D01*
X184577Y510778D01*
X184679Y510800D01*
X184781Y510817D01*
X184798Y510826D01*
X184818Y510830D01*
X184907Y510883D01*
X184998Y510932D01*
X185012Y510946D01*
X185029Y510956D01*
X185096Y511035D01*
X185167Y511110D01*
X185176Y511128D01*
X185189Y511143D01*
X185227Y511239D01*
X185271Y511333D01*
X185273Y511353D01*
X185281Y511371D01*
X185299Y511538D01*
X185299Y512301D01*
X185301Y512301D01*
X185301Y511538D01*
X185304Y511518D01*
X185302Y511499D01*
X185324Y511397D01*
X185341Y511295D01*
X185350Y511278D01*
X185354Y511258D01*
X185407Y511169D01*
X185456Y511078D01*
X185470Y511064D01*
X185480Y511047D01*
X185559Y510980D01*
X185634Y510909D01*
X185652Y510900D01*
X185667Y510887D01*
X185763Y510848D01*
X185857Y510805D01*
X185877Y510803D01*
X185895Y510795D01*
X186062Y510777D01*
X196118Y510777D01*
X195954Y509742D01*
X195422Y508107D01*
X194642Y506575D01*
X193631Y505184D01*
X192416Y503969D01*
X191025Y502958D01*
X190786Y502836D01*
X190731Y502796D01*
X190671Y502764D01*
X190633Y502724D01*
X190588Y502691D01*
X190549Y502635D01*
X190502Y502586D01*
X190478Y502535D01*
X190446Y502489D01*
X190427Y502424D01*
X190398Y502363D01*
X190392Y502307D01*
X190376Y502254D01*
X190379Y502186D01*
X190371Y502119D01*
X190383Y502064D01*
X190385Y502008D01*
X190409Y501944D01*
X190423Y501878D01*
X190452Y501830D01*
X190472Y501778D01*
X190515Y501725D01*
X190550Y501667D01*
X190592Y501631D01*
X190628Y501587D01*
X190685Y501551D01*
X190736Y501507D01*
X190788Y501486D01*
X190836Y501456D01*
X190902Y501441D01*
X190965Y501415D01*
X191043Y501407D01*
X191075Y501399D01*
X191096Y501401D01*
X191131Y501397D01*
X203951Y501397D01*
X204042Y501411D01*
X204132Y501419D01*
X204162Y501431D01*
X204194Y501436D01*
X204275Y501479D01*
X204359Y501515D01*
X204391Y501541D01*
X204412Y501552D01*
X204434Y501575D01*
X204490Y501620D01*
X205084Y502214D01*
X205111Y502251D01*
X205145Y502282D01*
X205182Y502351D01*
X205228Y502414D01*
X205241Y502458D01*
X205263Y502498D01*
X205277Y502575D01*
X205300Y502649D01*
X205299Y502695D01*
X205307Y502740D01*
X205296Y502817D01*
X205294Y502895D01*
X205278Y502938D01*
X205271Y502983D01*
X205236Y503053D01*
X205209Y503126D01*
X205180Y503162D01*
X205160Y503203D01*
X205104Y503257D01*
X205055Y503318D01*
X205017Y503343D01*
X204984Y503375D01*
X204864Y503441D01*
X204849Y503451D01*
X204844Y503452D01*
X204837Y503456D01*
X204800Y503471D01*
X201871Y506400D01*
X200285Y510228D01*
X200285Y514372D01*
X201871Y518200D01*
X204800Y521129D01*
X208628Y522715D01*
X212772Y522715D01*
X216600Y521129D01*
X219529Y518200D01*
X221115Y514372D01*
X221115Y510228D01*
X219529Y506400D01*
X216600Y503471D01*
X214727Y502695D01*
X214627Y502634D01*
X214527Y502574D01*
X214523Y502569D01*
X214518Y502565D01*
X214443Y502475D01*
X214367Y502387D01*
X214365Y502381D01*
X214361Y502376D01*
X214319Y502268D01*
X214275Y502158D01*
X214274Y502151D01*
X214273Y502146D01*
X214272Y502128D01*
X214257Y501992D01*
X214257Y501327D01*
X207213Y494283D01*
X161809Y494283D01*
X161718Y494269D01*
X161628Y494261D01*
X161598Y494249D01*
X161566Y494244D01*
X161485Y494201D01*
X161401Y494165D01*
X161369Y494139D01*
X161348Y494128D01*
X161326Y494105D01*
X161270Y494060D01*
X153640Y486430D01*
X153587Y486356D01*
X153527Y486286D01*
X153515Y486256D01*
X153496Y486230D01*
X153469Y486143D01*
X153435Y486058D01*
X153431Y486017D01*
X153424Y485995D01*
X153425Y485963D01*
X153417Y485891D01*
X153417Y482748D01*
X153436Y482633D01*
X153453Y482517D01*
X153455Y482512D01*
X153456Y482505D01*
X153511Y482403D01*
X153564Y482298D01*
X153569Y482294D01*
X153572Y482288D01*
X153656Y482208D01*
X153740Y482126D01*
X153746Y482122D01*
X153750Y482119D01*
X153767Y482111D01*
X153887Y482045D01*
X155760Y481269D01*
X158689Y478340D01*
X160275Y474512D01*
X160275Y470368D01*
X158689Y466540D01*
X155760Y463611D01*
X151932Y462025D01*
X147788Y462025D01*
X143960Y463611D01*
X141031Y466540D01*
X139445Y470368D01*
X139445Y474512D01*
X141031Y478340D01*
X143960Y481269D01*
X145833Y482045D01*
X145932Y482106D01*
X146033Y482166D01*
X146037Y482171D01*
X146042Y482175D01*
X146117Y482265D01*
X146193Y482353D01*
X146195Y482359D01*
X146199Y482364D01*
X146241Y482472D01*
X146285Y482582D01*
X146286Y482589D01*
X146287Y482594D01*
X146288Y482612D01*
X146303Y482748D01*
X146303Y487415D01*
X146292Y487486D01*
X146290Y487558D01*
X146272Y487607D01*
X146264Y487658D01*
X146230Y487722D01*
X146205Y487789D01*
X146173Y487830D01*
X146148Y487876D01*
X146096Y487925D01*
X146052Y487981D01*
X146008Y488009D01*
X145970Y488045D01*
X145905Y488075D01*
X145845Y488114D01*
X145794Y488127D01*
X145747Y488149D01*
X145676Y488157D01*
X145606Y488174D01*
X145554Y488170D01*
X145503Y488176D01*
X145432Y488160D01*
X145361Y488155D01*
X145313Y488135D01*
X145262Y488123D01*
X145201Y488087D01*
X145135Y488059D01*
X145079Y488014D01*
X145051Y487997D01*
X145036Y487979D01*
X145004Y487954D01*
X134264Y477214D01*
X134196Y477120D01*
X134126Y477025D01*
X134124Y477019D01*
X134120Y477014D01*
X134086Y476903D01*
X134050Y476791D01*
X134050Y476785D01*
X134048Y476779D01*
X134051Y476662D01*
X134052Y476546D01*
X134054Y476538D01*
X134054Y476533D01*
X134061Y476516D01*
X134099Y476384D01*
X134875Y474512D01*
X134875Y470368D01*
X133289Y466540D01*
X130360Y463611D01*
X126532Y462025D01*
X122388Y462025D01*
X118560Y463611D01*
X115631Y466540D01*
X114045Y470368D01*
X114045Y474512D01*
X115486Y477991D01*
X115497Y478035D01*
X115516Y478077D01*
X115525Y478154D01*
X115543Y478230D01*
X115538Y478276D01*
X115543Y478321D01*
X115527Y478398D01*
X115519Y478475D01*
X115501Y478517D01*
X115491Y478562D01*
X115451Y478629D01*
X115419Y478700D01*
X115388Y478734D01*
X115365Y478773D01*
X115306Y478824D01*
X115253Y478881D01*
X115213Y478903D01*
X115178Y478933D01*
X115106Y478962D01*
X115038Y478999D01*
X114992Y479008D01*
X114950Y479025D01*
X114814Y479040D01*
X114795Y479043D01*
X114790Y479042D01*
X114783Y479043D01*
X111009Y479043D01*
X110918Y479029D01*
X110828Y479021D01*
X110798Y479009D01*
X110766Y479004D01*
X110685Y478961D01*
X110601Y478925D01*
X110569Y478899D01*
X110548Y478888D01*
X110526Y478865D01*
X110470Y478820D01*
X108864Y477214D01*
X108796Y477120D01*
X108726Y477025D01*
X108724Y477019D01*
X108720Y477014D01*
X108686Y476903D01*
X108650Y476791D01*
X108650Y476785D01*
X108648Y476779D01*
X108651Y476662D01*
X108652Y476546D01*
X108654Y476538D01*
X108654Y476533D01*
X108661Y476516D01*
X108699Y476384D01*
X109475Y474512D01*
X109475Y470368D01*
X107889Y466540D01*
X104960Y463611D01*
X101132Y462025D01*
X96988Y462025D01*
X93160Y463611D01*
X90231Y466540D01*
X88645Y470368D01*
X88645Y474512D01*
X90231Y478340D01*
X93160Y481269D01*
X96988Y482855D01*
X101132Y482855D01*
X103004Y482079D01*
X103118Y482052D01*
X103232Y482024D01*
X103238Y482024D01*
X103244Y482023D01*
X103360Y482034D01*
X103477Y482043D01*
X103482Y482045D01*
X103489Y482046D01*
X103595Y482093D01*
X103703Y482139D01*
X103709Y482144D01*
X103713Y482146D01*
X103727Y482158D01*
X103834Y482244D01*
X106954Y485364D01*
X106996Y485422D01*
X107045Y485474D01*
X107067Y485521D01*
X107097Y485563D01*
X107118Y485632D01*
X107149Y485697D01*
X107154Y485749D01*
X107170Y485799D01*
X107168Y485870D01*
X107176Y485941D01*
X107165Y485992D01*
X107163Y486044D01*
X107139Y486112D01*
X107123Y486182D01*
X107097Y486227D01*
X107079Y486275D01*
X107034Y486331D01*
X106997Y486393D01*
X106958Y486427D01*
X106925Y486467D01*
X106865Y486506D01*
X106810Y486553D01*
X106762Y486572D01*
X106718Y486600D01*
X106649Y486618D01*
X106582Y486645D01*
X106511Y486653D01*
X106480Y486661D01*
X106456Y486659D01*
X106415Y486663D01*
X67829Y486663D01*
X67738Y486649D01*
X67648Y486641D01*
X67618Y486629D01*
X67586Y486624D01*
X67505Y486581D01*
X67421Y486545D01*
X67389Y486519D01*
X67368Y486508D01*
X67346Y486485D01*
X67290Y486440D01*
X58064Y477214D01*
X57996Y477120D01*
X57926Y477025D01*
X57924Y477019D01*
X57920Y477014D01*
X57886Y476903D01*
X57850Y476792D01*
X57850Y476785D01*
X57848Y476779D01*
X57851Y476662D01*
X57852Y476546D01*
X57854Y476538D01*
X57854Y476533D01*
X57861Y476516D01*
X57899Y476384D01*
X58675Y474512D01*
X58675Y470368D01*
X57717Y468055D01*
X57702Y467992D01*
X57677Y467931D01*
X57668Y467848D01*
X57661Y467816D01*
X57662Y467797D01*
X57659Y467764D01*
X57659Y460436D01*
X57666Y460391D01*
X57664Y460345D01*
X57686Y460270D01*
X57698Y460193D01*
X57720Y460153D01*
X57733Y460109D01*
X57777Y460045D01*
X57814Y459976D01*
X57847Y459944D01*
X57873Y459907D01*
X57935Y459860D01*
X57992Y459807D01*
X58034Y459787D01*
X58070Y459760D01*
X58144Y459736D01*
X58215Y459703D01*
X58261Y459698D01*
X58304Y459684D01*
X58382Y459684D01*
X58459Y459676D01*
X58504Y459686D01*
X58550Y459686D01*
X58682Y459724D01*
X58700Y459728D01*
X58704Y459731D01*
X58711Y459733D01*
X61030Y460693D01*
X63430Y460693D01*
X65648Y459775D01*
X66983Y458440D01*
X67057Y458387D01*
X67126Y458327D01*
X67156Y458315D01*
X67182Y458296D01*
X67269Y458269D01*
X67354Y458235D01*
X67395Y458231D01*
X67417Y458224D01*
X67450Y458225D01*
X67521Y458217D01*
X281421Y458217D01*
X281512Y458231D01*
X281602Y458239D01*
X281632Y458251D01*
X281664Y458256D01*
X281745Y458299D01*
X281829Y458335D01*
X281861Y458361D01*
X281882Y458372D01*
X281904Y458395D01*
X281960Y458440D01*
X285780Y462260D01*
X285833Y462334D01*
X285893Y462404D01*
X285905Y462434D01*
X285924Y462460D01*
X285951Y462547D01*
X285985Y462632D01*
X285989Y462673D01*
X285996Y462695D01*
X285995Y462727D01*
X286003Y462799D01*
X286003Y465017D01*
X285992Y465088D01*
X285990Y465159D01*
X285972Y465208D01*
X285964Y465260D01*
X285930Y465323D01*
X285905Y465390D01*
X285873Y465431D01*
X285848Y465477D01*
X285796Y465526D01*
X285752Y465582D01*
X285708Y465610D01*
X285670Y465646D01*
X285605Y465676D01*
X285545Y465715D01*
X285494Y465728D01*
X285447Y465750D01*
X285376Y465758D01*
X285306Y465775D01*
X285254Y465771D01*
X285203Y465777D01*
X285132Y465762D01*
X285061Y465756D01*
X285013Y465736D01*
X284962Y465725D01*
X284901Y465688D01*
X284835Y465660D01*
X284779Y465615D01*
X284751Y465599D01*
X284736Y465581D01*
X284704Y465555D01*
X282760Y463611D01*
X278932Y462025D01*
X274788Y462025D01*
X270960Y463611D01*
X268031Y466540D01*
X266445Y470368D01*
X266445Y474512D01*
X268031Y478340D01*
X270540Y480849D01*
X270585Y480912D01*
X270611Y480939D01*
X270616Y480949D01*
X270653Y480992D01*
X270665Y481023D01*
X270684Y481049D01*
X270711Y481136D01*
X270745Y481221D01*
X270749Y481261D01*
X270756Y481284D01*
X270755Y481316D01*
X270763Y481387D01*
X270763Y504997D01*
X270762Y505004D01*
X270762Y505005D01*
X270761Y505012D01*
X270752Y505068D01*
X270750Y505139D01*
X270732Y505188D01*
X270724Y505240D01*
X270690Y505303D01*
X270665Y505370D01*
X270633Y505411D01*
X270608Y505457D01*
X270556Y505506D01*
X270512Y505562D01*
X270468Y505590D01*
X270430Y505626D01*
X270365Y505656D01*
X270305Y505695D01*
X270254Y505708D01*
X270207Y505730D01*
X270136Y505738D01*
X270066Y505755D01*
X270014Y505751D01*
X269963Y505757D01*
X269892Y505742D01*
X269821Y505736D01*
X269773Y505716D01*
X269722Y505705D01*
X269661Y505668D01*
X269595Y505640D01*
X269539Y505595D01*
X269511Y505579D01*
X269496Y505561D01*
X269464Y505535D01*
X267400Y503471D01*
X263572Y501885D01*
X260851Y501885D01*
X260760Y501871D01*
X260670Y501863D01*
X260640Y501851D01*
X260608Y501846D01*
X260527Y501803D01*
X260443Y501767D01*
X260411Y501741D01*
X260390Y501730D01*
X260368Y501707D01*
X260312Y501662D01*
X235864Y477214D01*
X235796Y477120D01*
X235726Y477025D01*
X235724Y477019D01*
X235720Y477014D01*
X235686Y476903D01*
X235650Y476791D01*
X235650Y476785D01*
X235648Y476779D01*
X235651Y476662D01*
X235652Y476546D01*
X235654Y476538D01*
X235654Y476533D01*
X235661Y476516D01*
X235699Y476384D01*
X236475Y474512D01*
X236475Y470368D01*
X234889Y466540D01*
X231960Y463611D01*
X228132Y462025D01*
X223988Y462025D01*
X220160Y463611D01*
X217231Y466540D01*
X215645Y470368D01*
X215645Y474512D01*
X217231Y478340D01*
X220160Y481269D01*
X223988Y482855D01*
X228132Y482855D01*
X230004Y482079D01*
X230118Y482052D01*
X230232Y482024D01*
X230238Y482024D01*
X230244Y482023D01*
X230360Y482034D01*
X230477Y482043D01*
X230482Y482045D01*
X230489Y482046D01*
X230596Y482094D01*
X230703Y482139D01*
X230709Y482144D01*
X230713Y482146D01*
X230727Y482159D01*
X230834Y482244D01*
X253292Y504702D01*
X253304Y504719D01*
X253320Y504731D01*
X253376Y504818D01*
X253436Y504902D01*
X253442Y504921D01*
X253453Y504938D01*
X253478Y505038D01*
X253508Y505137D01*
X253508Y505157D01*
X253513Y505176D01*
X253505Y505279D01*
X253502Y505383D01*
X253495Y505402D01*
X253494Y505422D01*
X253453Y505517D01*
X253417Y505614D01*
X253405Y505630D01*
X253397Y505648D01*
X253292Y505779D01*
X252671Y506400D01*
X251085Y510228D01*
X251085Y514372D01*
X252671Y518200D01*
X255600Y521129D01*
X259428Y522715D01*
X263572Y522715D01*
X267400Y521129D01*
X269464Y519065D01*
X269522Y519023D01*
X269574Y518974D01*
X269621Y518952D01*
X269663Y518921D01*
X269732Y518900D01*
X269797Y518870D01*
X269849Y518864D01*
X269899Y518849D01*
X269970Y518851D01*
X270041Y518843D01*
X270092Y518854D01*
X270144Y518855D01*
X270212Y518880D01*
X270282Y518895D01*
X270327Y518922D01*
X270375Y518940D01*
X270431Y518985D01*
X270493Y519021D01*
X270527Y519061D01*
X270567Y519094D01*
X270606Y519154D01*
X270653Y519208D01*
X270672Y519257D01*
X270700Y519300D01*
X270718Y519370D01*
X270745Y519436D01*
X270753Y519508D01*
X270761Y519539D01*
X270759Y519562D01*
X270763Y519603D01*
X270763Y519633D01*
X279962Y528832D01*
X279974Y528849D01*
X279990Y528861D01*
X280046Y528948D01*
X280106Y529032D01*
X280112Y529051D01*
X280123Y529068D01*
X280148Y529168D01*
X280178Y529267D01*
X280178Y529287D01*
X280183Y529306D01*
X280175Y529409D01*
X280172Y529513D01*
X280165Y529532D01*
X280164Y529552D01*
X280123Y529647D01*
X280087Y529744D01*
X280075Y529760D01*
X280067Y529778D01*
X279962Y529909D01*
X278071Y531800D01*
X276485Y535628D01*
X276485Y539772D01*
X278071Y543600D01*
X281000Y546529D01*
X284828Y548115D01*
X288972Y548115D01*
X292800Y546529D01*
X295729Y543600D01*
X297315Y539772D01*
X297315Y535628D01*
X295729Y531800D01*
X292800Y528871D01*
X288972Y527285D01*
X288791Y527285D01*
X288700Y527271D01*
X288610Y527263D01*
X288580Y527251D01*
X288548Y527246D01*
X288467Y527203D01*
X288383Y527167D01*
X288351Y527141D01*
X288330Y527130D01*
X288308Y527107D01*
X288252Y527062D01*
X288150Y526960D01*
X285204Y524014D01*
X285162Y523956D01*
X285113Y523904D01*
X285091Y523857D01*
X285061Y523815D01*
X285040Y523746D01*
X285009Y523681D01*
X285004Y523629D01*
X284988Y523579D01*
X284990Y523508D01*
X284982Y523437D01*
X284993Y523386D01*
X284995Y523334D01*
X285019Y523266D01*
X285035Y523196D01*
X285061Y523151D01*
X285079Y523103D01*
X285124Y523047D01*
X285161Y522985D01*
X285200Y522951D01*
X285233Y522911D01*
X285293Y522872D01*
X285348Y522825D01*
X285396Y522806D01*
X285440Y522778D01*
X285509Y522760D01*
X285576Y522733D01*
X285647Y522725D01*
X285678Y522717D01*
X285702Y522719D01*
X285743Y522715D01*
X288972Y522715D01*
X292800Y521129D01*
X294864Y519065D01*
X294922Y519023D01*
X294974Y518974D01*
X295021Y518952D01*
X295063Y518921D01*
X295132Y518900D01*
X295197Y518870D01*
X295249Y518864D01*
X295299Y518849D01*
X295370Y518851D01*
X295441Y518843D01*
X295492Y518854D01*
X295544Y518855D01*
X295612Y518880D01*
X295682Y518895D01*
X295727Y518922D01*
X295775Y518940D01*
X295831Y518985D01*
X295893Y519021D01*
X295927Y519061D01*
X295967Y519094D01*
X296006Y519154D01*
X296053Y519208D01*
X296072Y519257D01*
X296100Y519300D01*
X296118Y519370D01*
X296145Y519436D01*
X296153Y519508D01*
X296161Y519539D01*
X296159Y519562D01*
X296163Y519603D01*
X296163Y519633D01*
X304597Y528067D01*
X304648Y528067D01*
X304719Y528078D01*
X304791Y528080D01*
X304840Y528098D01*
X304891Y528106D01*
X304954Y528140D01*
X305022Y528165D01*
X305062Y528197D01*
X305109Y528222D01*
X305158Y528274D01*
X305214Y528318D01*
X305242Y528362D01*
X305278Y528400D01*
X305308Y528465D01*
X305347Y528525D01*
X305360Y528576D01*
X305382Y528623D01*
X305389Y528694D01*
X305407Y528764D01*
X305403Y528816D01*
X305409Y528867D01*
X305393Y528938D01*
X305388Y529009D01*
X305367Y529057D01*
X305356Y529108D01*
X305320Y529169D01*
X305291Y529235D01*
X305247Y529291D01*
X305230Y529319D01*
X305212Y529334D01*
X305187Y529366D01*
X303969Y530584D01*
X302958Y531975D01*
X302178Y533507D01*
X301646Y535142D01*
X301482Y536177D01*
X311538Y536177D01*
X311558Y536180D01*
X311577Y536178D01*
X311679Y536200D01*
X311781Y536217D01*
X311798Y536226D01*
X311818Y536230D01*
X311907Y536283D01*
X311998Y536332D01*
X312012Y536346D01*
X312029Y536356D01*
X312096Y536435D01*
X312167Y536510D01*
X312176Y536528D01*
X312189Y536543D01*
X312227Y536639D01*
X312271Y536733D01*
X312273Y536753D01*
X312281Y536771D01*
X312299Y536938D01*
X312299Y537701D01*
X312301Y537701D01*
X312301Y536938D01*
X312304Y536918D01*
X312302Y536899D01*
X312324Y536797D01*
X312341Y536695D01*
X312350Y536678D01*
X312354Y536658D01*
X312407Y536569D01*
X312456Y536478D01*
X312470Y536464D01*
X312480Y536447D01*
X312559Y536380D01*
X312634Y536309D01*
X312652Y536300D01*
X312667Y536287D01*
X312763Y536248D01*
X312857Y536205D01*
X312877Y536203D01*
X312895Y536195D01*
X313062Y536177D01*
X323118Y536177D01*
X322954Y535142D01*
X322422Y533507D01*
X321642Y531975D01*
X320631Y530584D01*
X319413Y529366D01*
X319371Y529308D01*
X319322Y529256D01*
X319300Y529209D01*
X319270Y529167D01*
X319249Y529098D01*
X319218Y529033D01*
X319213Y528981D01*
X319197Y528931D01*
X319199Y528860D01*
X319191Y528789D01*
X319202Y528738D01*
X319204Y528686D01*
X319228Y528618D01*
X319244Y528548D01*
X319270Y528503D01*
X319288Y528455D01*
X319333Y528399D01*
X319370Y528337D01*
X319409Y528303D01*
X319442Y528263D01*
X319502Y528224D01*
X319557Y528177D01*
X319605Y528158D01*
X319649Y528130D01*
X319718Y528112D01*
X319785Y528085D01*
X319856Y528077D01*
X319887Y528069D01*
X319911Y528071D01*
X319952Y528067D01*
X322061Y528067D01*
X322152Y528081D01*
X322242Y528089D01*
X322272Y528101D01*
X322304Y528106D01*
X322385Y528149D01*
X322469Y528185D01*
X322501Y528211D01*
X322522Y528222D01*
X322544Y528245D01*
X322600Y528290D01*
X327703Y533393D01*
X327750Y533459D01*
X327756Y533465D01*
X327759Y533471D01*
X327770Y533487D01*
X327841Y533581D01*
X327843Y533587D01*
X327846Y533592D01*
X327880Y533703D01*
X327917Y533815D01*
X327917Y533822D01*
X327919Y533827D01*
X327916Y533944D01*
X327914Y534061D01*
X327912Y534068D01*
X327912Y534073D01*
X327906Y534091D01*
X327868Y534222D01*
X327285Y535628D01*
X327285Y539772D01*
X328871Y543600D01*
X331800Y546529D01*
X335628Y548115D01*
X339772Y548115D01*
X343600Y546529D01*
X346529Y543600D01*
X348115Y539772D01*
X348115Y535628D01*
X346529Y531800D01*
X343600Y528871D01*
X339772Y527285D01*
X335628Y527285D01*
X333289Y528254D01*
X333175Y528281D01*
X333062Y528310D01*
X333055Y528309D01*
X333049Y528310D01*
X332933Y528299D01*
X332817Y528290D01*
X332811Y528288D01*
X332805Y528287D01*
X332697Y528240D01*
X332590Y528194D01*
X332584Y528189D01*
X332580Y528187D01*
X332566Y528175D01*
X332459Y528089D01*
X325323Y520953D01*
X320213Y520953D01*
X320142Y520942D01*
X320071Y520940D01*
X320022Y520922D01*
X319970Y520914D01*
X319907Y520880D01*
X319840Y520855D01*
X319799Y520823D01*
X319753Y520798D01*
X319704Y520746D01*
X319648Y520702D01*
X319620Y520658D01*
X319584Y520620D01*
X319554Y520555D01*
X319515Y520495D01*
X319502Y520444D01*
X319480Y520397D01*
X319472Y520326D01*
X319455Y520256D01*
X319459Y520204D01*
X319453Y520153D01*
X319468Y520082D01*
X319474Y520011D01*
X319494Y519963D01*
X319505Y519912D01*
X319542Y519851D01*
X319570Y519785D01*
X319615Y519729D01*
X319631Y519701D01*
X319633Y519700D01*
X319650Y519685D01*
X319675Y519654D01*
X321129Y518200D01*
X322715Y514372D01*
X322715Y510228D01*
X321129Y506400D01*
X318200Y503471D01*
X316327Y502695D01*
X316227Y502634D01*
X316127Y502574D01*
X316123Y502569D01*
X316118Y502565D01*
X316043Y502475D01*
X315967Y502387D01*
X315965Y502381D01*
X315961Y502376D01*
X315919Y502268D01*
X315875Y502158D01*
X315874Y502151D01*
X315873Y502146D01*
X315872Y502128D01*
X315857Y501992D01*
X315857Y489589D01*
X315871Y489498D01*
X315879Y489408D01*
X315891Y489378D01*
X315896Y489346D01*
X315939Y489265D01*
X315975Y489181D01*
X316001Y489149D01*
X316012Y489128D01*
X316035Y489106D01*
X316080Y489050D01*
X322886Y482244D01*
X322980Y482176D01*
X323075Y482106D01*
X323081Y482104D01*
X323086Y482100D01*
X323197Y482066D01*
X323309Y482030D01*
X323315Y482030D01*
X323321Y482028D01*
X323438Y482031D01*
X323554Y482032D01*
X323562Y482034D01*
X323567Y482034D01*
X323584Y482041D01*
X323716Y482079D01*
X325588Y482855D01*
X329732Y482855D01*
X333560Y481269D01*
X336489Y478340D01*
X338075Y474512D01*
X338075Y470368D01*
X336489Y466540D01*
X333560Y463611D01*
X329732Y462025D01*
X325588Y462025D01*
X321760Y463611D01*
X318831Y466540D01*
X317245Y470368D01*
X317245Y474512D01*
X318021Y476384D01*
X318048Y476498D01*
X318076Y476612D01*
X318076Y476618D01*
X318077Y476624D01*
X318066Y476740D01*
X318057Y476857D01*
X318055Y476862D01*
X318054Y476869D01*
X318006Y476976D01*
X317961Y477083D01*
X317956Y477089D01*
X317954Y477093D01*
X317941Y477107D01*
X317856Y477214D01*
X308743Y486327D01*
X308743Y501992D01*
X308724Y502107D01*
X308707Y502223D01*
X308705Y502228D01*
X308704Y502235D01*
X308649Y502337D01*
X308596Y502442D01*
X308591Y502446D01*
X308588Y502452D01*
X308504Y502532D01*
X308420Y502614D01*
X308414Y502618D01*
X308410Y502621D01*
X308393Y502629D01*
X308273Y502695D01*
X306400Y503471D01*
X304576Y505295D01*
X304518Y505337D01*
X304466Y505386D01*
X304419Y505408D01*
X304377Y505439D01*
X304308Y505460D01*
X304243Y505490D01*
X304191Y505496D01*
X304141Y505511D01*
X304070Y505509D01*
X303999Y505517D01*
X303948Y505506D01*
X303896Y505505D01*
X303828Y505480D01*
X303758Y505465D01*
X303713Y505438D01*
X303665Y505420D01*
X303609Y505375D01*
X303547Y505339D01*
X303513Y505299D01*
X303473Y505266D01*
X303434Y505206D01*
X303387Y505152D01*
X303368Y505103D01*
X303340Y505060D01*
X303322Y504990D01*
X303295Y504924D01*
X303287Y504852D01*
X303279Y504821D01*
X303281Y504798D01*
X303277Y504757D01*
X303277Y483616D01*
X303280Y483596D01*
X303278Y483577D01*
X303300Y483475D01*
X303316Y483373D01*
X303326Y483356D01*
X303330Y483336D01*
X303383Y483247D01*
X303432Y483156D01*
X303446Y483142D01*
X303456Y483125D01*
X303535Y483058D01*
X303610Y482986D01*
X303628Y482978D01*
X303643Y482965D01*
X303739Y482926D01*
X303833Y482883D01*
X303853Y482881D01*
X303871Y482873D01*
X304038Y482855D01*
X304332Y482855D01*
X308160Y481269D01*
X311089Y478340D01*
X312675Y474512D01*
X312675Y470368D01*
X311089Y466540D01*
X308160Y463611D01*
X304332Y462025D01*
X300188Y462025D01*
X296360Y463611D01*
X294416Y465555D01*
X294358Y465597D01*
X294306Y465646D01*
X294259Y465668D01*
X294217Y465699D01*
X294148Y465720D01*
X294083Y465750D01*
X294031Y465756D01*
X293981Y465771D01*
X293910Y465769D01*
X293839Y465777D01*
X293788Y465766D01*
X293736Y465765D01*
X293668Y465740D01*
X293598Y465725D01*
X293553Y465698D01*
X293505Y465680D01*
X293449Y465635D01*
X293387Y465599D01*
X293353Y465559D01*
X293313Y465526D01*
X293274Y465466D01*
X293227Y465412D01*
X293208Y465363D01*
X293180Y465320D01*
X293162Y465250D01*
X293135Y465184D01*
X293127Y465112D01*
X293119Y465081D01*
X293121Y465058D01*
X293117Y465017D01*
X293117Y459537D01*
X284683Y451103D01*
X67521Y451103D01*
X67431Y451089D01*
X67340Y451081D01*
X67310Y451069D01*
X67278Y451064D01*
X67197Y451021D01*
X67114Y450985D01*
X67081Y450959D01*
X67061Y450948D01*
X67039Y450925D01*
X66983Y450880D01*
X65648Y449545D01*
X63430Y448627D01*
X61030Y448627D01*
X58711Y449587D01*
X58667Y449598D01*
X58625Y449617D01*
X58548Y449626D01*
X58472Y449643D01*
X58426Y449639D01*
X58381Y449644D01*
X58304Y449628D01*
X58227Y449620D01*
X58185Y449602D01*
X58140Y449592D01*
X58073Y449552D01*
X58002Y449520D01*
X57968Y449489D01*
X57929Y449466D01*
X57878Y449407D01*
X57821Y449354D01*
X57799Y449314D01*
X57769Y449279D01*
X57740Y449207D01*
X57703Y449138D01*
X57694Y449093D01*
X57677Y449051D01*
X57662Y448915D01*
X57659Y448896D01*
X57660Y448891D01*
X57659Y448884D01*
X57659Y427811D01*
X57670Y427741D01*
X57672Y427669D01*
X57690Y427620D01*
X57698Y427568D01*
X57732Y427505D01*
X57757Y427438D01*
X57789Y427397D01*
X57814Y427351D01*
X57866Y427302D01*
X57910Y427246D01*
X57954Y427218D01*
X57992Y427182D01*
X58057Y427152D01*
X58117Y427113D01*
X58168Y427100D01*
X58215Y427078D01*
X58286Y427070D01*
X58356Y427053D01*
X58408Y427057D01*
X58459Y427051D01*
X58530Y427066D01*
X58601Y427072D01*
X58649Y427092D01*
X58700Y427103D01*
X58761Y427140D01*
X58827Y427168D01*
X58883Y427213D01*
X58911Y427229D01*
X58926Y427247D01*
X58958Y427273D01*
X60691Y429006D01*
X64986Y430785D01*
X69634Y430785D01*
X73929Y429006D01*
X77216Y425719D01*
X78995Y421424D01*
X78995Y416776D01*
X77216Y412481D01*
X73929Y409194D01*
X69634Y407415D01*
X64986Y407415D01*
X60691Y409194D01*
X58958Y410927D01*
X58900Y410969D01*
X58848Y411018D01*
X58801Y411040D01*
X58759Y411071D01*
X58690Y411092D01*
X58625Y411122D01*
X58573Y411128D01*
X58523Y411143D01*
X58452Y411141D01*
X58381Y411149D01*
X58330Y411138D01*
X58278Y411137D01*
X58210Y411112D01*
X58140Y411097D01*
X58095Y411070D01*
X58047Y411052D01*
X57991Y411007D01*
X57929Y410971D01*
X57895Y410931D01*
X57855Y410898D01*
X57816Y410838D01*
X57769Y410784D01*
X57750Y410735D01*
X57722Y410692D01*
X57704Y410622D01*
X57677Y410555D01*
X57669Y410484D01*
X57661Y410453D01*
X57663Y410430D01*
X57659Y410389D01*
X57659Y390018D01*
X57662Y389995D01*
X57660Y389978D01*
X57675Y389912D01*
X57681Y389837D01*
X57693Y389807D01*
X57698Y389775D01*
X57709Y389756D01*
X57713Y389737D01*
X57748Y389678D01*
X57777Y389610D01*
X57803Y389578D01*
X57814Y389557D01*
X57829Y389543D01*
X57839Y389526D01*
X57856Y389511D01*
X57882Y389479D01*
X133351Y314010D01*
X133351Y264987D01*
X133370Y264872D01*
X133387Y264756D01*
X133389Y264751D01*
X133390Y264744D01*
X133445Y264642D01*
X133498Y264537D01*
X133503Y264532D01*
X133506Y264527D01*
X133590Y264447D01*
X133674Y264365D01*
X133680Y264361D01*
X133684Y264358D01*
X133701Y264350D01*
X133821Y264284D01*
X135253Y263690D01*
X138468Y260475D01*
X140209Y256274D01*
X140209Y251726D01*
X138468Y247525D01*
X135253Y244310D01*
X131052Y242569D01*
X126504Y242569D01*
X122303Y244310D01*
X119088Y247525D01*
X117347Y251726D01*
X117347Y256274D01*
X119088Y260475D01*
X122303Y263690D01*
X123735Y264284D01*
X123835Y264346D01*
X123935Y264405D01*
X123939Y264410D01*
X123944Y264413D01*
X124019Y264504D01*
X124095Y264592D01*
X124097Y264598D01*
X124101Y264603D01*
X124143Y264711D01*
X124187Y264820D01*
X124188Y264828D01*
X124189Y264832D01*
X124190Y264851D01*
X124205Y264987D01*
X124205Y309907D01*
X124191Y309997D01*
X124183Y310088D01*
X124171Y310118D01*
X124166Y310150D01*
X124123Y310230D01*
X124087Y310314D01*
X124061Y310346D01*
X124050Y310367D01*
X124027Y310389D01*
X123982Y310445D01*
X105694Y328733D01*
X105636Y328775D01*
X105584Y328824D01*
X105537Y328846D01*
X105495Y328877D01*
X105426Y328898D01*
X105361Y328928D01*
X105309Y328934D01*
X105259Y328949D01*
X105188Y328947D01*
X105117Y328955D01*
X105066Y328944D01*
X105014Y328943D01*
X104946Y328918D01*
X104876Y328903D01*
X104831Y328876D01*
X104783Y328858D01*
X104727Y328813D01*
X104665Y328777D01*
X104631Y328737D01*
X104591Y328704D01*
X104552Y328644D01*
X104505Y328590D01*
X104486Y328541D01*
X104458Y328498D01*
X104440Y328428D01*
X104413Y328362D01*
X104405Y328290D01*
X104397Y328259D01*
X104399Y328236D01*
X104395Y328195D01*
X104395Y264987D01*
X104414Y264872D01*
X104431Y264756D01*
X104433Y264751D01*
X104434Y264744D01*
X104489Y264642D01*
X104542Y264537D01*
X104547Y264532D01*
X104550Y264527D01*
X104634Y264447D01*
X104718Y264365D01*
X104724Y264361D01*
X104728Y264358D01*
X104745Y264350D01*
X104865Y264284D01*
X106297Y263690D01*
X109512Y260475D01*
X111253Y256274D01*
X111253Y251726D01*
X109512Y247525D01*
X106297Y244310D01*
X102096Y242569D01*
X97548Y242569D01*
X93347Y244310D01*
X90132Y247525D01*
X88391Y251726D01*
X88391Y256274D01*
X90132Y260475D01*
X93347Y263690D01*
X94779Y264284D01*
X94879Y264346D01*
X94979Y264405D01*
X94983Y264410D01*
X94988Y264413D01*
X95063Y264504D01*
X95139Y264592D01*
X95141Y264598D01*
X95145Y264603D01*
X95187Y264711D01*
X95231Y264820D01*
X95232Y264828D01*
X95233Y264832D01*
X95234Y264851D01*
X95249Y264987D01*
X95249Y328805D01*
X95235Y328895D01*
X95227Y328986D01*
X95215Y329016D01*
X95210Y329048D01*
X95167Y329128D01*
X95131Y329212D01*
X95105Y329244D01*
X95094Y329265D01*
X95071Y329287D01*
X95026Y329343D01*
X41401Y382968D01*
X41401Y447117D01*
X41398Y447134D01*
X41400Y447150D01*
X41386Y447217D01*
X41379Y447298D01*
X41367Y447327D01*
X41362Y447359D01*
X41350Y447381D01*
X41348Y447391D01*
X41322Y447434D01*
X41319Y447440D01*
X41283Y447524D01*
X41257Y447556D01*
X41246Y447577D01*
X41224Y447598D01*
X41222Y447602D01*
X41219Y447604D01*
X41178Y447655D01*
X26618Y462215D01*
X26524Y462283D01*
X26429Y462353D01*
X26423Y462355D01*
X26418Y462359D01*
X26307Y462393D01*
X26195Y462429D01*
X26189Y462429D01*
X26183Y462431D01*
X26066Y462428D01*
X25950Y462427D01*
X25942Y462425D01*
X25937Y462425D01*
X25920Y462418D01*
X25788Y462380D01*
X24932Y462025D01*
X20788Y462025D01*
X16960Y463611D01*
X14031Y466540D01*
X12445Y470368D01*
X12445Y474512D01*
X14031Y478340D01*
X16960Y481269D01*
X20788Y482855D01*
X22849Y482855D01*
X22940Y482869D01*
X23030Y482877D01*
X23060Y482889D01*
X23092Y482894D01*
X23173Y482937D01*
X23257Y482973D01*
X23289Y482999D01*
X23310Y483010D01*
X23332Y483033D01*
X23388Y483078D01*
X31547Y491237D01*
X46471Y491237D01*
X46562Y491251D01*
X46652Y491259D01*
X46682Y491271D01*
X46714Y491276D01*
X46795Y491319D01*
X46879Y491355D01*
X46911Y491381D01*
X46932Y491392D01*
X46954Y491415D01*
X46957Y491417D01*
X46958Y491418D01*
X46959Y491419D01*
X47010Y491460D01*
X53988Y498438D01*
X54002Y498458D01*
X54021Y498473D01*
X54074Y498557D01*
X54132Y498638D01*
X54139Y498661D01*
X54152Y498681D01*
X54175Y498778D01*
X54204Y498873D01*
X54204Y498897D01*
X54209Y498921D01*
X54200Y499019D01*
X54198Y499119D01*
X54190Y499142D01*
X54187Y499166D01*
X54148Y499257D01*
X54113Y499350D01*
X54098Y499369D01*
X54089Y499391D01*
X54022Y499464D01*
X53960Y499542D01*
X53939Y499555D01*
X53923Y499573D01*
X53836Y499621D01*
X53753Y499675D01*
X53729Y499681D01*
X53708Y499693D01*
X53611Y499711D01*
X53514Y499735D01*
X53490Y499733D01*
X53467Y499738D01*
X53368Y499724D01*
X53269Y499716D01*
X53247Y499707D01*
X53223Y499703D01*
X53069Y499636D01*
X46966Y496112D01*
X39081Y493999D01*
X30919Y493999D01*
X23034Y496112D01*
X15965Y500193D01*
X10193Y505965D01*
X6112Y513034D01*
X4037Y520777D01*
X4027Y520799D01*
X4023Y520823D01*
X3977Y520910D01*
X3936Y521001D01*
X3920Y521019D01*
X3908Y521040D01*
X3836Y521108D01*
X3769Y521181D01*
X3748Y521193D01*
X3730Y521209D01*
X3640Y521251D01*
X3553Y521299D01*
X3529Y521303D01*
X3507Y521313D01*
X3408Y521324D01*
X3310Y521341D01*
X3286Y521337D01*
X3263Y521340D01*
X3165Y521319D01*
X3067Y521304D01*
X3046Y521293D01*
X3022Y521288D01*
X2937Y521237D01*
X2848Y521191D01*
X2832Y521174D01*
X2811Y521162D01*
X2746Y521086D01*
X2677Y521015D01*
X2667Y520993D01*
X2651Y520975D01*
X2614Y520882D01*
X2571Y520793D01*
X2568Y520769D01*
X2559Y520747D01*
X2541Y520580D01*
X2541Y367792D01*
X2544Y367772D01*
X2542Y367753D01*
X2564Y367651D01*
X2580Y367549D01*
X2590Y367532D01*
X2594Y367512D01*
X2647Y367423D01*
X2696Y367332D01*
X2710Y367318D01*
X2720Y367301D01*
X2799Y367234D01*
X2874Y367162D01*
X2892Y367154D01*
X2907Y367141D01*
X3003Y367102D01*
X3097Y367059D01*
X3117Y367057D01*
X3135Y367049D01*
X3302Y367031D01*
X39212Y367031D01*
X43338Y364648D01*
X45721Y360522D01*
X45721Y199548D01*
X43338Y195422D01*
X39212Y193039D01*
X3302Y193039D01*
X3282Y193036D01*
X3263Y193038D01*
X3161Y193016D01*
X3059Y193000D01*
X3042Y192990D01*
X3022Y192986D01*
X2933Y192933D01*
X2842Y192884D01*
X2828Y192870D01*
X2811Y192860D01*
X2744Y192781D01*
X2672Y192706D01*
X2664Y192688D01*
X2651Y192673D01*
X2612Y192577D01*
X2569Y192483D01*
X2567Y192463D01*
X2559Y192445D01*
X2541Y192278D01*
X2541Y39420D01*
X2545Y39396D01*
X2542Y39372D01*
X2564Y39275D01*
X2580Y39177D01*
X2592Y39156D01*
X2597Y39133D01*
X2649Y39048D01*
X2696Y38960D01*
X2713Y38943D01*
X2726Y38923D01*
X2802Y38859D01*
X2874Y38791D01*
X2896Y38781D01*
X2914Y38765D01*
X3007Y38729D01*
X3097Y38687D01*
X3121Y38684D01*
X3143Y38676D01*
X3243Y38671D01*
X3341Y38660D01*
X3365Y38665D01*
X3389Y38664D01*
X3485Y38691D01*
X3582Y38712D01*
X3602Y38725D01*
X3626Y38731D01*
X3708Y38787D01*
X3793Y38838D01*
X3809Y38857D01*
X3828Y38870D01*
X3888Y38950D01*
X3953Y39025D01*
X3962Y39048D01*
X3976Y39067D01*
X4037Y39223D01*
X6112Y46966D01*
X10193Y54035D01*
X15965Y59807D01*
X23034Y63888D01*
X30919Y66001D01*
X39081Y66001D01*
X46966Y63888D01*
X54035Y59807D01*
X59807Y54035D01*
X63888Y46966D01*
X66001Y39081D01*
X66001Y30919D01*
X63888Y23034D01*
X59807Y15965D01*
X54035Y10193D01*
X46966Y6112D01*
X39223Y4037D01*
X39201Y4027D01*
X39177Y4023D01*
X39090Y3977D01*
X38999Y3936D01*
X38981Y3920D01*
X38960Y3908D01*
X38892Y3836D01*
X38819Y3769D01*
X38807Y3748D01*
X38791Y3730D01*
X38749Y3640D01*
X38701Y3553D01*
X38697Y3529D01*
X38687Y3507D01*
X38676Y3408D01*
X38659Y3310D01*
X38663Y3286D01*
X38660Y3263D01*
X38681Y3165D01*
X38696Y3067D01*
X38707Y3046D01*
X38712Y3022D01*
X38763Y2937D01*
X38809Y2848D01*
X38826Y2832D01*
X38838Y2811D01*
X38914Y2746D01*
X38985Y2677D01*
X39007Y2667D01*
X39025Y2651D01*
X39118Y2614D01*
X39207Y2571D01*
X39231Y2568D01*
X39253Y2559D01*
X39420Y2541D01*
X454702Y2541D01*
X454796Y2556D01*
G37*
%LPC*%
G36*
X444658Y29209D02*
X444658Y29209D01*
X440532Y31592D01*
X438149Y35718D01*
X438149Y195422D01*
X440532Y199548D01*
X444658Y201931D01*
X455772Y201931D01*
X459898Y199548D01*
X462281Y195422D01*
X462281Y35718D01*
X459898Y31592D01*
X455772Y29209D01*
X444658Y29209D01*
G37*
%LPD*%
%LPC*%
G36*
X198588Y462025D02*
X198588Y462025D01*
X194760Y463611D01*
X191831Y466540D01*
X190245Y470368D01*
X190245Y474512D01*
X191831Y478340D01*
X194760Y481269D01*
X198588Y482855D01*
X202732Y482855D01*
X204604Y482079D01*
X204718Y482052D01*
X204832Y482024D01*
X204838Y482024D01*
X204844Y482023D01*
X204960Y482034D01*
X205077Y482043D01*
X205082Y482045D01*
X205089Y482046D01*
X205196Y482094D01*
X205303Y482139D01*
X205309Y482144D01*
X205313Y482146D01*
X205327Y482159D01*
X205434Y482244D01*
X227892Y504702D01*
X227904Y504719D01*
X227920Y504731D01*
X227976Y504818D01*
X228036Y504902D01*
X228042Y504921D01*
X228053Y504938D01*
X228078Y505038D01*
X228108Y505137D01*
X228108Y505157D01*
X228113Y505176D01*
X228105Y505279D01*
X228102Y505383D01*
X228095Y505402D01*
X228094Y505422D01*
X228053Y505516D01*
X228017Y505614D01*
X228005Y505630D01*
X227997Y505648D01*
X227892Y505779D01*
X227271Y506400D01*
X225685Y510228D01*
X225685Y514372D01*
X227271Y518200D01*
X230200Y521129D01*
X234028Y522715D01*
X238172Y522715D01*
X242000Y521129D01*
X244929Y518200D01*
X246515Y514372D01*
X246515Y510228D01*
X244929Y506400D01*
X242000Y503471D01*
X238172Y501885D01*
X235451Y501885D01*
X235360Y501871D01*
X235270Y501863D01*
X235240Y501851D01*
X235208Y501846D01*
X235127Y501803D01*
X235043Y501767D01*
X235011Y501741D01*
X234990Y501730D01*
X234968Y501707D01*
X234912Y501662D01*
X210464Y477214D01*
X210396Y477120D01*
X210326Y477025D01*
X210324Y477019D01*
X210320Y477014D01*
X210286Y476903D01*
X210250Y476791D01*
X210250Y476785D01*
X210248Y476779D01*
X210251Y476662D01*
X210252Y476546D01*
X210254Y476538D01*
X210254Y476533D01*
X210261Y476516D01*
X210299Y476384D01*
X211075Y474512D01*
X211075Y470368D01*
X209489Y466540D01*
X206560Y463611D01*
X202732Y462025D01*
X198588Y462025D01*
G37*
%LPD*%
%LPC*%
G36*
X350988Y462025D02*
X350988Y462025D01*
X347160Y463611D01*
X344231Y466540D01*
X342645Y470368D01*
X342645Y474512D01*
X343421Y476384D01*
X343448Y476498D01*
X343476Y476612D01*
X343476Y476618D01*
X343477Y476624D01*
X343466Y476740D01*
X343457Y476857D01*
X343455Y476862D01*
X343454Y476869D01*
X343406Y476976D01*
X343361Y477083D01*
X343356Y477089D01*
X343354Y477093D01*
X343341Y477107D01*
X343256Y477214D01*
X334143Y486327D01*
X334143Y501992D01*
X334124Y502107D01*
X334107Y502223D01*
X334105Y502228D01*
X334104Y502235D01*
X334049Y502337D01*
X333996Y502442D01*
X333991Y502446D01*
X333988Y502452D01*
X333904Y502532D01*
X333820Y502614D01*
X333814Y502618D01*
X333810Y502621D01*
X333793Y502629D01*
X333673Y502695D01*
X331800Y503471D01*
X328871Y506400D01*
X327285Y510228D01*
X327285Y514372D01*
X328871Y518200D01*
X331800Y521129D01*
X335628Y522715D01*
X339772Y522715D01*
X343600Y521129D01*
X346529Y518200D01*
X348115Y514372D01*
X348115Y510228D01*
X346529Y506400D01*
X343600Y503471D01*
X341727Y502695D01*
X341627Y502634D01*
X341527Y502574D01*
X341523Y502569D01*
X341518Y502565D01*
X341443Y502475D01*
X341367Y502387D01*
X341365Y502381D01*
X341361Y502376D01*
X341319Y502268D01*
X341275Y502158D01*
X341274Y502151D01*
X341273Y502146D01*
X341272Y502128D01*
X341257Y501992D01*
X341257Y489589D01*
X341271Y489498D01*
X341279Y489408D01*
X341291Y489378D01*
X341296Y489346D01*
X341339Y489265D01*
X341375Y489181D01*
X341401Y489149D01*
X341412Y489128D01*
X341435Y489106D01*
X341480Y489050D01*
X348286Y482244D01*
X348380Y482176D01*
X348475Y482106D01*
X348481Y482104D01*
X348486Y482100D01*
X348597Y482066D01*
X348709Y482030D01*
X348715Y482030D01*
X348721Y482028D01*
X348838Y482031D01*
X348954Y482032D01*
X348962Y482034D01*
X348967Y482034D01*
X348984Y482041D01*
X349116Y482079D01*
X350988Y482855D01*
X355132Y482855D01*
X358960Y481269D01*
X361889Y478340D01*
X363475Y474512D01*
X363475Y470368D01*
X361889Y466540D01*
X358960Y463611D01*
X355132Y462025D01*
X350988Y462025D01*
G37*
%LPD*%
%LPC*%
G36*
X420586Y51815D02*
X420586Y51815D01*
X416291Y53594D01*
X413004Y56881D01*
X411225Y61176D01*
X411225Y65824D01*
X413004Y70119D01*
X416291Y73406D01*
X420586Y75185D01*
X425234Y75185D01*
X429529Y73406D01*
X432816Y70119D01*
X434595Y65824D01*
X434595Y61176D01*
X432816Y56881D01*
X429529Y53594D01*
X425234Y51815D01*
X420586Y51815D01*
G37*
%LPD*%
%LPC*%
G36*
X141186Y51815D02*
X141186Y51815D01*
X136891Y53594D01*
X133604Y56881D01*
X131825Y61176D01*
X131825Y65824D01*
X133604Y70119D01*
X136891Y73406D01*
X141186Y75185D01*
X145834Y75185D01*
X150129Y73406D01*
X153416Y70119D01*
X155195Y65824D01*
X155195Y61176D01*
X153416Y56881D01*
X150129Y53594D01*
X145834Y51815D01*
X141186Y51815D01*
G37*
%LPD*%
%LPC*%
G36*
X217386Y51815D02*
X217386Y51815D01*
X213091Y53594D01*
X209804Y56881D01*
X208025Y61176D01*
X208025Y65824D01*
X209804Y70119D01*
X213091Y73406D01*
X217386Y75185D01*
X222034Y75185D01*
X226329Y73406D01*
X229616Y70119D01*
X231395Y65824D01*
X231395Y61176D01*
X229616Y56881D01*
X226329Y53594D01*
X222034Y51815D01*
X217386Y51815D01*
G37*
%LPD*%
%LPC*%
G36*
X166586Y51815D02*
X166586Y51815D01*
X162291Y53594D01*
X159004Y56881D01*
X157225Y61176D01*
X157225Y65824D01*
X159004Y70119D01*
X162291Y73406D01*
X166586Y75185D01*
X171234Y75185D01*
X175529Y73406D01*
X178816Y70119D01*
X180595Y65824D01*
X180595Y61176D01*
X178816Y56881D01*
X175529Y53594D01*
X171234Y51815D01*
X166586Y51815D01*
G37*
%LPD*%
%LPC*%
G36*
X115786Y51815D02*
X115786Y51815D01*
X111491Y53594D01*
X108204Y56881D01*
X106425Y61176D01*
X106425Y65824D01*
X108204Y70119D01*
X111491Y73406D01*
X115786Y75185D01*
X120434Y75185D01*
X124729Y73406D01*
X128016Y70119D01*
X129795Y65824D01*
X129795Y61176D01*
X128016Y56881D01*
X124729Y53594D01*
X120434Y51815D01*
X115786Y51815D01*
G37*
%LPD*%
%LPC*%
G36*
X191986Y51815D02*
X191986Y51815D01*
X187691Y53594D01*
X184404Y56881D01*
X182625Y61176D01*
X182625Y65824D01*
X184404Y70119D01*
X187691Y73406D01*
X191986Y75185D01*
X196634Y75185D01*
X200929Y73406D01*
X204216Y70119D01*
X205995Y65824D01*
X205995Y61176D01*
X204216Y56881D01*
X200929Y53594D01*
X196634Y51815D01*
X191986Y51815D01*
G37*
%LPD*%
%LPC*%
G36*
X293586Y407415D02*
X293586Y407415D01*
X289291Y409194D01*
X286004Y412481D01*
X284225Y416776D01*
X284225Y421424D01*
X286004Y425719D01*
X289291Y429006D01*
X293586Y430785D01*
X298234Y430785D01*
X302529Y429006D01*
X305816Y425719D01*
X307595Y421424D01*
X307595Y416776D01*
X305816Y412481D01*
X302529Y409194D01*
X298234Y407415D01*
X293586Y407415D01*
G37*
%LPD*%
%LPC*%
G36*
X268186Y407415D02*
X268186Y407415D01*
X263891Y409194D01*
X260604Y412481D01*
X258825Y416776D01*
X258825Y421424D01*
X260604Y425719D01*
X263891Y429006D01*
X268186Y430785D01*
X272834Y430785D01*
X277129Y429006D01*
X280416Y425719D01*
X282195Y421424D01*
X282195Y416776D01*
X280416Y412481D01*
X277129Y409194D01*
X272834Y407415D01*
X268186Y407415D01*
G37*
%LPD*%
%LPC*%
G36*
X420586Y407415D02*
X420586Y407415D01*
X416291Y409194D01*
X413004Y412481D01*
X411225Y416776D01*
X411225Y421424D01*
X413004Y425719D01*
X416291Y429006D01*
X420586Y430785D01*
X425234Y430785D01*
X429529Y429006D01*
X432816Y425719D01*
X434595Y421424D01*
X434595Y416776D01*
X432816Y412481D01*
X429529Y409194D01*
X425234Y407415D01*
X420586Y407415D01*
G37*
%LPD*%
%LPC*%
G36*
X242786Y407415D02*
X242786Y407415D01*
X238491Y409194D01*
X235204Y412481D01*
X233425Y416776D01*
X233425Y421424D01*
X235204Y425719D01*
X238491Y429006D01*
X242786Y430785D01*
X247434Y430785D01*
X251729Y429006D01*
X255016Y425719D01*
X256795Y421424D01*
X256795Y416776D01*
X255016Y412481D01*
X251729Y409194D01*
X247434Y407415D01*
X242786Y407415D01*
G37*
%LPD*%
%LPC*%
G36*
X90386Y407415D02*
X90386Y407415D01*
X86091Y409194D01*
X82804Y412481D01*
X81025Y416776D01*
X81025Y421424D01*
X82804Y425719D01*
X86091Y429006D01*
X90386Y430785D01*
X95034Y430785D01*
X99329Y429006D01*
X102616Y425719D01*
X104395Y421424D01*
X104395Y416776D01*
X102616Y412481D01*
X99329Y409194D01*
X95034Y407415D01*
X90386Y407415D01*
G37*
%LPD*%
%LPC*%
G36*
X217386Y407415D02*
X217386Y407415D01*
X213091Y409194D01*
X209804Y412481D01*
X208025Y416776D01*
X208025Y421424D01*
X209804Y425719D01*
X213091Y429006D01*
X217386Y430785D01*
X222034Y430785D01*
X226329Y429006D01*
X229616Y425719D01*
X231395Y421424D01*
X231395Y416776D01*
X229616Y412481D01*
X226329Y409194D01*
X222034Y407415D01*
X217386Y407415D01*
G37*
%LPD*%
%LPC*%
G36*
X191986Y407415D02*
X191986Y407415D01*
X187691Y409194D01*
X184404Y412481D01*
X182625Y416776D01*
X182625Y421424D01*
X184404Y425719D01*
X187691Y429006D01*
X191986Y430785D01*
X196634Y430785D01*
X200929Y429006D01*
X204216Y425719D01*
X205995Y421424D01*
X205995Y416776D01*
X204216Y412481D01*
X200929Y409194D01*
X196634Y407415D01*
X191986Y407415D01*
G37*
%LPD*%
%LPC*%
G36*
X166586Y407415D02*
X166586Y407415D01*
X162291Y409194D01*
X159004Y412481D01*
X157225Y416776D01*
X157225Y421424D01*
X159004Y425719D01*
X162291Y429006D01*
X166586Y430785D01*
X171234Y430785D01*
X175529Y429006D01*
X178816Y425719D01*
X180595Y421424D01*
X180595Y416776D01*
X178816Y412481D01*
X175529Y409194D01*
X171234Y407415D01*
X166586Y407415D01*
G37*
%LPD*%
%LPC*%
G36*
X141186Y407415D02*
X141186Y407415D01*
X136891Y409194D01*
X133604Y412481D01*
X131825Y416776D01*
X131825Y421424D01*
X133604Y425719D01*
X136891Y429006D01*
X141186Y430785D01*
X145834Y430785D01*
X150129Y429006D01*
X153416Y425719D01*
X155195Y421424D01*
X155195Y416776D01*
X153416Y412481D01*
X150129Y409194D01*
X145834Y407415D01*
X141186Y407415D01*
G37*
%LPD*%
%LPC*%
G36*
X496786Y407415D02*
X496786Y407415D01*
X492491Y409194D01*
X489204Y412481D01*
X487425Y416776D01*
X487425Y421424D01*
X489204Y425719D01*
X492491Y429006D01*
X496786Y430785D01*
X501434Y430785D01*
X505729Y429006D01*
X509016Y425719D01*
X510795Y421424D01*
X510795Y416776D01*
X509016Y412481D01*
X505729Y409194D01*
X501434Y407415D01*
X496786Y407415D01*
G37*
%LPD*%
%LPC*%
G36*
X522186Y407415D02*
X522186Y407415D01*
X517891Y409194D01*
X514604Y412481D01*
X512825Y416776D01*
X512825Y421424D01*
X514604Y425719D01*
X517891Y429006D01*
X522186Y430785D01*
X526834Y430785D01*
X531129Y429006D01*
X534416Y425719D01*
X536195Y421424D01*
X536195Y416776D01*
X534416Y412481D01*
X531129Y409194D01*
X526834Y407415D01*
X522186Y407415D01*
G37*
%LPD*%
%LPC*%
G36*
X547586Y407415D02*
X547586Y407415D01*
X543291Y409194D01*
X540004Y412481D01*
X538225Y416776D01*
X538225Y421424D01*
X540004Y425719D01*
X543291Y429006D01*
X547586Y430785D01*
X552234Y430785D01*
X556529Y429006D01*
X559816Y425719D01*
X561595Y421424D01*
X561595Y416776D01*
X559816Y412481D01*
X556529Y409194D01*
X552234Y407415D01*
X547586Y407415D01*
G37*
%LPD*%
%LPC*%
G36*
X572986Y407415D02*
X572986Y407415D01*
X568691Y409194D01*
X565404Y412481D01*
X563625Y416776D01*
X563625Y421424D01*
X565404Y425719D01*
X568691Y429006D01*
X572986Y430785D01*
X577634Y430785D01*
X581929Y429006D01*
X585216Y425719D01*
X586995Y421424D01*
X586995Y416776D01*
X585216Y412481D01*
X581929Y409194D01*
X577634Y407415D01*
X572986Y407415D01*
G37*
%LPD*%
%LPC*%
G36*
X471386Y407415D02*
X471386Y407415D01*
X467091Y409194D01*
X463804Y412481D01*
X462025Y416776D01*
X462025Y421424D01*
X463804Y425719D01*
X467091Y429006D01*
X471386Y430785D01*
X476034Y430785D01*
X480329Y429006D01*
X483616Y425719D01*
X485395Y421424D01*
X485395Y416776D01*
X483616Y412481D01*
X480329Y409194D01*
X476034Y407415D01*
X471386Y407415D01*
G37*
%LPD*%
%LPC*%
G36*
X369786Y407415D02*
X369786Y407415D01*
X365491Y409194D01*
X362204Y412481D01*
X360425Y416776D01*
X360425Y421424D01*
X362204Y425719D01*
X365491Y429006D01*
X369786Y430785D01*
X374434Y430785D01*
X378729Y429006D01*
X382016Y425719D01*
X383795Y421424D01*
X383795Y416776D01*
X382016Y412481D01*
X378729Y409194D01*
X374434Y407415D01*
X369786Y407415D01*
G37*
%LPD*%
%LPC*%
G36*
X268186Y51815D02*
X268186Y51815D01*
X263891Y53594D01*
X260604Y56881D01*
X258825Y61176D01*
X258825Y65824D01*
X260604Y70119D01*
X263891Y73406D01*
X268186Y75185D01*
X272834Y75185D01*
X277129Y73406D01*
X280416Y70119D01*
X282195Y65824D01*
X282195Y61176D01*
X280416Y56881D01*
X277129Y53594D01*
X272834Y51815D01*
X268186Y51815D01*
G37*
%LPD*%
%LPC*%
G36*
X242786Y51815D02*
X242786Y51815D01*
X238491Y53594D01*
X235204Y56881D01*
X233425Y61176D01*
X233425Y65824D01*
X235204Y70119D01*
X238491Y73406D01*
X242786Y75185D01*
X247434Y75185D01*
X251729Y73406D01*
X255016Y70119D01*
X256795Y65824D01*
X256795Y61176D01*
X255016Y56881D01*
X251729Y53594D01*
X247434Y51815D01*
X242786Y51815D01*
G37*
%LPD*%
%LPC*%
G36*
X293586Y51815D02*
X293586Y51815D01*
X289291Y53594D01*
X286004Y56881D01*
X284225Y61176D01*
X284225Y65824D01*
X286004Y70119D01*
X289291Y73406D01*
X293586Y75185D01*
X298234Y75185D01*
X302529Y73406D01*
X305816Y70119D01*
X307595Y65824D01*
X307595Y61176D01*
X305816Y56881D01*
X302529Y53594D01*
X298234Y51815D01*
X293586Y51815D01*
G37*
%LPD*%
%LPC*%
G36*
X395186Y51815D02*
X395186Y51815D01*
X390891Y53594D01*
X387604Y56881D01*
X385825Y61176D01*
X385825Y65824D01*
X387604Y70119D01*
X390891Y73406D01*
X395186Y75185D01*
X399834Y75185D01*
X404129Y73406D01*
X407416Y70119D01*
X409195Y65824D01*
X409195Y61176D01*
X407416Y56881D01*
X404129Y53594D01*
X399834Y51815D01*
X395186Y51815D01*
G37*
%LPD*%
%LPC*%
G36*
X445986Y407415D02*
X445986Y407415D01*
X441691Y409194D01*
X438404Y412481D01*
X436625Y416776D01*
X436625Y421424D01*
X438404Y425719D01*
X441691Y429006D01*
X445986Y430785D01*
X450634Y430785D01*
X454929Y429006D01*
X458216Y425719D01*
X459995Y421424D01*
X459995Y416776D01*
X458216Y412481D01*
X454929Y409194D01*
X450634Y407415D01*
X445986Y407415D01*
G37*
%LPD*%
%LPC*%
G36*
X115786Y407415D02*
X115786Y407415D01*
X111491Y409194D01*
X108204Y412481D01*
X106425Y416776D01*
X106425Y421424D01*
X108204Y425719D01*
X111491Y429006D01*
X115786Y430785D01*
X120434Y430785D01*
X124729Y429006D01*
X128016Y425719D01*
X129795Y421424D01*
X129795Y416776D01*
X128016Y412481D01*
X124729Y409194D01*
X120434Y407415D01*
X115786Y407415D01*
G37*
%LPD*%
%LPC*%
G36*
X598386Y407415D02*
X598386Y407415D01*
X594091Y409194D01*
X590804Y412481D01*
X589025Y416776D01*
X589025Y421424D01*
X590804Y425719D01*
X594091Y429006D01*
X598386Y430785D01*
X603034Y430785D01*
X607329Y429006D01*
X610616Y425719D01*
X612395Y421424D01*
X612395Y416776D01*
X610616Y412481D01*
X607329Y409194D01*
X603034Y407415D01*
X598386Y407415D01*
G37*
%LPD*%
%LPC*%
G36*
X395186Y407415D02*
X395186Y407415D01*
X390891Y409194D01*
X387604Y412481D01*
X385825Y416776D01*
X385825Y421424D01*
X387604Y425719D01*
X390891Y429006D01*
X395186Y430785D01*
X399834Y430785D01*
X404129Y429006D01*
X407416Y425719D01*
X409195Y421424D01*
X409195Y416776D01*
X407416Y412481D01*
X404129Y409194D01*
X399834Y407415D01*
X395186Y407415D01*
G37*
%LPD*%
%LPC*%
G36*
X344386Y407415D02*
X344386Y407415D01*
X340091Y409194D01*
X336804Y412481D01*
X335025Y416776D01*
X335025Y421424D01*
X336804Y425719D01*
X340091Y429006D01*
X344386Y430785D01*
X349034Y430785D01*
X353329Y429006D01*
X356616Y425719D01*
X358395Y421424D01*
X358395Y416776D01*
X356616Y412481D01*
X353329Y409194D01*
X349034Y407415D01*
X344386Y407415D01*
G37*
%LPD*%
%LPC*%
G36*
X318986Y407415D02*
X318986Y407415D01*
X314691Y409194D01*
X311404Y412481D01*
X309625Y416776D01*
X309625Y421424D01*
X311404Y425719D01*
X314691Y429006D01*
X318986Y430785D01*
X323634Y430785D01*
X327929Y429006D01*
X331216Y425719D01*
X332995Y421424D01*
X332995Y416776D01*
X331216Y412481D01*
X327929Y409194D01*
X323634Y407415D01*
X318986Y407415D01*
G37*
%LPD*%
%LPC*%
G36*
X318986Y51815D02*
X318986Y51815D01*
X314691Y53594D01*
X311404Y56881D01*
X309625Y61176D01*
X309625Y65824D01*
X311404Y70119D01*
X314691Y73406D01*
X318986Y75185D01*
X323634Y75185D01*
X327929Y73406D01*
X331216Y70119D01*
X332995Y65824D01*
X332995Y61176D01*
X331216Y56881D01*
X327929Y53594D01*
X323634Y51815D01*
X318986Y51815D01*
G37*
%LPD*%
%LPC*%
G36*
X344386Y51815D02*
X344386Y51815D01*
X340091Y53594D01*
X336804Y56881D01*
X335025Y61176D01*
X335025Y65824D01*
X336804Y70119D01*
X340091Y73406D01*
X344386Y75185D01*
X349034Y75185D01*
X353329Y73406D01*
X356616Y70119D01*
X358395Y65824D01*
X358395Y61176D01*
X356616Y56881D01*
X353329Y53594D01*
X349034Y51815D01*
X344386Y51815D01*
G37*
%LPD*%
%LPC*%
G36*
X369786Y51815D02*
X369786Y51815D01*
X365491Y53594D01*
X362204Y56881D01*
X360425Y61176D01*
X360425Y65824D01*
X362204Y70119D01*
X365491Y73406D01*
X369786Y75185D01*
X374434Y75185D01*
X378729Y73406D01*
X382016Y70119D01*
X383795Y65824D01*
X383795Y61176D01*
X382016Y56881D01*
X378729Y53594D01*
X374434Y51815D01*
X369786Y51815D01*
G37*
%LPD*%
%LPC*%
G36*
X353326Y345947D02*
X353326Y345947D01*
X349125Y347688D01*
X345910Y350903D01*
X344169Y355104D01*
X344169Y359652D01*
X345910Y363853D01*
X349125Y367068D01*
X353326Y368809D01*
X357874Y368809D01*
X362075Y367068D01*
X365290Y363853D01*
X367031Y359652D01*
X367031Y355104D01*
X365290Y350903D01*
X362075Y347688D01*
X357874Y345947D01*
X353326Y345947D01*
G37*
%LPD*%
%LPC*%
G36*
X97548Y217169D02*
X97548Y217169D01*
X93347Y218910D01*
X90132Y222125D01*
X88391Y226326D01*
X88391Y230874D01*
X90132Y235075D01*
X93347Y238290D01*
X97548Y240031D01*
X102096Y240031D01*
X106297Y238290D01*
X109512Y235075D01*
X111253Y230874D01*
X111253Y226326D01*
X109512Y222125D01*
X106297Y218910D01*
X102096Y217169D01*
X97548Y217169D01*
G37*
%LPD*%
%LPC*%
G36*
X596404Y217169D02*
X596404Y217169D01*
X592203Y218910D01*
X588988Y222125D01*
X587247Y226326D01*
X587247Y230874D01*
X588988Y235075D01*
X592203Y238290D01*
X596404Y240031D01*
X600952Y240031D01*
X605153Y238290D01*
X608368Y235075D01*
X610109Y230874D01*
X610109Y226326D01*
X608368Y222125D01*
X605153Y218910D01*
X600952Y217169D01*
X596404Y217169D01*
G37*
%LPD*%
%LPC*%
G36*
X596404Y242569D02*
X596404Y242569D01*
X592203Y244310D01*
X588988Y247525D01*
X587247Y251726D01*
X587247Y256274D01*
X588988Y260475D01*
X592203Y263690D01*
X596404Y265431D01*
X600952Y265431D01*
X605153Y263690D01*
X608368Y260475D01*
X610109Y256274D01*
X610109Y251726D01*
X608368Y247525D01*
X605153Y244310D01*
X600952Y242569D01*
X596404Y242569D01*
G37*
%LPD*%
%LPC*%
G36*
X567448Y217169D02*
X567448Y217169D01*
X563247Y218910D01*
X560032Y222125D01*
X558291Y226326D01*
X558291Y230874D01*
X560032Y235075D01*
X563247Y238290D01*
X567448Y240031D01*
X571996Y240031D01*
X576197Y238290D01*
X579412Y235075D01*
X581153Y230874D01*
X581153Y226326D01*
X579412Y222125D01*
X576197Y218910D01*
X571996Y217169D01*
X567448Y217169D01*
G37*
%LPD*%
%LPC*%
G36*
X327926Y130047D02*
X327926Y130047D01*
X323725Y131788D01*
X320510Y135003D01*
X318769Y139204D01*
X318769Y143752D01*
X320510Y147953D01*
X323725Y151168D01*
X327926Y152909D01*
X332474Y152909D01*
X336675Y151168D01*
X339890Y147953D01*
X341631Y143752D01*
X341631Y139204D01*
X339890Y135003D01*
X336675Y131788D01*
X332474Y130047D01*
X327926Y130047D01*
G37*
%LPD*%
%LPC*%
G36*
X353326Y316991D02*
X353326Y316991D01*
X349125Y318732D01*
X345910Y321947D01*
X344169Y326148D01*
X344169Y330696D01*
X345910Y334897D01*
X349125Y338112D01*
X353326Y339853D01*
X357874Y339853D01*
X362075Y338112D01*
X365290Y334897D01*
X367031Y330696D01*
X367031Y326148D01*
X365290Y321947D01*
X362075Y318732D01*
X357874Y316991D01*
X353326Y316991D01*
G37*
%LPD*%
%LPC*%
G36*
X327926Y345947D02*
X327926Y345947D01*
X323725Y347688D01*
X320510Y350903D01*
X318769Y355104D01*
X318769Y359652D01*
X320510Y363853D01*
X323725Y367068D01*
X327926Y368809D01*
X332474Y368809D01*
X336675Y367068D01*
X339890Y363853D01*
X341631Y359652D01*
X341631Y355104D01*
X339890Y350903D01*
X336675Y347688D01*
X332474Y345947D01*
X327926Y345947D01*
G37*
%LPD*%
%LPC*%
G36*
X327926Y101091D02*
X327926Y101091D01*
X323725Y102832D01*
X320510Y106047D01*
X318769Y110248D01*
X318769Y114796D01*
X320510Y118997D01*
X323725Y122212D01*
X327926Y123953D01*
X332474Y123953D01*
X336675Y122212D01*
X339890Y118997D01*
X341631Y114796D01*
X341631Y110248D01*
X339890Y106047D01*
X336675Y102832D01*
X332474Y101091D01*
X327926Y101091D01*
G37*
%LPD*%
%LPC*%
G36*
X353326Y101091D02*
X353326Y101091D01*
X349125Y102832D01*
X345910Y106047D01*
X344169Y110248D01*
X344169Y114796D01*
X345910Y118997D01*
X349125Y122212D01*
X353326Y123953D01*
X357874Y123953D01*
X362075Y122212D01*
X365290Y118997D01*
X367031Y114796D01*
X367031Y110248D01*
X365290Y106047D01*
X362075Y102832D01*
X357874Y101091D01*
X353326Y101091D01*
G37*
%LPD*%
%LPC*%
G36*
X630388Y462025D02*
X630388Y462025D01*
X626560Y463611D01*
X623631Y466540D01*
X622045Y470368D01*
X622045Y474512D01*
X623631Y478340D01*
X626560Y481269D01*
X630388Y482855D01*
X634532Y482855D01*
X638360Y481269D01*
X641289Y478340D01*
X642875Y474512D01*
X642875Y470368D01*
X641289Y466540D01*
X638360Y463611D01*
X634532Y462025D01*
X630388Y462025D01*
G37*
%LPD*%
%LPC*%
G36*
X503388Y462025D02*
X503388Y462025D01*
X499560Y463611D01*
X496631Y466540D01*
X495045Y470368D01*
X495045Y474512D01*
X496631Y478340D01*
X499560Y481269D01*
X503388Y482855D01*
X507532Y482855D01*
X511360Y481269D01*
X514289Y478340D01*
X515875Y474512D01*
X515875Y470368D01*
X514289Y466540D01*
X511360Y463611D01*
X507532Y462025D01*
X503388Y462025D01*
G37*
%LPD*%
%LPC*%
G36*
X528788Y462025D02*
X528788Y462025D01*
X524960Y463611D01*
X522031Y466540D01*
X520445Y470368D01*
X520445Y474512D01*
X522031Y478340D01*
X524960Y481269D01*
X528788Y482855D01*
X532932Y482855D01*
X536760Y481269D01*
X539689Y478340D01*
X541275Y474512D01*
X541275Y470368D01*
X539689Y466540D01*
X536760Y463611D01*
X532932Y462025D01*
X528788Y462025D01*
G37*
%LPD*%
%LPC*%
G36*
X604988Y462025D02*
X604988Y462025D01*
X601160Y463611D01*
X598231Y466540D01*
X596645Y470368D01*
X596645Y474512D01*
X598231Y478340D01*
X601160Y481269D01*
X604988Y482855D01*
X609132Y482855D01*
X612960Y481269D01*
X615889Y478340D01*
X617475Y474512D01*
X617475Y470368D01*
X615889Y466540D01*
X612960Y463611D01*
X609132Y462025D01*
X604988Y462025D01*
G37*
%LPD*%
%LPC*%
G36*
X579588Y462025D02*
X579588Y462025D01*
X575760Y463611D01*
X572831Y466540D01*
X571245Y470368D01*
X571245Y474512D01*
X572831Y478340D01*
X575760Y481269D01*
X579588Y482855D01*
X583732Y482855D01*
X587560Y481269D01*
X590489Y478340D01*
X592075Y474512D01*
X592075Y470368D01*
X590489Y466540D01*
X587560Y463611D01*
X583732Y462025D01*
X579588Y462025D01*
G37*
%LPD*%
%LPC*%
G36*
X554188Y462025D02*
X554188Y462025D01*
X550360Y463611D01*
X547431Y466540D01*
X545845Y470368D01*
X545845Y474512D01*
X547431Y478340D01*
X550360Y481269D01*
X554188Y482855D01*
X558332Y482855D01*
X562160Y481269D01*
X565089Y478340D01*
X566675Y474512D01*
X566675Y470368D01*
X565089Y466540D01*
X562160Y463611D01*
X558332Y462025D01*
X554188Y462025D01*
G37*
%LPD*%
%LPC*%
G36*
X452588Y462025D02*
X452588Y462025D01*
X448760Y463611D01*
X445831Y466540D01*
X444245Y470368D01*
X444245Y474512D01*
X445831Y478340D01*
X448760Y481269D01*
X452588Y482855D01*
X456732Y482855D01*
X460560Y481269D01*
X463489Y478340D01*
X465075Y474512D01*
X465075Y470368D01*
X463489Y466540D01*
X460560Y463611D01*
X456732Y462025D01*
X452588Y462025D01*
G37*
%LPD*%
%LPC*%
G36*
X259428Y527285D02*
X259428Y527285D01*
X255600Y528871D01*
X252671Y531800D01*
X251085Y535628D01*
X251085Y539772D01*
X252671Y543600D01*
X255600Y546529D01*
X259428Y548115D01*
X263572Y548115D01*
X267400Y546529D01*
X270329Y543600D01*
X271915Y539772D01*
X271915Y535628D01*
X270329Y531800D01*
X267400Y528871D01*
X263572Y527285D01*
X259428Y527285D01*
G37*
%LPD*%
%LPC*%
G36*
X107028Y527285D02*
X107028Y527285D01*
X103200Y528871D01*
X100271Y531800D01*
X98685Y535628D01*
X98685Y539772D01*
X100271Y543600D01*
X103200Y546529D01*
X107028Y548115D01*
X111172Y548115D01*
X115000Y546529D01*
X117929Y543600D01*
X119515Y539772D01*
X119515Y535628D01*
X117929Y531800D01*
X115000Y528871D01*
X111172Y527285D01*
X107028Y527285D01*
G37*
%LPD*%
%LPC*%
G36*
X564228Y527285D02*
X564228Y527285D01*
X560400Y528871D01*
X557471Y531800D01*
X555885Y535628D01*
X555885Y539772D01*
X557471Y543600D01*
X560400Y546529D01*
X564228Y548115D01*
X568372Y548115D01*
X572200Y546529D01*
X575129Y543600D01*
X576715Y539772D01*
X576715Y535628D01*
X575129Y531800D01*
X572200Y528871D01*
X568372Y527285D01*
X564228Y527285D01*
G37*
%LPD*%
%LPC*%
G36*
X386428Y527285D02*
X386428Y527285D01*
X382600Y528871D01*
X379671Y531800D01*
X378085Y535628D01*
X378085Y539772D01*
X379671Y543600D01*
X382600Y546529D01*
X386428Y548115D01*
X390572Y548115D01*
X394400Y546529D01*
X397329Y543600D01*
X398915Y539772D01*
X398915Y535628D01*
X397329Y531800D01*
X394400Y528871D01*
X390572Y527285D01*
X386428Y527285D01*
G37*
%LPD*%
%LPC*%
G36*
X462628Y527285D02*
X462628Y527285D01*
X458800Y528871D01*
X455871Y531800D01*
X454285Y535628D01*
X454285Y539772D01*
X455871Y543600D01*
X458800Y546529D01*
X462628Y548115D01*
X466772Y548115D01*
X470600Y546529D01*
X473529Y543600D01*
X475115Y539772D01*
X475115Y535628D01*
X473529Y531800D01*
X470600Y528871D01*
X466772Y527285D01*
X462628Y527285D01*
G37*
%LPD*%
%LPC*%
G36*
X513428Y527285D02*
X513428Y527285D01*
X509600Y528871D01*
X506671Y531800D01*
X505085Y535628D01*
X505085Y539772D01*
X506671Y543600D01*
X509600Y546529D01*
X513428Y548115D01*
X517572Y548115D01*
X521400Y546529D01*
X524329Y543600D01*
X525915Y539772D01*
X525915Y535628D01*
X524329Y531800D01*
X521400Y528871D01*
X517572Y527285D01*
X513428Y527285D01*
G37*
%LPD*%
%LPC*%
G36*
X538828Y527285D02*
X538828Y527285D01*
X535000Y528871D01*
X532071Y531800D01*
X530485Y535628D01*
X530485Y539772D01*
X532071Y543600D01*
X535000Y546529D01*
X538828Y548115D01*
X542972Y548115D01*
X546800Y546529D01*
X549729Y543600D01*
X551315Y539772D01*
X551315Y535628D01*
X549729Y531800D01*
X546800Y528871D01*
X542972Y527285D01*
X538828Y527285D01*
G37*
%LPD*%
%LPC*%
G36*
X208628Y527285D02*
X208628Y527285D01*
X204800Y528871D01*
X201871Y531800D01*
X200285Y535628D01*
X200285Y539772D01*
X201871Y543600D01*
X204800Y546529D01*
X208628Y548115D01*
X212772Y548115D01*
X216600Y546529D01*
X219529Y543600D01*
X221115Y539772D01*
X221115Y535628D01*
X219529Y531800D01*
X216600Y528871D01*
X212772Y527285D01*
X208628Y527285D01*
G37*
%LPD*%
%LPC*%
G36*
X81628Y527285D02*
X81628Y527285D01*
X77800Y528871D01*
X74871Y531800D01*
X73285Y535628D01*
X73285Y539772D01*
X74871Y543600D01*
X77800Y546529D01*
X81628Y548115D01*
X85772Y548115D01*
X89600Y546529D01*
X92529Y543600D01*
X94115Y539772D01*
X94115Y535628D01*
X92529Y531800D01*
X89600Y528871D01*
X85772Y527285D01*
X81628Y527285D01*
G37*
%LPD*%
%LPC*%
G36*
X437228Y501885D02*
X437228Y501885D01*
X433400Y503471D01*
X430471Y506400D01*
X428885Y510228D01*
X428885Y514372D01*
X430471Y518200D01*
X433400Y521129D01*
X437228Y522715D01*
X441372Y522715D01*
X445200Y521129D01*
X448129Y518200D01*
X449715Y514372D01*
X449715Y510228D01*
X448129Y506400D01*
X445200Y503471D01*
X441372Y501885D01*
X437228Y501885D01*
G37*
%LPD*%
%LPC*%
G36*
X462628Y501885D02*
X462628Y501885D01*
X458800Y503471D01*
X455871Y506400D01*
X454285Y510228D01*
X454285Y514372D01*
X455871Y518200D01*
X458800Y521129D01*
X462628Y522715D01*
X466772Y522715D01*
X470600Y521129D01*
X473529Y518200D01*
X475115Y514372D01*
X475115Y510228D01*
X473529Y506400D01*
X470600Y503471D01*
X466772Y501885D01*
X462628Y501885D01*
G37*
%LPD*%
%LPC*%
G36*
X513428Y501885D02*
X513428Y501885D01*
X509600Y503471D01*
X506671Y506400D01*
X505085Y510228D01*
X505085Y514372D01*
X506671Y518200D01*
X509600Y521129D01*
X513428Y522715D01*
X517572Y522715D01*
X521400Y521129D01*
X524329Y518200D01*
X525915Y514372D01*
X525915Y510228D01*
X524329Y506400D01*
X521400Y503471D01*
X517572Y501885D01*
X513428Y501885D01*
G37*
%LPD*%
%LPC*%
G36*
X488028Y501885D02*
X488028Y501885D01*
X484200Y503471D01*
X481271Y506400D01*
X479685Y510228D01*
X479685Y514372D01*
X481271Y518200D01*
X484200Y521129D01*
X488028Y522715D01*
X492172Y522715D01*
X496000Y521129D01*
X498929Y518200D01*
X500515Y514372D01*
X500515Y510228D01*
X498929Y506400D01*
X496000Y503471D01*
X492172Y501885D01*
X488028Y501885D01*
G37*
%LPD*%
%LPC*%
G36*
X538828Y501885D02*
X538828Y501885D01*
X535000Y503471D01*
X532071Y506400D01*
X530485Y510228D01*
X530485Y514372D01*
X532071Y518200D01*
X535000Y521129D01*
X538828Y522715D01*
X542972Y522715D01*
X546800Y521129D01*
X549729Y518200D01*
X551315Y514372D01*
X551315Y510228D01*
X549729Y506400D01*
X546800Y503471D01*
X542972Y501885D01*
X538828Y501885D01*
G37*
%LPD*%
%LPC*%
G36*
X477988Y462025D02*
X477988Y462025D01*
X474160Y463611D01*
X471231Y466540D01*
X469645Y470368D01*
X469645Y474512D01*
X471231Y478340D01*
X474160Y481269D01*
X477988Y482855D01*
X482132Y482855D01*
X485960Y481269D01*
X488889Y478340D01*
X490475Y474512D01*
X490475Y470368D01*
X488889Y466540D01*
X485960Y463611D01*
X482132Y462025D01*
X477988Y462025D01*
G37*
%LPD*%
%LPC*%
G36*
X249388Y462025D02*
X249388Y462025D01*
X245560Y463611D01*
X242631Y466540D01*
X241045Y470368D01*
X241045Y474512D01*
X242631Y478340D01*
X245560Y481269D01*
X249388Y482855D01*
X253532Y482855D01*
X257360Y481269D01*
X260289Y478340D01*
X261875Y474512D01*
X261875Y470368D01*
X260289Y466540D01*
X257360Y463611D01*
X253532Y462025D01*
X249388Y462025D01*
G37*
%LPD*%
%LPC*%
G36*
X173188Y462025D02*
X173188Y462025D01*
X169360Y463611D01*
X166431Y466540D01*
X164845Y470368D01*
X164845Y474512D01*
X166431Y478340D01*
X169360Y481269D01*
X173188Y482855D01*
X177332Y482855D01*
X181160Y481269D01*
X184089Y478340D01*
X185675Y474512D01*
X185675Y470368D01*
X184089Y466540D01*
X181160Y463611D01*
X177332Y462025D01*
X173188Y462025D01*
G37*
%LPD*%
%LPC*%
G36*
X71588Y462025D02*
X71588Y462025D01*
X67760Y463611D01*
X64831Y466540D01*
X63245Y470368D01*
X63245Y474512D01*
X64831Y478340D01*
X67760Y481269D01*
X71588Y482855D01*
X75732Y482855D01*
X79560Y481269D01*
X82489Y478340D01*
X84075Y474512D01*
X84075Y470368D01*
X82489Y466540D01*
X79560Y463611D01*
X75732Y462025D01*
X71588Y462025D01*
G37*
%LPD*%
G36*
X412586Y478860D02*
X412586Y478860D01*
X412638Y478861D01*
X412706Y478886D01*
X412776Y478901D01*
X412821Y478928D01*
X412869Y478946D01*
X412925Y478991D01*
X412987Y479027D01*
X413021Y479067D01*
X413061Y479100D01*
X413100Y479160D01*
X413147Y479214D01*
X413166Y479263D01*
X413194Y479306D01*
X413212Y479376D01*
X413239Y479442D01*
X413247Y479514D01*
X413255Y479545D01*
X413253Y479568D01*
X413257Y479609D01*
X413257Y480917D01*
X413243Y481007D01*
X413235Y481098D01*
X413223Y481127D01*
X413218Y481159D01*
X413175Y481240D01*
X413139Y481324D01*
X413113Y481356D01*
X413102Y481377D01*
X413079Y481399D01*
X413034Y481455D01*
X398017Y496472D01*
X398017Y504532D01*
X398006Y504603D01*
X398004Y504675D01*
X397986Y504724D01*
X397978Y504775D01*
X397944Y504838D01*
X397919Y504906D01*
X397887Y504946D01*
X397862Y504993D01*
X397810Y505042D01*
X397766Y505098D01*
X397722Y505126D01*
X397684Y505162D01*
X397619Y505192D01*
X397559Y505231D01*
X397508Y505244D01*
X397461Y505266D01*
X397390Y505273D01*
X397320Y505291D01*
X397268Y505287D01*
X397217Y505293D01*
X397146Y505277D01*
X397075Y505272D01*
X397027Y505251D01*
X396976Y505240D01*
X396915Y505204D01*
X396849Y505175D01*
X396793Y505131D01*
X396765Y505114D01*
X396750Y505096D01*
X396718Y505071D01*
X395616Y503969D01*
X394225Y502958D01*
X392693Y502178D01*
X391058Y501646D01*
X390023Y501482D01*
X390023Y511538D01*
X390020Y511558D01*
X390022Y511577D01*
X390000Y511679D01*
X389983Y511781D01*
X389974Y511798D01*
X389970Y511818D01*
X389917Y511907D01*
X389868Y511998D01*
X389854Y512012D01*
X389844Y512029D01*
X389765Y512096D01*
X389690Y512167D01*
X389672Y512176D01*
X389657Y512189D01*
X389561Y512227D01*
X389467Y512271D01*
X389447Y512273D01*
X389429Y512281D01*
X389262Y512299D01*
X387738Y512299D01*
X387718Y512296D01*
X387699Y512298D01*
X387597Y512276D01*
X387495Y512259D01*
X387478Y512250D01*
X387458Y512246D01*
X387369Y512193D01*
X387278Y512144D01*
X387264Y512130D01*
X387247Y512120D01*
X387180Y512041D01*
X387109Y511966D01*
X387100Y511948D01*
X387087Y511933D01*
X387048Y511837D01*
X387005Y511743D01*
X387003Y511723D01*
X386995Y511705D01*
X386977Y511538D01*
X386977Y501482D01*
X385942Y501646D01*
X384307Y502178D01*
X382775Y502958D01*
X381384Y503969D01*
X380776Y504577D01*
X380718Y504619D01*
X380666Y504668D01*
X380619Y504690D01*
X380577Y504720D01*
X380508Y504741D01*
X380443Y504772D01*
X380391Y504777D01*
X380341Y504793D01*
X380270Y504791D01*
X380199Y504799D01*
X380148Y504788D01*
X380096Y504786D01*
X380028Y504762D01*
X379958Y504746D01*
X379913Y504720D01*
X379865Y504702D01*
X379809Y504657D01*
X379747Y504620D01*
X379713Y504581D01*
X379673Y504548D01*
X379634Y504488D01*
X379587Y504433D01*
X379568Y504385D01*
X379540Y504341D01*
X379522Y504272D01*
X379495Y504205D01*
X379487Y504134D01*
X379479Y504103D01*
X379481Y504079D01*
X379477Y504038D01*
X379477Y502169D01*
X379491Y502078D01*
X379499Y501988D01*
X379511Y501958D01*
X379516Y501926D01*
X379559Y501845D01*
X379595Y501761D01*
X379621Y501729D01*
X379632Y501708D01*
X379655Y501686D01*
X379700Y501630D01*
X399086Y482244D01*
X399180Y482176D01*
X399275Y482106D01*
X399281Y482104D01*
X399286Y482100D01*
X399397Y482066D01*
X399509Y482030D01*
X399515Y482030D01*
X399521Y482028D01*
X399638Y482031D01*
X399754Y482032D01*
X399762Y482034D01*
X399767Y482034D01*
X399784Y482041D01*
X399916Y482079D01*
X401788Y482855D01*
X405932Y482855D01*
X409760Y481269D01*
X411958Y479071D01*
X412016Y479029D01*
X412068Y478980D01*
X412115Y478958D01*
X412157Y478927D01*
X412226Y478906D01*
X412291Y478876D01*
X412343Y478870D01*
X412393Y478855D01*
X412464Y478857D01*
X412535Y478849D01*
X412586Y478860D01*
G37*
%LPC*%
G36*
X581520Y485299D02*
X581520Y485299D01*
X576879Y487979D01*
X574199Y492620D01*
X574199Y497980D01*
X576879Y502621D01*
X581520Y505301D01*
X586880Y505301D01*
X591284Y502758D01*
X591306Y502749D01*
X591326Y502735D01*
X591421Y502706D01*
X591514Y502671D01*
X591538Y502670D01*
X591561Y502663D01*
X591572Y502663D01*
X591578Y502584D01*
X591587Y502562D01*
X591591Y502538D01*
X591658Y502384D01*
X594201Y497980D01*
X594201Y492620D01*
X591521Y487979D01*
X586880Y485299D01*
X581520Y485299D01*
G37*
%LPD*%
%LPC*%
G36*
X81140Y5239D02*
X81140Y5239D01*
X76499Y7919D01*
X73819Y12560D01*
X73819Y17920D01*
X76499Y22561D01*
X81140Y25241D01*
X86500Y25241D01*
X91141Y22561D01*
X93821Y17920D01*
X93821Y12560D01*
X91141Y7919D01*
X86500Y5239D01*
X81140Y5239D01*
G37*
%LPD*%
%LPC*%
G36*
X357123Y143001D02*
X357123Y143001D01*
X357123Y153324D01*
X358396Y153123D01*
X360183Y152542D01*
X361857Y151689D01*
X363378Y150584D01*
X364706Y149256D01*
X365811Y147735D01*
X366664Y146061D01*
X367245Y144274D01*
X367446Y143001D01*
X357123Y143001D01*
G37*
%LPD*%
%LPC*%
G36*
X571245Y255523D02*
X571245Y255523D01*
X571245Y265846D01*
X572518Y265645D01*
X574305Y265064D01*
X575979Y264211D01*
X577500Y263106D01*
X578828Y261778D01*
X579933Y260257D01*
X580786Y258583D01*
X581367Y256796D01*
X581568Y255523D01*
X571245Y255523D01*
G37*
%LPD*%
%LPC*%
G36*
X331723Y329945D02*
X331723Y329945D01*
X331723Y340268D01*
X332996Y340067D01*
X334783Y339486D01*
X336457Y338633D01*
X337978Y337528D01*
X339306Y336200D01*
X340411Y334679D01*
X341264Y333005D01*
X341845Y331218D01*
X342046Y329945D01*
X331723Y329945D01*
G37*
%LPD*%
%LPC*%
G36*
X130301Y230123D02*
X130301Y230123D01*
X130301Y240446D01*
X131574Y240245D01*
X133361Y239664D01*
X135035Y238811D01*
X136556Y237706D01*
X137884Y236378D01*
X138989Y234857D01*
X139842Y233183D01*
X140423Y231396D01*
X140624Y230123D01*
X130301Y230123D01*
G37*
%LPD*%
%LPC*%
G36*
X557876Y255523D02*
X557876Y255523D01*
X558077Y256796D01*
X558658Y258583D01*
X559511Y260257D01*
X560616Y261778D01*
X561944Y263106D01*
X563465Y264211D01*
X565139Y265064D01*
X566926Y265645D01*
X568199Y265846D01*
X568199Y255523D01*
X557876Y255523D01*
G37*
%LPD*%
%LPC*%
G36*
X130301Y227077D02*
X130301Y227077D01*
X140624Y227077D01*
X140423Y225804D01*
X139842Y224017D01*
X138989Y222343D01*
X137884Y220822D01*
X136556Y219494D01*
X135035Y218389D01*
X133361Y217536D01*
X131574Y216955D01*
X130301Y216754D01*
X130301Y227077D01*
G37*
%LPD*%
%LPC*%
G36*
X571245Y252477D02*
X571245Y252477D01*
X581568Y252477D01*
X581367Y251204D01*
X580786Y249417D01*
X579933Y247743D01*
X578828Y246222D01*
X577500Y244894D01*
X575979Y243789D01*
X574305Y242936D01*
X572518Y242355D01*
X571245Y242154D01*
X571245Y252477D01*
G37*
%LPD*%
%LPC*%
G36*
X116932Y230123D02*
X116932Y230123D01*
X117133Y231396D01*
X117714Y233183D01*
X118567Y234857D01*
X119672Y236378D01*
X121000Y237706D01*
X122521Y238811D01*
X124195Y239664D01*
X125982Y240245D01*
X127255Y240446D01*
X127255Y230123D01*
X116932Y230123D01*
G37*
%LPD*%
%LPC*%
G36*
X331723Y326899D02*
X331723Y326899D01*
X342046Y326899D01*
X341845Y325626D01*
X341264Y323839D01*
X340411Y322165D01*
X339306Y320644D01*
X337978Y319316D01*
X336457Y318211D01*
X334783Y317358D01*
X332996Y316777D01*
X331723Y316576D01*
X331723Y326899D01*
G37*
%LPD*%
%LPC*%
G36*
X318354Y329945D02*
X318354Y329945D01*
X318555Y331218D01*
X319136Y333005D01*
X319989Y334679D01*
X321094Y336200D01*
X322422Y337528D01*
X323943Y338633D01*
X325617Y339486D01*
X327404Y340067D01*
X328677Y340268D01*
X328677Y329945D01*
X318354Y329945D01*
G37*
%LPD*%
%LPC*%
G36*
X343754Y143001D02*
X343754Y143001D01*
X343955Y144274D01*
X344536Y146061D01*
X345389Y147735D01*
X346494Y149256D01*
X347822Y150584D01*
X349343Y151689D01*
X351017Y152542D01*
X352804Y153123D01*
X354077Y153324D01*
X354077Y143001D01*
X343754Y143001D01*
G37*
%LPD*%
%LPC*%
G36*
X357123Y139955D02*
X357123Y139955D01*
X367446Y139955D01*
X367245Y138682D01*
X366664Y136895D01*
X365811Y135221D01*
X364706Y133700D01*
X363378Y132372D01*
X361857Y131267D01*
X360183Y130414D01*
X358396Y129833D01*
X357123Y129632D01*
X357123Y139955D01*
G37*
%LPD*%
%LPC*%
G36*
X327404Y316777D02*
X327404Y316777D01*
X325617Y317358D01*
X323943Y318211D01*
X322422Y319316D01*
X321094Y320644D01*
X319989Y322165D01*
X319136Y323839D01*
X318555Y325626D01*
X318354Y326899D01*
X328677Y326899D01*
X328677Y316576D01*
X327404Y316777D01*
G37*
%LPD*%
%LPC*%
G36*
X125982Y216955D02*
X125982Y216955D01*
X124195Y217536D01*
X122521Y218389D01*
X121000Y219494D01*
X119672Y220822D01*
X118567Y222343D01*
X117714Y224017D01*
X117133Y225804D01*
X116932Y227077D01*
X127255Y227077D01*
X127255Y216754D01*
X125982Y216955D01*
G37*
%LPD*%
%LPC*%
G36*
X566926Y242355D02*
X566926Y242355D01*
X565139Y242936D01*
X563465Y243789D01*
X561944Y244894D01*
X560616Y246222D01*
X559511Y247743D01*
X558658Y249417D01*
X558077Y251204D01*
X557876Y252477D01*
X568199Y252477D01*
X568199Y242154D01*
X566926Y242355D01*
G37*
%LPD*%
%LPC*%
G36*
X352804Y129833D02*
X352804Y129833D01*
X351017Y130414D01*
X349343Y131267D01*
X347822Y132372D01*
X346494Y133700D01*
X345389Y135221D01*
X344536Y136895D01*
X343955Y138682D01*
X343754Y139955D01*
X354077Y139955D01*
X354077Y129632D01*
X352804Y129833D01*
G37*
%LPD*%
%LPC*%
G36*
X313823Y539223D02*
X313823Y539223D01*
X313823Y548518D01*
X314858Y548354D01*
X316493Y547822D01*
X318025Y547042D01*
X319416Y546031D01*
X320631Y544816D01*
X321642Y543425D01*
X322422Y541893D01*
X322954Y540258D01*
X323118Y539223D01*
X313823Y539223D01*
G37*
%LPD*%
%LPC*%
G36*
X136023Y539223D02*
X136023Y539223D01*
X136023Y548518D01*
X137058Y548354D01*
X138693Y547822D01*
X140225Y547042D01*
X141616Y546031D01*
X142831Y544816D01*
X143842Y543425D01*
X144622Y541893D01*
X145154Y540258D01*
X145318Y539223D01*
X136023Y539223D01*
G37*
%LPD*%
%LPC*%
G36*
X440823Y539223D02*
X440823Y539223D01*
X440823Y548518D01*
X441858Y548354D01*
X443493Y547822D01*
X445025Y547042D01*
X446416Y546031D01*
X447631Y544816D01*
X448642Y543425D01*
X449422Y541893D01*
X449954Y540258D01*
X450118Y539223D01*
X440823Y539223D01*
G37*
%LPD*%
%LPC*%
G36*
X186823Y513823D02*
X186823Y513823D01*
X186823Y523118D01*
X187858Y522954D01*
X189493Y522422D01*
X191025Y521642D01*
X192416Y520631D01*
X193631Y519416D01*
X194642Y518025D01*
X195422Y516493D01*
X195954Y514858D01*
X196118Y513823D01*
X186823Y513823D01*
G37*
%LPD*%
%LPC*%
G36*
X491623Y539223D02*
X491623Y539223D01*
X491623Y548518D01*
X492658Y548354D01*
X494293Y547822D01*
X495825Y547042D01*
X497216Y546031D01*
X498431Y544816D01*
X499442Y543425D01*
X500222Y541893D01*
X500754Y540258D01*
X500918Y539223D01*
X491623Y539223D01*
G37*
%LPD*%
%LPC*%
G36*
X237623Y539223D02*
X237623Y539223D01*
X237623Y548518D01*
X238658Y548354D01*
X240293Y547822D01*
X241825Y547042D01*
X243216Y546031D01*
X244431Y544816D01*
X245442Y543425D01*
X246222Y541893D01*
X246754Y540258D01*
X246918Y539223D01*
X237623Y539223D01*
G37*
%LPD*%
%LPC*%
G36*
X567823Y513823D02*
X567823Y513823D01*
X567823Y523118D01*
X568858Y522954D01*
X570493Y522422D01*
X572025Y521642D01*
X573416Y520631D01*
X574631Y519416D01*
X575642Y518025D01*
X576422Y516493D01*
X576954Y514858D01*
X577118Y513823D01*
X567823Y513823D01*
G37*
%LPD*%
%LPC*%
G36*
X301482Y539223D02*
X301482Y539223D01*
X301646Y540258D01*
X302178Y541893D01*
X302958Y543425D01*
X303969Y544816D01*
X305184Y546031D01*
X306575Y547042D01*
X308107Y547822D01*
X309742Y548354D01*
X310777Y548518D01*
X310777Y539223D01*
X301482Y539223D01*
G37*
%LPD*%
%LPC*%
G36*
X174482Y513823D02*
X174482Y513823D01*
X174646Y514858D01*
X175178Y516493D01*
X175958Y518025D01*
X176969Y519416D01*
X178184Y520631D01*
X179575Y521642D01*
X181107Y522422D01*
X182742Y522954D01*
X183777Y523118D01*
X183777Y513823D01*
X174482Y513823D01*
G37*
%LPD*%
%LPC*%
G36*
X491623Y536177D02*
X491623Y536177D01*
X500918Y536177D01*
X500754Y535142D01*
X500222Y533507D01*
X499442Y531975D01*
X498431Y530584D01*
X497216Y529369D01*
X495825Y528358D01*
X494293Y527578D01*
X492658Y527046D01*
X491623Y526882D01*
X491623Y536177D01*
G37*
%LPD*%
%LPC*%
G36*
X237623Y536177D02*
X237623Y536177D01*
X246918Y536177D01*
X246754Y535142D01*
X246222Y533507D01*
X245442Y531975D01*
X244431Y530584D01*
X243216Y529369D01*
X241825Y528358D01*
X240293Y527578D01*
X238658Y527046D01*
X237623Y526882D01*
X237623Y536177D01*
G37*
%LPD*%
%LPC*%
G36*
X440823Y536177D02*
X440823Y536177D01*
X450118Y536177D01*
X449954Y535142D01*
X449422Y533507D01*
X448642Y531975D01*
X447631Y530584D01*
X446416Y529369D01*
X445025Y528358D01*
X443493Y527578D01*
X441858Y527046D01*
X440823Y526882D01*
X440823Y536177D01*
G37*
%LPD*%
%LPC*%
G36*
X136023Y536177D02*
X136023Y536177D01*
X145318Y536177D01*
X145154Y535142D01*
X144622Y533507D01*
X143842Y531975D01*
X142831Y530584D01*
X141616Y529369D01*
X140225Y528358D01*
X138693Y527578D01*
X137058Y527046D01*
X136023Y526882D01*
X136023Y536177D01*
G37*
%LPD*%
%LPC*%
G36*
X555482Y513823D02*
X555482Y513823D01*
X555646Y514858D01*
X556178Y516493D01*
X556958Y518025D01*
X557969Y519416D01*
X559184Y520631D01*
X560575Y521642D01*
X562107Y522422D01*
X563742Y522954D01*
X564777Y523118D01*
X564777Y513823D01*
X555482Y513823D01*
G37*
%LPD*%
%LPC*%
G36*
X225282Y539223D02*
X225282Y539223D01*
X225446Y540258D01*
X225978Y541893D01*
X226758Y543425D01*
X227769Y544816D01*
X228984Y546031D01*
X230375Y547042D01*
X231907Y547822D01*
X233542Y548354D01*
X234577Y548518D01*
X234577Y539223D01*
X225282Y539223D01*
G37*
%LPD*%
%LPC*%
G36*
X123682Y539223D02*
X123682Y539223D01*
X123846Y540258D01*
X124378Y541893D01*
X125158Y543425D01*
X126169Y544816D01*
X127384Y546031D01*
X128775Y547042D01*
X130307Y547822D01*
X131942Y548354D01*
X132977Y548518D01*
X132977Y539223D01*
X123682Y539223D01*
G37*
%LPD*%
%LPC*%
G36*
X567823Y510777D02*
X567823Y510777D01*
X577118Y510777D01*
X576954Y509742D01*
X576422Y508107D01*
X575642Y506575D01*
X574631Y505184D01*
X573416Y503969D01*
X572025Y502958D01*
X570493Y502178D01*
X568858Y501646D01*
X567823Y501482D01*
X567823Y510777D01*
G37*
%LPD*%
%LPC*%
G36*
X479282Y539223D02*
X479282Y539223D01*
X479446Y540258D01*
X479978Y541893D01*
X480758Y543425D01*
X481769Y544816D01*
X482984Y546031D01*
X484375Y547042D01*
X485907Y547822D01*
X487542Y548354D01*
X488577Y548518D01*
X488577Y539223D01*
X479282Y539223D01*
G37*
%LPD*%
%LPC*%
G36*
X428482Y539223D02*
X428482Y539223D01*
X428646Y540258D01*
X429178Y541893D01*
X429958Y543425D01*
X430969Y544816D01*
X432184Y546031D01*
X433575Y547042D01*
X435107Y547822D01*
X436742Y548354D01*
X437777Y548518D01*
X437777Y539223D01*
X428482Y539223D01*
G37*
%LPD*%
%LPC*%
G36*
X563742Y501646D02*
X563742Y501646D01*
X562107Y502178D01*
X560575Y502958D01*
X559184Y503969D01*
X557969Y505184D01*
X556958Y506575D01*
X556178Y508107D01*
X555646Y509742D01*
X555482Y510777D01*
X564777Y510777D01*
X564777Y501482D01*
X563742Y501646D01*
G37*
%LPD*%
%LPC*%
G36*
X233542Y527046D02*
X233542Y527046D01*
X231907Y527578D01*
X230375Y528358D01*
X228984Y529369D01*
X227769Y530584D01*
X226758Y531975D01*
X225978Y533507D01*
X225446Y535142D01*
X225282Y536177D01*
X234577Y536177D01*
X234577Y526882D01*
X233542Y527046D01*
G37*
%LPD*%
%LPC*%
G36*
X436742Y527046D02*
X436742Y527046D01*
X435107Y527578D01*
X433575Y528358D01*
X432184Y529369D01*
X430969Y530584D01*
X429958Y531975D01*
X429178Y533507D01*
X428646Y535142D01*
X428482Y536177D01*
X437777Y536177D01*
X437777Y526882D01*
X436742Y527046D01*
G37*
%LPD*%
%LPC*%
G36*
X487542Y527046D02*
X487542Y527046D01*
X485907Y527578D01*
X484375Y528358D01*
X482984Y529369D01*
X481769Y530584D01*
X480758Y531975D01*
X479978Y533507D01*
X479446Y535142D01*
X479282Y536177D01*
X488577Y536177D01*
X488577Y526882D01*
X487542Y527046D01*
G37*
%LPD*%
%LPC*%
G36*
X131942Y527046D02*
X131942Y527046D01*
X130307Y527578D01*
X128775Y528358D01*
X127384Y529369D01*
X126169Y530584D01*
X125158Y531975D01*
X124378Y533507D01*
X123846Y535142D01*
X123682Y536177D01*
X132977Y536177D01*
X132977Y526882D01*
X131942Y527046D01*
G37*
%LPD*%
%LPC*%
G36*
X455167Y14223D02*
X455167Y14223D01*
X455167Y21035D01*
X455340Y21682D01*
X455675Y22261D01*
X456148Y22734D01*
X456727Y23069D01*
X457374Y23242D01*
X462027Y23242D01*
X462027Y14223D01*
X455167Y14223D01*
G37*
%LPD*%
%LPC*%
G36*
X484769Y43409D02*
X484769Y43409D01*
X484769Y47451D01*
X494604Y47451D01*
X495251Y47278D01*
X495830Y46943D01*
X496303Y46470D01*
X496638Y45891D01*
X496811Y45244D01*
X496811Y43409D01*
X484769Y43409D01*
G37*
%LPD*%
%LPC*%
G36*
X484769Y30709D02*
X484769Y30709D01*
X484769Y34751D01*
X494604Y34751D01*
X495251Y34578D01*
X495830Y34243D01*
X496303Y33770D01*
X496638Y33191D01*
X496811Y32544D01*
X496811Y30709D01*
X484769Y30709D01*
G37*
%LPD*%
%LPC*%
G36*
X484769Y68809D02*
X484769Y68809D01*
X484769Y72851D01*
X494604Y72851D01*
X495251Y72678D01*
X495830Y72343D01*
X496303Y71870D01*
X496638Y71291D01*
X496811Y70644D01*
X496811Y68809D01*
X484769Y68809D01*
G37*
%LPD*%
%LPC*%
G36*
X484769Y56109D02*
X484769Y56109D01*
X484769Y60151D01*
X494604Y60151D01*
X495251Y59978D01*
X495830Y59643D01*
X496303Y59170D01*
X496638Y58591D01*
X496811Y57944D01*
X496811Y56109D01*
X484769Y56109D01*
G37*
%LPD*%
%LPC*%
G36*
X469729Y43409D02*
X469729Y43409D01*
X469729Y45244D01*
X469902Y45891D01*
X470237Y46470D01*
X470710Y46943D01*
X471289Y47278D01*
X471936Y47451D01*
X481771Y47451D01*
X481771Y43409D01*
X469729Y43409D01*
G37*
%LPD*%
%LPC*%
G36*
X469729Y30709D02*
X469729Y30709D01*
X469729Y32544D01*
X469902Y33191D01*
X470237Y33770D01*
X470710Y34243D01*
X471289Y34578D01*
X471936Y34751D01*
X481771Y34751D01*
X481771Y30709D01*
X469729Y30709D01*
G37*
%LPD*%
%LPC*%
G36*
X469729Y68809D02*
X469729Y68809D01*
X469729Y70644D01*
X469902Y71291D01*
X470237Y71870D01*
X470710Y72343D01*
X471289Y72678D01*
X471936Y72851D01*
X481771Y72851D01*
X481771Y68809D01*
X469729Y68809D01*
G37*
%LPD*%
%LPC*%
G36*
X469729Y56109D02*
X469729Y56109D01*
X469729Y57944D01*
X469902Y58591D01*
X470237Y59170D01*
X470710Y59643D01*
X471289Y59978D01*
X471936Y60151D01*
X481771Y60151D01*
X481771Y56109D01*
X469729Y56109D01*
G37*
%LPD*%
%LPC*%
G36*
X484769Y65811D02*
X484769Y65811D01*
X496811Y65811D01*
X496811Y63976D01*
X496638Y63329D01*
X496303Y62750D01*
X495830Y62277D01*
X495251Y61942D01*
X494604Y61769D01*
X484769Y61769D01*
X484769Y65811D01*
G37*
%LPD*%
%LPC*%
G36*
X484769Y53111D02*
X484769Y53111D01*
X496811Y53111D01*
X496811Y51276D01*
X496638Y50629D01*
X496303Y50050D01*
X495830Y49577D01*
X495251Y49242D01*
X494604Y49069D01*
X484769Y49069D01*
X484769Y53111D01*
G37*
%LPD*%
%LPC*%
G36*
X471936Y36369D02*
X471936Y36369D01*
X471289Y36542D01*
X470710Y36877D01*
X470237Y37350D01*
X469902Y37929D01*
X469729Y38576D01*
X469729Y40411D01*
X481771Y40411D01*
X481771Y36369D01*
X471936Y36369D01*
G37*
%LPD*%
%LPC*%
G36*
X471936Y61769D02*
X471936Y61769D01*
X471289Y61942D01*
X470710Y62277D01*
X470237Y62750D01*
X469902Y63329D01*
X469729Y63976D01*
X469729Y65811D01*
X481771Y65811D01*
X481771Y61769D01*
X471936Y61769D01*
G37*
%LPD*%
%LPC*%
G36*
X471936Y49069D02*
X471936Y49069D01*
X471289Y49242D01*
X470710Y49577D01*
X470237Y50050D01*
X469902Y50629D01*
X469729Y51276D01*
X469729Y53111D01*
X481771Y53111D01*
X481771Y49069D01*
X471936Y49069D01*
G37*
%LPD*%
%LPC*%
G36*
X484769Y36369D02*
X484769Y36369D01*
X484769Y40411D01*
X496811Y40411D01*
X496811Y38576D01*
X496638Y37929D01*
X496303Y37350D01*
X495830Y36877D01*
X495251Y36542D01*
X494604Y36369D01*
X484769Y36369D01*
G37*
%LPD*%
%LPC*%
G36*
X439299Y537699D02*
X439299Y537699D01*
X439299Y537701D01*
X439301Y537701D01*
X439301Y537699D01*
X439299Y537699D01*
G37*
%LPD*%
%LPC*%
G36*
X128777Y228599D02*
X128777Y228599D01*
X128777Y228601D01*
X128779Y228601D01*
X128779Y228599D01*
X128777Y228599D01*
G37*
%LPD*%
%LPC*%
G36*
X490099Y537699D02*
X490099Y537699D01*
X490099Y537701D01*
X490101Y537701D01*
X490101Y537699D01*
X490099Y537699D01*
G37*
%LPD*%
%LPC*%
G36*
X134499Y537699D02*
X134499Y537699D01*
X134499Y537701D01*
X134501Y537701D01*
X134501Y537699D01*
X134499Y537699D01*
G37*
%LPD*%
%LPC*%
G36*
X236099Y537699D02*
X236099Y537699D01*
X236099Y537701D01*
X236101Y537701D01*
X236101Y537699D01*
X236099Y537699D01*
G37*
%LPD*%
%LPC*%
G36*
X355599Y141477D02*
X355599Y141477D01*
X355599Y141479D01*
X355601Y141479D01*
X355601Y141477D01*
X355599Y141477D01*
G37*
%LPD*%
%LPC*%
G36*
X566299Y512299D02*
X566299Y512299D01*
X566299Y512301D01*
X566301Y512301D01*
X566301Y512299D01*
X566299Y512299D01*
G37*
%LPD*%
%LPC*%
G36*
X330199Y328421D02*
X330199Y328421D01*
X330199Y328423D01*
X330201Y328423D01*
X330201Y328421D01*
X330199Y328421D01*
G37*
%LPD*%
%LPC*%
G36*
X569721Y253999D02*
X569721Y253999D01*
X569721Y254001D01*
X569723Y254001D01*
X569723Y253999D01*
X569721Y253999D01*
G37*
%LPD*%
D10*
X83700Y512300D03*
X83700Y537700D03*
X109100Y512300D03*
X109100Y537700D03*
X134500Y512300D03*
X134500Y537700D03*
X159900Y512300D03*
X159900Y537700D03*
X185300Y512300D03*
X185300Y537700D03*
X210700Y512300D03*
X210700Y537700D03*
X236100Y512300D03*
X236100Y537700D03*
X261500Y512300D03*
X261500Y537700D03*
X286900Y512300D03*
X286900Y537700D03*
X312300Y512300D03*
X312300Y537700D03*
X337700Y512300D03*
X337700Y537700D03*
X363100Y512300D03*
X363100Y537700D03*
X388500Y512300D03*
X388500Y537700D03*
X413900Y512300D03*
X413900Y537700D03*
X439300Y512300D03*
X439300Y537700D03*
X464700Y512300D03*
X464700Y537700D03*
X490100Y512300D03*
X490100Y537700D03*
X515500Y512300D03*
X515500Y537700D03*
X540900Y512300D03*
X540900Y537700D03*
X566300Y512300D03*
X566300Y537700D03*
X22860Y472440D03*
X48260Y472440D03*
X73660Y472440D03*
X99060Y472440D03*
X124460Y472440D03*
X149860Y472440D03*
X175260Y472440D03*
X200660Y472440D03*
X226060Y472440D03*
X251460Y472440D03*
X276860Y472440D03*
X302260Y472440D03*
X327660Y472440D03*
X353060Y472440D03*
X378460Y472440D03*
X403860Y472440D03*
X429260Y472440D03*
X454660Y472440D03*
X480060Y472440D03*
X505460Y472440D03*
X530860Y472440D03*
X556260Y472440D03*
X581660Y472440D03*
X607060Y472440D03*
X632460Y472440D03*
D11*
X483270Y54610D03*
X535270Y54610D03*
X483270Y67310D03*
X483270Y41910D03*
X483270Y29210D03*
X535270Y67310D03*
X535270Y41910D03*
X535270Y29210D03*
D12*
X554330Y12700D03*
X535330Y12700D03*
D13*
X560070Y43840D03*
X560070Y62840D03*
D12*
X497230Y12700D03*
X516230Y12700D03*
D14*
X463550Y12700D03*
X478790Y12700D03*
D15*
X471170Y12700D03*
D16*
X83820Y15240D03*
X584200Y495300D03*
D17*
X128778Y228600D03*
X99822Y228600D03*
X128778Y254000D03*
X99822Y254000D03*
X330200Y328422D03*
X330200Y357378D03*
X355600Y328422D03*
X355600Y357378D03*
X569722Y254000D03*
X598678Y254000D03*
X569722Y228600D03*
X598678Y228600D03*
X355600Y141478D03*
X355600Y112522D03*
X330200Y141478D03*
X330200Y112522D03*
D18*
X422910Y63500D03*
X397510Y63500D03*
X372110Y63500D03*
X346710Y63500D03*
X295910Y63500D03*
X321310Y63500D03*
X270510Y63500D03*
X245110Y63500D03*
X219710Y63500D03*
X194310Y63500D03*
X168910Y63500D03*
X143510Y63500D03*
X118110Y63500D03*
D19*
X22860Y472440D02*
X22860Y477520D01*
X33020Y487680D01*
X48260Y487680D01*
X58420Y497840D01*
X99060Y497840D01*
X109100Y507880D01*
X109100Y512300D01*
D20*
X45974Y449326D02*
X22860Y472440D01*
X45974Y449326D02*
X45974Y384862D01*
X99822Y331014D02*
X99822Y254000D01*
X99822Y331014D02*
X45974Y384862D01*
D19*
X48260Y472440D02*
X66040Y490220D01*
X112420Y490220D01*
X134500Y512300D01*
D20*
X128778Y312116D02*
X128778Y254000D01*
X128778Y312116D02*
X53086Y387808D01*
X53086Y467614D02*
X48260Y472440D01*
X53086Y467614D02*
X53086Y387808D01*
D19*
X124460Y472440D02*
X159900Y507880D01*
X159900Y512300D01*
X149860Y487680D02*
X149860Y472440D01*
X149860Y487680D02*
X160020Y497840D01*
X205740Y497840D01*
X210700Y502800D01*
X210700Y512300D01*
X236100Y507880D02*
X200660Y472440D01*
X236100Y507880D02*
X236100Y512300D01*
X261500Y507880D02*
X226060Y472440D01*
X261500Y507880D02*
X261500Y512300D01*
X312300Y487800D02*
X327660Y472440D01*
X312300Y487800D02*
X312300Y512300D01*
X337700Y487800D02*
X353060Y472440D01*
X337700Y487800D02*
X337700Y512300D01*
X363100Y487800D02*
X378460Y472440D01*
X363100Y487800D02*
X363100Y512300D01*
D21*
X516230Y12700D02*
X535330Y12700D01*
X560070Y62840D02*
X555600Y67310D01*
X535270Y67310D01*
X516890Y13360D02*
X516230Y12700D01*
X516890Y13360D02*
X514350Y15900D01*
X514350Y38100D01*
D22*
X514350Y38100D03*
X514350Y66040D03*
D21*
X515620Y67310D01*
X535270Y67310D01*
D18*
X67310Y419100D03*
X92710Y419100D03*
X118110Y419100D03*
X143510Y419100D03*
X168910Y419100D03*
X194310Y419100D03*
X219710Y419100D03*
X245110Y419100D03*
X270510Y419100D03*
X295910Y419100D03*
X321310Y419100D03*
X346710Y419100D03*
X372110Y419100D03*
D19*
X289560Y509640D02*
X286900Y512300D01*
X289560Y509640D02*
X289560Y461010D01*
X283210Y454660D01*
X62230Y454660D01*
D22*
X62230Y454660D03*
D18*
X397510Y419100D03*
X422910Y419100D03*
X448310Y419100D03*
X473710Y419100D03*
X499110Y419100D03*
X524510Y419100D03*
X549910Y419100D03*
X575310Y419100D03*
X600710Y419100D03*
X626110Y419100D03*
D21*
X570890Y73660D02*
X560070Y62840D01*
X570890Y73660D02*
X629920Y73660D01*
X640080Y83820D01*
X640080Y416560D01*
X637540Y419100D01*
X626110Y419100D01*
D18*
X626110Y393700D03*
X600710Y393700D03*
X575310Y393700D03*
X549910Y393700D03*
X524510Y393700D03*
X499110Y393700D03*
X473710Y393700D03*
X448310Y393700D03*
X422910Y393700D03*
X397510Y393700D03*
X372110Y393700D03*
X346710Y393700D03*
X321310Y393700D03*
X295910Y393700D03*
X245110Y393700D03*
X270510Y393700D03*
X219710Y393700D03*
X194310Y393700D03*
X168910Y393700D03*
X143510Y393700D03*
X118110Y393700D03*
X92710Y393700D03*
X67310Y393700D03*
D21*
X483270Y54610D02*
X483270Y41910D01*
X483270Y29210D01*
X483270Y54610D02*
X483270Y67310D01*
X483270Y29210D02*
X474980Y29210D01*
X461010Y15240D01*
X463550Y12700D01*
D18*
X118110Y38100D03*
X143510Y38100D03*
X168910Y38100D03*
X194310Y38100D03*
X219710Y38100D03*
X245110Y38100D03*
X270510Y38100D03*
X295910Y38100D03*
X321310Y38100D03*
X346710Y38100D03*
X372110Y38100D03*
X397510Y38100D03*
X422910Y38100D03*
D21*
X422910Y15240D01*
X425450Y12700D01*
X463550Y12700D01*
D19*
X490100Y533520D02*
X490100Y537700D01*
X490100Y533520D02*
X499110Y524510D01*
X554090Y524510D01*
X566300Y512300D01*
D22*
X161290Y443230D03*
D19*
X109220Y482600D02*
X99060Y472440D01*
X109220Y482600D02*
X114300Y482600D01*
X129540Y497840D01*
X139700Y497840D01*
X147320Y505460D01*
X147320Y518160D01*
X153670Y524510D01*
X171450Y524510D01*
X184640Y537700D01*
X185300Y537700D01*
X274320Y474980D02*
X276860Y472440D01*
X274320Y474980D02*
X274320Y518160D01*
X286900Y530740D01*
X286900Y537700D01*
X299720Y474980D02*
X302260Y472440D01*
X299720Y474980D02*
X299720Y518160D01*
X306070Y524510D01*
X323850Y524510D01*
X337040Y537700D01*
X337700Y537700D01*
X375920Y500380D02*
X403860Y472440D01*
X375920Y500380D02*
X375920Y521970D01*
X363100Y534790D01*
X363100Y537700D01*
D21*
X535270Y41910D02*
X558140Y41910D01*
X560070Y43840D01*
X569620Y43840D02*
X593090Y67310D01*
X636270Y67310D01*
X645160Y76200D01*
X645160Y436880D01*
X416560Y462280D02*
X416560Y482600D01*
X401320Y497840D01*
X401320Y520700D01*
X413900Y533280D01*
X413900Y537700D01*
X441960Y436880D02*
X645160Y436880D01*
X441960Y436880D02*
X416560Y462280D01*
X560070Y43840D02*
X569620Y43840D01*
X557530Y15900D02*
X554330Y12700D01*
X557530Y15900D02*
X557530Y27940D01*
X556260Y29210D01*
X535270Y29210D01*
D22*
X571500Y15240D03*
D21*
X568960Y12700D01*
X554330Y12700D01*
X497230Y12700D02*
X478790Y12700D01*
X497230Y12700D02*
X501650Y17120D01*
X501650Y48260D01*
X506730Y53340D01*
X534000Y53340D01*
X535270Y54610D01*
M02*
